<?xml version="1.0" encoding="utf-8" standalone="no"?>
<!DOCTYPE svg PUBLIC "-//W3C//DTD SVG 1.1//EN"
  "http://www.w3.org/Graphics/SVG/1.1/DTD/svg11.dtd">
<!-- Created with matplotlib (https://matplotlib.org/) -->
<svg height="345.6pt" version="1.1" viewBox="0 0 460.8 345.6" width="460.8pt" xmlns="http://www.w3.org/2000/svg" xmlns:xlink="http://www.w3.org/1999/xlink">
 <metadata>
  <rdf:RDF xmlns:cc="http://creativecommons.org/ns#" xmlns:dc="http://purl.org/dc/elements/1.1/" xmlns:rdf="http://www.w3.org/1999/02/22-rdf-syntax-ns#">
   <cc:Work>
    <dc:type rdf:resource="http://purl.org/dc/dcmitype/StillImage"/>
    <dc:date>2020-11-11T15:38:09.195246</dc:date>
    <dc:format>image/svg+xml</dc:format>
    <dc:creator>
     <cc:Agent>
      <dc:title>Matplotlib v3.3.2, https://matplotlib.org/</dc:title>
     </cc:Agent>
    </dc:creator>
   </cc:Work>
  </rdf:RDF>
 </metadata>
 <defs>
  <style type="text/css">*{stroke-linecap:butt;stroke-linejoin:round;}</style>
 </defs>
 <g id="figure_1">
  <g id="patch_1">
   <path d="M 0 345.6 
L 460.8 345.6 
L 460.8 0 
L 0 0 
z
" style="fill:#ffffff;"/>
  </g>
  <g id="axes_1">
   <g id="patch_2">
    <path d="M 57.6 307.584 
L 414.72 307.584 
L 414.72 41.472 
L 57.6 41.472 
z
" style="fill:#ffffff;"/>
   </g>
   <g id="matplotlib.axis_1">
    <g id="xtick_1">
     <g id="line2d_1">
      <defs>
       <path d="M 0 0 
L 0 3.5 
" id="mc56d4397fb" style="stroke:#000000;stroke-width:0.8;"/>
      </defs>
      <g>
       <use style="stroke:#000000;stroke-width:0.8;" x="57.6" xlink:href="#mc56d4397fb" y="307.584"/>
      </g>
     </g>
     <g id="text_1">
      <!-- 0.0 -->
      <g transform="translate(49.648438 322.182437)scale(0.1 -0.1)">
       <defs>
        <path d="M 31.78125 66.40625 
Q 24.171875 66.40625 20.328125 58.90625 
Q 16.5 51.421875 16.5 36.375 
Q 16.5 21.390625 20.328125 13.890625 
Q 24.171875 6.390625 31.78125 6.390625 
Q 39.453125 6.390625 43.28125 13.890625 
Q 47.125 21.390625 47.125 36.375 
Q 47.125 51.421875 43.28125 58.90625 
Q 39.453125 66.40625 31.78125 66.40625 
z
M 31.78125 74.21875 
Q 44.046875 74.21875 50.515625 64.515625 
Q 56.984375 54.828125 56.984375 36.375 
Q 56.984375 17.96875 50.515625 8.265625 
Q 44.046875 -1.421875 31.78125 -1.421875 
Q 19.53125 -1.421875 13.0625 8.265625 
Q 6.59375 17.96875 6.59375 36.375 
Q 6.59375 54.828125 13.0625 64.515625 
Q 19.53125 74.21875 31.78125 74.21875 
z
" id="DejaVuSans-48"/>
        <path d="M 10.6875 12.40625 
L 21 12.40625 
L 21 0 
L 10.6875 0 
z
" id="DejaVuSans-46"/>
       </defs>
       <use xlink:href="#DejaVuSans-48"/>
       <use x="63.623047" xlink:href="#DejaVuSans-46"/>
       <use x="95.410156" xlink:href="#DejaVuSans-48"/>
      </g>
     </g>
    </g>
    <g id="xtick_2">
     <g id="line2d_2">
      <g>
       <use style="stroke:#000000;stroke-width:0.8;" x="117.12" xlink:href="#mc56d4397fb" y="307.584"/>
      </g>
     </g>
     <g id="text_2">
      <!-- 0.5 -->
      <g transform="translate(109.168438 322.182437)scale(0.1 -0.1)">
       <defs>
        <path d="M 10.796875 72.90625 
L 49.515625 72.90625 
L 49.515625 64.59375 
L 19.828125 64.59375 
L 19.828125 46.734375 
Q 21.96875 47.46875 24.109375 47.828125 
Q 26.265625 48.1875 28.421875 48.1875 
Q 40.625 48.1875 47.75 41.5 
Q 54.890625 34.8125 54.890625 23.390625 
Q 54.890625 11.625 47.5625 5.09375 
Q 40.234375 -1.421875 26.90625 -1.421875 
Q 22.3125 -1.421875 17.546875 -0.640625 
Q 12.796875 0.140625 7.71875 1.703125 
L 7.71875 11.625 
Q 12.109375 9.234375 16.796875 8.0625 
Q 21.484375 6.890625 26.703125 6.890625 
Q 35.15625 6.890625 40.078125 11.328125 
Q 45.015625 15.765625 45.015625 23.390625 
Q 45.015625 31 40.078125 35.4375 
Q 35.15625 39.890625 26.703125 39.890625 
Q 22.75 39.890625 18.8125 39.015625 
Q 14.890625 38.140625 10.796875 36.28125 
z
" id="DejaVuSans-53"/>
       </defs>
       <use xlink:href="#DejaVuSans-48"/>
       <use x="63.623047" xlink:href="#DejaVuSans-46"/>
       <use x="95.410156" xlink:href="#DejaVuSans-53"/>
      </g>
     </g>
    </g>
    <g id="xtick_3">
     <g id="line2d_3">
      <g>
       <use style="stroke:#000000;stroke-width:0.8;" x="176.64" xlink:href="#mc56d4397fb" y="307.584"/>
      </g>
     </g>
     <g id="text_3">
      <!-- 1.0 -->
      <g transform="translate(168.688437 322.182437)scale(0.1 -0.1)">
       <defs>
        <path d="M 12.40625 8.296875 
L 28.515625 8.296875 
L 28.515625 63.921875 
L 10.984375 60.40625 
L 10.984375 69.390625 
L 28.421875 72.90625 
L 38.28125 72.90625 
L 38.28125 8.296875 
L 54.390625 8.296875 
L 54.390625 0 
L 12.40625 0 
z
" id="DejaVuSans-49"/>
       </defs>
       <use xlink:href="#DejaVuSans-49"/>
       <use x="63.623047" xlink:href="#DejaVuSans-46"/>
       <use x="95.410156" xlink:href="#DejaVuSans-48"/>
      </g>
     </g>
    </g>
    <g id="xtick_4">
     <g id="line2d_4">
      <g>
       <use style="stroke:#000000;stroke-width:0.8;" x="236.16" xlink:href="#mc56d4397fb" y="307.584"/>
      </g>
     </g>
     <g id="text_4">
      <!-- 1.5 -->
      <g transform="translate(228.208438 322.182437)scale(0.1 -0.1)">
       <use xlink:href="#DejaVuSans-49"/>
       <use x="63.623047" xlink:href="#DejaVuSans-46"/>
       <use x="95.410156" xlink:href="#DejaVuSans-53"/>
      </g>
     </g>
    </g>
    <g id="xtick_5">
     <g id="line2d_5">
      <g>
       <use style="stroke:#000000;stroke-width:0.8;" x="295.68" xlink:href="#mc56d4397fb" y="307.584"/>
      </g>
     </g>
     <g id="text_5">
      <!-- 2.0 -->
      <g transform="translate(287.728437 322.182437)scale(0.1 -0.1)">
       <defs>
        <path d="M 19.1875 8.296875 
L 53.609375 8.296875 
L 53.609375 0 
L 7.328125 0 
L 7.328125 8.296875 
Q 12.9375 14.109375 22.625 23.890625 
Q 32.328125 33.6875 34.8125 36.53125 
Q 39.546875 41.84375 41.421875 45.53125 
Q 43.3125 49.21875 43.3125 52.78125 
Q 43.3125 58.59375 39.234375 62.25 
Q 35.15625 65.921875 28.609375 65.921875 
Q 23.96875 65.921875 18.8125 64.3125 
Q 13.671875 62.703125 7.8125 59.421875 
L 7.8125 69.390625 
Q 13.765625 71.78125 18.9375 73 
Q 24.125 74.21875 28.421875 74.21875 
Q 39.75 74.21875 46.484375 68.546875 
Q 53.21875 62.890625 53.21875 53.421875 
Q 53.21875 48.921875 51.53125 44.890625 
Q 49.859375 40.875 45.40625 35.40625 
Q 44.1875 33.984375 37.640625 27.21875 
Q 31.109375 20.453125 19.1875 8.296875 
z
" id="DejaVuSans-50"/>
       </defs>
       <use xlink:href="#DejaVuSans-50"/>
       <use x="63.623047" xlink:href="#DejaVuSans-46"/>
       <use x="95.410156" xlink:href="#DejaVuSans-48"/>
      </g>
     </g>
    </g>
    <g id="xtick_6">
     <g id="line2d_6">
      <g>
       <use style="stroke:#000000;stroke-width:0.8;" x="355.2" xlink:href="#mc56d4397fb" y="307.584"/>
      </g>
     </g>
     <g id="text_6">
      <!-- 2.5 -->
      <g transform="translate(347.248437 322.182437)scale(0.1 -0.1)">
       <use xlink:href="#DejaVuSans-50"/>
       <use x="63.623047" xlink:href="#DejaVuSans-46"/>
       <use x="95.410156" xlink:href="#DejaVuSans-53"/>
      </g>
     </g>
    </g>
    <g id="xtick_7">
     <g id="line2d_7">
      <g>
       <use style="stroke:#000000;stroke-width:0.8;" x="414.72" xlink:href="#mc56d4397fb" y="307.584"/>
      </g>
     </g>
     <g id="text_7">
      <!-- 3.0 -->
      <g transform="translate(406.768438 322.182437)scale(0.1 -0.1)">
       <defs>
        <path d="M 40.578125 39.3125 
Q 47.65625 37.796875 51.625 33 
Q 55.609375 28.21875 55.609375 21.1875 
Q 55.609375 10.40625 48.1875 4.484375 
Q 40.765625 -1.421875 27.09375 -1.421875 
Q 22.515625 -1.421875 17.65625 -0.515625 
Q 12.796875 0.390625 7.625 2.203125 
L 7.625 11.71875 
Q 11.71875 9.328125 16.59375 8.109375 
Q 21.484375 6.890625 26.8125 6.890625 
Q 36.078125 6.890625 40.9375 10.546875 
Q 45.796875 14.203125 45.796875 21.1875 
Q 45.796875 27.640625 41.28125 31.265625 
Q 36.765625 34.90625 28.71875 34.90625 
L 20.21875 34.90625 
L 20.21875 43.015625 
L 29.109375 43.015625 
Q 36.375 43.015625 40.234375 45.921875 
Q 44.09375 48.828125 44.09375 54.296875 
Q 44.09375 59.90625 40.109375 62.90625 
Q 36.140625 65.921875 28.71875 65.921875 
Q 24.65625 65.921875 20.015625 65.03125 
Q 15.375 64.15625 9.8125 62.3125 
L 9.8125 71.09375 
Q 15.4375 72.65625 20.34375 73.4375 
Q 25.25 74.21875 29.59375 74.21875 
Q 40.828125 74.21875 47.359375 69.109375 
Q 53.90625 64.015625 53.90625 55.328125 
Q 53.90625 49.265625 50.4375 45.09375 
Q 46.96875 40.921875 40.578125 39.3125 
z
" id="DejaVuSans-51"/>
       </defs>
       <use xlink:href="#DejaVuSans-51"/>
       <use x="63.623047" xlink:href="#DejaVuSans-46"/>
       <use x="95.410156" xlink:href="#DejaVuSans-48"/>
      </g>
     </g>
    </g>
    <g id="text_8">
     <!-- X -->
     <g transform="translate(232.735 335.860562)scale(0.1 -0.1)">
      <defs>
       <path d="M 6.296875 72.90625 
L 16.890625 72.90625 
L 35.015625 45.796875 
L 53.21875 72.90625 
L 63.8125 72.90625 
L 40.375 37.890625 
L 65.375 0 
L 54.78125 0 
L 34.28125 31 
L 13.625 0 
L 2.984375 0 
L 29 38.921875 
z
" id="DejaVuSans-88"/>
      </defs>
      <use xlink:href="#DejaVuSans-88"/>
     </g>
    </g>
   </g>
   <g id="matplotlib.axis_2">
    <g id="ytick_1">
     <g id="line2d_8">
      <defs>
       <path d="M 0 0 
L -3.5 0 
" id="m4a01901f62" style="stroke:#000000;stroke-width:0.8;"/>
      </defs>
      <g>
       <use style="stroke:#000000;stroke-width:0.8;" x="57.6" xlink:href="#m4a01901f62" y="307.584"/>
      </g>
     </g>
     <g id="text_9">
      <!-- 0.0 -->
      <g transform="translate(34.696875 311.383219)scale(0.1 -0.1)">
       <use xlink:href="#DejaVuSans-48"/>
       <use x="63.623047" xlink:href="#DejaVuSans-46"/>
       <use x="95.410156" xlink:href="#DejaVuSans-48"/>
      </g>
     </g>
    </g>
    <g id="ytick_2">
     <g id="line2d_9">
      <g>
       <use style="stroke:#000000;stroke-width:0.8;" x="57.6" xlink:href="#m4a01901f62" y="263.232"/>
      </g>
     </g>
     <g id="text_10">
      <!-- 0.1 -->
      <g transform="translate(34.696875 267.031219)scale(0.1 -0.1)">
       <use xlink:href="#DejaVuSans-48"/>
       <use x="63.623047" xlink:href="#DejaVuSans-46"/>
       <use x="95.410156" xlink:href="#DejaVuSans-49"/>
      </g>
     </g>
    </g>
    <g id="ytick_3">
     <g id="line2d_10">
      <g>
       <use style="stroke:#000000;stroke-width:0.8;" x="57.6" xlink:href="#m4a01901f62" y="218.88"/>
      </g>
     </g>
     <g id="text_11">
      <!-- 0.2 -->
      <g transform="translate(34.696875 222.679219)scale(0.1 -0.1)">
       <use xlink:href="#DejaVuSans-48"/>
       <use x="63.623047" xlink:href="#DejaVuSans-46"/>
       <use x="95.410156" xlink:href="#DejaVuSans-50"/>
      </g>
     </g>
    </g>
    <g id="ytick_4">
     <g id="line2d_11">
      <g>
       <use style="stroke:#000000;stroke-width:0.8;" x="57.6" xlink:href="#m4a01901f62" y="174.528"/>
      </g>
     </g>
     <g id="text_12">
      <!-- 0.3 -->
      <g transform="translate(34.696875 178.327219)scale(0.1 -0.1)">
       <use xlink:href="#DejaVuSans-48"/>
       <use x="63.623047" xlink:href="#DejaVuSans-46"/>
       <use x="95.410156" xlink:href="#DejaVuSans-51"/>
      </g>
     </g>
    </g>
    <g id="ytick_5">
     <g id="line2d_12">
      <g>
       <use style="stroke:#000000;stroke-width:0.8;" x="57.6" xlink:href="#m4a01901f62" y="130.176"/>
      </g>
     </g>
     <g id="text_13">
      <!-- 0.4 -->
      <g transform="translate(34.696875 133.975219)scale(0.1 -0.1)">
       <defs>
        <path d="M 37.796875 64.3125 
L 12.890625 25.390625 
L 37.796875 25.390625 
z
M 35.203125 72.90625 
L 47.609375 72.90625 
L 47.609375 25.390625 
L 58.015625 25.390625 
L 58.015625 17.1875 
L 47.609375 17.1875 
L 47.609375 0 
L 37.796875 0 
L 37.796875 17.1875 
L 4.890625 17.1875 
L 4.890625 26.703125 
z
" id="DejaVuSans-52"/>
       </defs>
       <use xlink:href="#DejaVuSans-48"/>
       <use x="63.623047" xlink:href="#DejaVuSans-46"/>
       <use x="95.410156" xlink:href="#DejaVuSans-52"/>
      </g>
     </g>
    </g>
    <g id="ytick_6">
     <g id="line2d_13">
      <g>
       <use style="stroke:#000000;stroke-width:0.8;" x="57.6" xlink:href="#m4a01901f62" y="85.824"/>
      </g>
     </g>
     <g id="text_14">
      <!-- 0.5 -->
      <g transform="translate(34.696875 89.623219)scale(0.1 -0.1)">
       <use xlink:href="#DejaVuSans-48"/>
       <use x="63.623047" xlink:href="#DejaVuSans-46"/>
       <use x="95.410156" xlink:href="#DejaVuSans-53"/>
      </g>
     </g>
    </g>
    <g id="ytick_7">
     <g id="line2d_14">
      <g>
       <use style="stroke:#000000;stroke-width:0.8;" x="57.6" xlink:href="#m4a01901f62" y="41.472"/>
      </g>
     </g>
     <g id="text_15">
      <!-- 0.6 -->
      <g transform="translate(34.696875 45.271219)scale(0.1 -0.1)">
       <defs>
        <path d="M 33.015625 40.375 
Q 26.375 40.375 22.484375 35.828125 
Q 18.609375 31.296875 18.609375 23.390625 
Q 18.609375 15.53125 22.484375 10.953125 
Q 26.375 6.390625 33.015625 6.390625 
Q 39.65625 6.390625 43.53125 10.953125 
Q 47.40625 15.53125 47.40625 23.390625 
Q 47.40625 31.296875 43.53125 35.828125 
Q 39.65625 40.375 33.015625 40.375 
z
M 52.59375 71.296875 
L 52.59375 62.3125 
Q 48.875 64.0625 45.09375 64.984375 
Q 41.3125 65.921875 37.59375 65.921875 
Q 27.828125 65.921875 22.671875 59.328125 
Q 17.53125 52.734375 16.796875 39.40625 
Q 19.671875 43.65625 24.015625 45.921875 
Q 28.375 48.1875 33.59375 48.1875 
Q 44.578125 48.1875 50.953125 41.515625 
Q 57.328125 34.859375 57.328125 23.390625 
Q 57.328125 12.15625 50.6875 5.359375 
Q 44.046875 -1.421875 33.015625 -1.421875 
Q 20.359375 -1.421875 13.671875 8.265625 
Q 6.984375 17.96875 6.984375 36.375 
Q 6.984375 53.65625 15.1875 63.9375 
Q 23.390625 74.21875 37.203125 74.21875 
Q 40.921875 74.21875 44.703125 73.484375 
Q 48.484375 72.75 52.59375 71.296875 
z
" id="DejaVuSans-54"/>
       </defs>
       <use xlink:href="#DejaVuSans-48"/>
       <use x="63.623047" xlink:href="#DejaVuSans-46"/>
       <use x="95.410156" xlink:href="#DejaVuSans-54"/>
      </g>
     </g>
    </g>
    <g id="text_16">
     <!-- Y -->
     <g transform="translate(28.617188 177.581906)rotate(-90)scale(0.1 -0.1)">
      <defs>
       <path d="M -0.203125 72.90625 
L 10.40625 72.90625 
L 30.609375 42.921875 
L 50.6875 72.90625 
L 61.28125 72.90625 
L 35.5 34.71875 
L 35.5 0 
L 25.59375 0 
L 25.59375 34.71875 
z
" id="DejaVuSans-89"/>
      </defs>
      <use xlink:href="#DejaVuSans-89"/>
     </g>
    </g>
   </g>
   <g id="LineCollection_1">
    <path clip-path="url(#pee69c47345)" d="M 111.168 80.05824 
L 123.072 80.05824 
" style="fill:none;stroke:#4573c4;"/>
    <path clip-path="url(#pee69c47345)" d="M 170.688 58.76928 
L 182.592 58.76928 
" style="fill:none;stroke:#4573c4;"/>
    <path clip-path="url(#pee69c47345)" d="M 230.208 86.26752 
L 242.112 86.26752 
" style="fill:none;stroke:#4573c4;"/>
    <path clip-path="url(#pee69c47345)" d="M 289.728 143.92512 
L 301.632 143.92512 
" style="fill:none;stroke:#4573c4;"/>
    <path clip-path="url(#pee69c47345)" d="M 349.248 210.89664 
L 361.152 210.89664 
" style="fill:none;stroke:#4573c4;"/>
   </g>
   <g id="LineCollection_2">
    <path clip-path="url(#pee69c47345)" d="M 117.12 90.2592 
L 117.12 69.85728 
" style="fill:none;stroke:#4573c4;"/>
    <path clip-path="url(#pee69c47345)" d="M 176.64 66.75264 
L 176.64 50.78592 
" style="fill:none;stroke:#4573c4;"/>
    <path clip-path="url(#pee69c47345)" d="M 236.16 97.79904 
L 236.16 74.736 
" style="fill:none;stroke:#4573c4;"/>
    <path clip-path="url(#pee69c47345)" d="M 295.68 152.352 
L 295.68 135.49824 
" style="fill:none;stroke:#4573c4;"/>
    <path clip-path="url(#pee69c47345)" d="M 355.2 221.98464 
L 355.2 199.80864 
" style="fill:none;stroke:#4573c4;"/>
   </g>
   <g id="line2d_15">
    <path clip-path="url(#pee69c47345)" d="M 58.794381 265.277499 
L 59.988763 248.915628 
L 61.183144 236.788649 
L 62.377525 226.84321 
L 63.571906 218.286336 
L 64.766288 210.712535 
L 67.15505 197.637631 
L 69.543813 186.50774 
L 71.932575 176.756809 
L 74.321338 168.050742 
L 76.7101 160.173285 
L 79.098863 152.975233 
L 81.487625 146.348691 
L 83.876388 140.212765 
L 86.265151 134.505048 
L 89.848294 126.641251 
L 93.431438 119.503932 
L 97.014582 112.997215 
L 100.597726 107.04738 
L 104.18087 101.596384 
L 107.764013 96.597611 
L 111.347157 92.012988 
L 114.930301 87.810951 
L 118.513445 83.964999 
L 122.096589 80.452613 
L 125.679732 77.254461 
L 129.262876 74.353782 
L 132.84602 71.735915 
L 136.429164 69.387924 
L 140.012308 67.29831 
L 143.595452 65.456768 
L 147.178595 63.853998 
L 150.761739 62.481553 
L 154.344883 61.331702 
L 157.928027 60.397329 
L 161.511171 59.671844 
L 165.094314 59.149105 
L 168.677458 58.823357 
L 172.260602 58.689176 
L 175.843746 58.741426 
L 179.42689 58.975219 
L 183.010033 59.385878 
L 186.593177 59.968914 
L 191.370702 61.00697 
L 196.148227 62.333893 
L 200.925753 63.940146 
L 205.703278 65.816483 
L 210.480803 67.953899 
L 215.258328 70.343579 
L 220.035853 72.976865 
L 224.813378 75.845221 
L 229.590903 78.940209 
L 235.562809 83.114912 
L 241.534716 87.614454 
L 247.506622 92.422722 
L 253.478528 97.523667 
L 259.450435 102.90128 
L 265.422341 108.539574 
L 272.588629 115.627133 
L 279.754916 123.039472 
L 286.921204 130.749004 
L 295.281873 140.0823 
L 303.642542 149.738869 
L 313.197592 161.114874 
L 323.947023 174.268893 
L 337.085217 190.729223 
L 355.000936 213.573596 
L 383.666087 250.148205 
L 396.804281 266.554846 
L 408.748094 281.105982 
L 414.72 288.218727 
L 414.72 288.218727 
" style="fill:none;stroke:#e60012;stroke-linecap:square;"/>
   </g>
   <g id="line2d_16">
    <defs>
     <path d="M 0 4 
L 0 -4 
" id="mefd74a6476" style="stroke:#4573c4;"/>
    </defs>
    <g clip-path="url(#pee69c47345)">
     <use style="fill:#4573c4;stroke:#4573c4;" x="111.168" xlink:href="#mefd74a6476" y="80.05824"/>
     <use style="fill:#4573c4;stroke:#4573c4;" x="170.688" xlink:href="#mefd74a6476" y="58.76928"/>
     <use style="fill:#4573c4;stroke:#4573c4;" x="230.208" xlink:href="#mefd74a6476" y="86.26752"/>
     <use style="fill:#4573c4;stroke:#4573c4;" x="289.728" xlink:href="#mefd74a6476" y="143.92512"/>
     <use style="fill:#4573c4;stroke:#4573c4;" x="349.248" xlink:href="#mefd74a6476" y="210.89664"/>
    </g>
   </g>
   <g id="line2d_17">
    <g clip-path="url(#pee69c47345)">
     <use style="fill:#4573c4;stroke:#4573c4;" x="123.072" xlink:href="#mefd74a6476" y="80.05824"/>
     <use style="fill:#4573c4;stroke:#4573c4;" x="182.592" xlink:href="#mefd74a6476" y="58.76928"/>
     <use style="fill:#4573c4;stroke:#4573c4;" x="242.112" xlink:href="#mefd74a6476" y="86.26752"/>
     <use style="fill:#4573c4;stroke:#4573c4;" x="301.632" xlink:href="#mefd74a6476" y="143.92512"/>
     <use style="fill:#4573c4;stroke:#4573c4;" x="361.152" xlink:href="#mefd74a6476" y="210.89664"/>
    </g>
   </g>
   <g id="line2d_18">
    <defs>
     <path d="M 4 0 
L -4 -0 
" id="m3c548dade5" style="stroke:#4573c4;"/>
    </defs>
    <g clip-path="url(#pee69c47345)">
     <use style="fill:#4573c4;stroke:#4573c4;" x="117.12" xlink:href="#m3c548dade5" y="90.2592"/>
     <use style="fill:#4573c4;stroke:#4573c4;" x="176.64" xlink:href="#m3c548dade5" y="66.75264"/>
     <use style="fill:#4573c4;stroke:#4573c4;" x="236.16" xlink:href="#m3c548dade5" y="97.79904"/>
     <use style="fill:#4573c4;stroke:#4573c4;" x="295.68" xlink:href="#m3c548dade5" y="152.352"/>
     <use style="fill:#4573c4;stroke:#4573c4;" x="355.2" xlink:href="#m3c548dade5" y="221.98464"/>
    </g>
   </g>
   <g id="line2d_19">
    <g clip-path="url(#pee69c47345)">
     <use style="fill:#4573c4;stroke:#4573c4;" x="117.12" xlink:href="#m3c548dade5" y="69.85728"/>
     <use style="fill:#4573c4;stroke:#4573c4;" x="176.64" xlink:href="#m3c548dade5" y="50.78592"/>
     <use style="fill:#4573c4;stroke:#4573c4;" x="236.16" xlink:href="#m3c548dade5" y="74.736"/>
     <use style="fill:#4573c4;stroke:#4573c4;" x="295.68" xlink:href="#m3c548dade5" y="135.49824"/>
     <use style="fill:#4573c4;stroke:#4573c4;" x="355.2" xlink:href="#m3c548dade5" y="199.80864"/>
    </g>
   </g>
   <g id="line2d_20">
    <defs>
     <path d="M 0 1.5 
C 0.397805 1.5 0.77937 1.341951 1.06066 1.06066 
C 1.341951 0.77937 1.5 0.397805 1.5 0 
C 1.5 -0.397805 1.341951 -0.77937 1.06066 -1.06066 
C 0.77937 -1.341951 0.397805 -1.5 0 -1.5 
C -0.397805 -1.5 -0.77937 -1.341951 -1.06066 -1.06066 
C -1.341951 -0.77937 -1.5 -0.397805 -1.5 0 
C -1.5 0.397805 -1.341951 0.77937 -1.06066 1.06066 
C -0.77937 1.341951 -0.397805 1.5 0 1.5 
z
" id="mda5dd37610" style="stroke:#4573c4;"/>
    </defs>
    <g clip-path="url(#pee69c47345)">
     <use style="fill:#4573c4;stroke:#4573c4;" x="117.12" xlink:href="#mda5dd37610" y="80.05824"/>
     <use style="fill:#4573c4;stroke:#4573c4;" x="176.64" xlink:href="#mda5dd37610" y="58.76928"/>
     <use style="fill:#4573c4;stroke:#4573c4;" x="236.16" xlink:href="#mda5dd37610" y="86.26752"/>
     <use style="fill:#4573c4;stroke:#4573c4;" x="295.68" xlink:href="#mda5dd37610" y="143.92512"/>
     <use style="fill:#4573c4;stroke:#4573c4;" x="355.2" xlink:href="#mda5dd37610" y="210.89664"/>
    </g>
   </g>
   <g id="patch_3">
    <path d="M 57.6 307.584 
L 57.6 41.472 
" style="fill:none;stroke:#000000;stroke-linecap:square;stroke-linejoin:miter;stroke-width:0.8;"/>
   </g>
   <g id="patch_4">
    <path d="M 414.72 307.584 
L 414.72 41.472 
" style="fill:none;stroke:#000000;stroke-linecap:square;stroke-linejoin:miter;stroke-width:0.8;"/>
   </g>
   <g id="patch_5">
    <path d="M 57.6 307.584 
L 414.72 307.584 
" style="fill:none;stroke:#000000;stroke-linecap:square;stroke-linejoin:miter;stroke-width:0.8;"/>
   </g>
   <g id="patch_6">
    <path d="M 57.6 41.472 
L 414.72 41.472 
" style="fill:none;stroke:#000000;stroke-linecap:square;stroke-linejoin:miter;stroke-width:0.8;"/>
   </g>
   <g id="text_17">
    <!-- Y与X关系实验结果及理论曲线 -->
    <g transform="translate(171.16 35.472)scale(0.1 -0.1)">
     <defs>
      <path d="M 47.265625 68.75 
L 28.90625 32.03125 
L 28.90625 1.953125 
L 19.921875 1.953125 
L 19.921875 32.03125 
L 1.5625 68.75 
L 10.546875 68.75 
L 24.21875 40.234375 
L 24.609375 40.234375 
L 38.28125 68.75 
z
" id="SimHei-89"/>
      <path d="M 83.59375 1.5625 
Q 82.421875 -4.6875 76.953125 -6.640625 
Q 71.484375 -8.59375 60.9375 -9.375 
Q 60.546875 -5.859375 57.03125 -0.390625 
Q 68.359375 -0.78125 71.484375 0 
Q 74.609375 0.78125 75.578125 3.515625 
Q 76.5625 6.25 79.6875 36.71875 
L 17.578125 36.71875 
Q 22.65625 67.96875 23.046875 81.25 
Q 28.125 80.46875 32.421875 80.078125 
Q 30.859375 75.390625 29.6875 66.796875 
L 76.5625 66.796875 
Q 84.375 66.796875 90.625 67.1875 
L 90.625 59.765625 
Q 84.375 60.15625 77.34375 60.15625 
L 28.90625 60.15625 
L 26.5625 42.96875 
L 88.671875 42.96875 
Q 87.890625 38.28125 87.109375 32.03125 
z
M 57.421875 21.09375 
Q 64.453125 21.09375 70.3125 21.484375 
L 70.3125 13.671875 
Q 64.453125 14.0625 60.15625 14.0625 
L 22.65625 14.0625 
Q 15.625 14.0625 7.8125 13.671875 
L 7.8125 21.484375 
Q 15.625 21.09375 22.65625 21.09375 
z
" id="SimHei-19982"/>
      <path d="M 46.875 1.953125 
L 37.5 1.953125 
L 24.21875 29.296875 
L 10.9375 1.953125 
L 1.5625 1.953125 
L 19.921875 37.109375 
L 3.515625 68.75 
L 12.890625 68.75 
L 24.21875 44.53125 
L 35.546875 68.75 
L 44.921875 68.75 
L 28.515625 37.109375 
z
" id="SimHei-88"/>
      <path d="M 73.046875 75.78125 
Q 70.703125 73.046875 68.15625 68.359375 
Q 65.625 63.671875 63.671875 59.765625 
L 72.265625 59.765625 
Q 80.46875 59.765625 86.71875 60.15625 
L 86.71875 52.734375 
Q 81.640625 53.125 73.4375 53.125 
L 53.125 53.125 
L 53.125 33.59375 
L 77.734375 33.59375 
Q 85.546875 33.59375 91.796875 33.984375 
L 91.796875 26.5625 
Q 85.546875 26.953125 78.515625 26.953125 
L 54.6875 26.953125 
Q 66.40625 7.03125 93.75 1.171875 
Q 90.234375 -2.734375 87.5 -8.203125 
Q 62.890625 0 50.390625 20.3125 
Q 43.75 3.125 13.671875 -9.375 
Q 12.109375 -5.46875 7.8125 -2.34375 
Q 37.890625 5.859375 44.921875 26.953125 
L 24.21875 26.953125 
Q 15.234375 26.953125 9.375 26.5625 
L 9.375 33.59375 
Q 13.671875 33.203125 22.65625 33.203125 
L 45.703125 33.203125 
L 45.703125 53.125 
L 27.34375 53.125 
Q 19.921875 53.125 14.0625 52.734375 
L 14.0625 60.15625 
Q 19.921875 59.765625 27.734375 59.765625 
L 55.859375 59.765625 
Q 61.328125 72.265625 63.671875 80.46875 
Q 67.578125 78.125 73.046875 75.78125 
z
M 33.203125 80.078125 
Q 38.28125 73.828125 43.75 65.234375 
Q 39.0625 62.890625 36.328125 60.546875 
Q 31.640625 69.53125 26.953125 75.390625 
Q 30.46875 77.734375 33.203125 80.078125 
z
" id="SimHei-20851"/>
      <path d="M 82.8125 81.25 
Q 85.15625 77.34375 89.453125 73.046875 
Q 77.734375 72.65625 69.328125 71.671875 
Q 60.9375 70.703125 48.828125 69.53125 
Q 50.78125 67.578125 54.296875 66.015625 
Q 49.21875 62.890625 44.328125 58.78125 
Q 39.453125 54.6875 34.765625 51.171875 
L 54.296875 51.171875 
Q 64.0625 57.8125 70.703125 63.28125 
Q 74.609375 60.15625 80.078125 57.8125 
Q 74.609375 55.46875 69.53125 52.734375 
Q 64.453125 50 52.921875 42.765625 
Q 41.40625 35.546875 33.203125 30.859375 
Q 56.25 32.03125 76.171875 32.8125 
Q 74.21875 34.765625 66.015625 41.015625 
Q 69.921875 42.578125 72.65625 44.921875 
Q 77.34375 41.40625 83.390625 36.125 
Q 89.453125 30.859375 94.921875 25.78125 
Q 90.234375 23.046875 87.5 20.703125 
Q 84.375 24.609375 81.640625 26.953125 
Q 71.09375 26.5625 56.640625 25.78125 
L 56.640625 2.34375 
Q 56.640625 -5.078125 52.921875 -6.4375 
Q 49.21875 -7.8125 39.453125 -9.375 
Q 38.671875 -4.6875 35.9375 -0.390625 
Q 44.921875 -0.390625 47.0625 0.1875 
Q 49.21875 0.78125 49.21875 4.6875 
L 49.21875 25.78125 
Q 25.390625 25.390625 16.796875 23.828125 
Q 15.625 27.734375 14.0625 32.03125 
Q 22.65625 32.8125 29.296875 35.9375 
Q 35.9375 39.0625 45.3125 45.3125 
Q 36.328125 45.3125 31.828125 44.921875 
Q 27.34375 44.53125 21.875 43.75 
Q 20.703125 48.046875 19.53125 51.953125 
Q 26.171875 51.953125 32.8125 57.21875 
Q 39.453125 62.5 42.96875 68.75 
Q 21.09375 67.96875 14.453125 67.1875 
Q 13.28125 71.09375 11.71875 74.21875 
Q 33.59375 74.21875 50.78125 75.78125 
Q 67.96875 77.34375 82.8125 81.25 
z
M 72.265625 19.53125 
Q 76.953125 16.015625 83.203125 11.515625 
Q 89.453125 7.03125 93.75 2.734375 
Q 90.625 0 87.5 -3.515625 
Q 82.421875 1.953125 76.953125 6.25 
Q 71.484375 10.546875 66.796875 13.671875 
Q 70.3125 16.40625 72.265625 19.53125 
z
M 34.375 13.671875 
Q 29.6875 11.328125 24.015625 5.859375 
Q 18.359375 0.390625 12.5 -4.6875 
Q 8.984375 -1.171875 5.859375 0.390625 
Q 16.796875 7.03125 26.171875 19.140625 
Q 29.6875 16.40625 34.375 13.671875 
z
" id="SimHei-31995"/>
      <path d="M 64.453125 54.6875 
Q 63.28125 50 62.5 41.796875 
Q 61.71875 33.59375 60.15625 24.21875 
L 78.515625 24.21875 
Q 85.546875 24.21875 93.359375 24.609375 
L 93.359375 17.1875 
Q 85.15625 17.578125 78.125 17.578125 
L 58.203125 17.578125 
Q 54.6875 9.765625 47.65625 3.90625 
Q 40.625 -1.953125 31.25 -5.265625 
Q 21.875 -8.59375 14.453125 -10.546875 
Q 12.890625 -5.859375 7.8125 -3.125 
Q 19.140625 -1.953125 32.03125 3.3125 
Q 44.921875 8.59375 50 17.578125 
L 22.265625 17.578125 
Q 15.234375 17.578125 6.640625 17.1875 
L 6.640625 24.609375 
Q 15.625 24.21875 22.265625 24.21875 
L 52.734375 24.21875 
Q 53.90625 30.859375 54.484375 38.46875 
Q 55.078125 46.09375 54.6875 57.03125 
Q 59.375 55.46875 64.453125 54.6875 
z
M 50.78125 82.03125 
Q 53.90625 75.78125 56.25 68.359375 
L 90.234375 68.359375 
Q 89.84375 64.0625 89.84375 59.765625 
Q 89.84375 55.859375 90.234375 51.171875 
L 81.25 51.171875 
L 81.25 62.109375 
L 19.140625 62.109375 
L 19.140625 50.390625 
L 10.546875 50.390625 
Q 10.9375 55.078125 10.9375 59.375 
Q 10.9375 64.0625 10.546875 68.359375 
L 46.484375 68.359375 
Q 45.3125 73.046875 42.1875 79.296875 
Q 45.3125 80.46875 50.78125 82.03125 
z
M 62.5 12.890625 
Q 71.09375 8.203125 78.90625 4.09375 
Q 86.71875 0 92.578125 -3.515625 
Q 89.84375 -6.640625 86.71875 -10.15625 
Q 79.6875 -5.078125 71.484375 -0.578125 
Q 63.28125 3.90625 57.421875 6.25 
Q 60.546875 10.15625 62.5 12.890625 
z
M 18.359375 42.96875 
Q 25 39.84375 36.71875 32.03125 
Q 35.15625 29.6875 32.03125 25.78125 
Q 21.09375 33.984375 14.453125 36.71875 
Q 16.796875 39.0625 18.359375 42.96875 
z
M 49.21875 44.140625 
Q 46.484375 41.015625 44.53125 37.890625 
Q 32.03125 46.875 26.171875 48.828125 
Q 28.125 51.5625 30.46875 55.078125 
z
" id="SimHei-23454"/>
      <path d="M 35.9375 73.828125 
Q 35.15625 70.3125 34.765625 63.671875 
L 32.03125 33.203125 
L 39.453125 33.203125 
Q 39.0625 30.078125 38.671875 22.65625 
L 37.109375 1.171875 
Q 37.109375 -7.03125 32.421875 -8.203125 
Q 27.734375 -9.375 19.53125 -10.546875 
Q 18.359375 -5.078125 16.40625 -1.5625 
Q 24.609375 -1.5625 27.140625 -1.359375 
Q 29.6875 -1.171875 30.46875 2.34375 
L 31.640625 26.5625 
L 8.59375 26.5625 
Q 8.984375 33.984375 9.171875 42.765625 
Q 9.375 51.5625 9.375 59.375 
L 17.1875 59.375 
Q 16.40625 55.078125 16.015625 48.234375 
Q 15.625 41.40625 15.625 33.203125 
L 25.390625 33.203125 
L 28.125 67.578125 
L 17.578125 67.578125 
Q 11.328125 67.578125 5.46875 67.1875 
L 5.46875 74.21875 
Q 11.328125 73.828125 17.578125 73.828125 
z
M 67.578125 76.171875 
Q 73.828125 64.453125 80.46875 58.984375 
Q 87.109375 53.515625 96.09375 50.390625 
Q 92.578125 47.265625 90.625 42.578125 
Q 85.15625 45.703125 80.078125 50 
L 80.078125 43.359375 
Q 75 43.75 65.625 43.75 
Q 56.25 43.75 50.390625 43.359375 
L 50.390625 49.609375 
Q 48.046875 46.484375 43.75 41.40625 
Q 40.234375 44.921875 36.328125 46.875 
Q 42.578125 51.171875 45.890625 55.46875 
Q 49.21875 59.765625 51.75 64.453125 
Q 54.296875 69.140625 56.046875 73.046875 
Q 57.8125 76.953125 58.984375 81.640625 
Q 64.0625 80.46875 69.53125 79.296875 
z
M 87.5 33.59375 
Q 85.546875 31.25 84.375 27.140625 
Q 83.203125 23.046875 80.65625 14.25 
Q 78.125 5.46875 76.5625 0.390625 
L 82.03125 0.390625 
Q 84.765625 0.390625 90.625 0.78125 
L 90.625 -6.25 
Q 85.546875 -5.859375 82.03125 -5.859375 
L 51.953125 -5.859375 
Q 44.921875 -5.859375 41.796875 -6.25 
L 41.796875 0.78125 
Q 46.484375 0.390625 52.34375 0.390625 
L 69.921875 0.390625 
Q 73.046875 8.984375 75 17.96875 
L 78.90625 35.9375 
Q 82.03125 34.765625 87.5 33.59375 
z
M 79.6875 50.390625 
Q 75 53.90625 71.09375 58.984375 
Q 67.1875 64.0625 63.28125 71.875 
Q 60.15625 65.625 57.609375 61.125 
Q 55.078125 56.640625 50.78125 50.390625 
z
M 50.78125 33.984375 
Q 52.34375 28.515625 54.09375 21.484375 
Q 55.859375 14.453125 57.421875 8.59375 
Q 53.90625 8.203125 50.78125 6.640625 
Q 49.609375 14.0625 48.234375 19.140625 
Q 46.875 24.21875 44.53125 32.03125 
Q 47.65625 33.203125 50.78125 33.984375 
z
M 27.734375 17.578125 
Q 27.34375 14.84375 26.953125 10.9375 
Q 21.09375 9.765625 17.375 8.984375 
Q 13.671875 8.203125 5.859375 5.859375 
Q 4.6875 10.15625 3.125 14.453125 
Q 8.59375 14.84375 14.453125 15.625 
Q 20.3125 16.40625 27.734375 17.578125 
z
M 67.1875 25.78125 
Q 67.96875 20.703125 69.140625 12.890625 
L 62.890625 11.328125 
Q 61.328125 19.921875 60.546875 24.40625 
Q 59.765625 28.90625 58.59375 34.765625 
Q 62.109375 35.546875 65.625 35.9375 
z
" id="SimHei-39564"/>
      <path d="M 89.453125 30.078125 
Q 89.0625 25 89.0625 18.75 
L 89.0625 5.46875 
Q 89.0625 -1.953125 89.453125 -7.421875 
L 81.640625 -7.421875 
L 81.640625 0 
L 55.078125 0 
L 55.078125 -8.203125 
L 47.265625 -8.203125 
Q 47.65625 1.953125 47.65625 5.078125 
L 47.65625 19.53125 
Q 47.65625 24.21875 47.265625 30.078125 
L 89.453125 30.078125 
z
M 29.6875 75.78125 
Q 26.5625 71.875 23.046875 65.625 
Q 19.53125 59.375 14.453125 50 
Q 23.046875 50.390625 26.953125 50.390625 
Q 30.46875 56.640625 32.8125 62.5 
Q 36.71875 59.765625 41.40625 57.421875 
Q 39.453125 55.859375 34.5625 48.828125 
Q 29.6875 41.796875 19.140625 25.78125 
Q 32.03125 27.734375 39.453125 28.90625 
Q 38.28125 24.609375 38.28125 21.484375 
Q 34.765625 21.09375 25.78125 19.921875 
Q 16.796875 18.75 8.203125 16.40625 
Q 6.640625 20.3125 5.46875 24.21875 
Q 10.15625 25.390625 14.84375 31.4375 
Q 19.53125 37.5 23.046875 44.140625 
Q 20.3125 44.140625 15.03125 43.546875 
Q 9.765625 42.96875 5.859375 41.796875 
Q 4.6875 45.703125 3.515625 49.21875 
Q 7.8125 52.734375 12.6875 61.328125 
Q 17.578125 69.921875 20.3125 80.078125 
Q 25 77.734375 29.6875 75.78125 
z
M 63.671875 65.234375 
Q 63.671875 71.875 63.28125 80.859375 
L 71.484375 80.859375 
Q 71.09375 73.828125 71.09375 65.234375 
L 82.421875 65.234375 
Q 89.84375 65.234375 96.09375 65.625 
L 96.09375 58.59375 
Q 89.84375 58.984375 82.8125 58.984375 
L 71.09375 58.984375 
L 71.09375 46.09375 
L 80.078125 46.09375 
Q 85.546875 46.09375 91.015625 46.484375 
L 91.015625 39.453125 
Q 86.328125 39.84375 79.6875 39.84375 
L 57.03125 39.84375 
Q 50.390625 39.84375 45.3125 39.453125 
L 45.3125 46.484375 
Q 50.390625 46.09375 56.25 46.09375 
L 63.671875 46.09375 
L 63.671875 58.984375 
L 55.078125 58.984375 
Q 48.046875 58.984375 41.796875 58.59375 
L 41.796875 65.625 
Q 46.875 65.234375 54.296875 65.234375 
z
M 81.640625 6.25 
L 81.640625 23.828125 
L 55.078125 23.828125 
L 55.078125 6.25 
z
M 40.234375 10.15625 
Q 39.0625 6.640625 39.453125 2.734375 
Q 32.03125 1.5625 22.65625 0 
Q 13.28125 -1.5625 6.640625 -3.515625 
Q 5.078125 1.5625 3.515625 5.46875 
Q 11.71875 5.859375 18.359375 6.828125 
Q 25 7.8125 40.234375 10.15625 
z
" id="SimHei-32467"/>
      <path d="M 46.484375 -8.203125 
Q 46.875 -1.171875 46.875 8.984375 
L 46.875 25 
L 45.3125 25 
Q 42.578125 19.921875 39.0625 15.625 
Q 35.546875 11.328125 31.046875 8 
Q 26.5625 4.6875 21.28125 1.5625 
Q 16.015625 -1.5625 10.546875 -3.90625 
Q 8.984375 0.390625 6.25 4.296875 
Q 10.9375 5.46875 15.234375 7.609375 
Q 19.53125 9.765625 23.828125 12.296875 
Q 28.125 14.84375 31.25 17.96875 
Q 34.375 21.09375 37.109375 25 
L 21.484375 25 
Q 15.625 25 7.03125 24.21875 
L 7.03125 32.03125 
Q 14.84375 31.25 21.484375 31.25 
L 46.875 31.25 
L 46.875 38.28125 
L 17.96875 38.28125 
Q 18.359375 47.65625 18.359375 58.984375 
Q 18.359375 70.3125 17.96875 78.125 
L 83.203125 78.125 
Q 82.8125 70.3125 82.8125 58.984375 
Q 82.8125 47.65625 83.203125 38.28125 
L 54.296875 38.28125 
L 54.296875 31.25 
L 78.90625 31.25 
Q 86.71875 31.25 92.578125 31.640625 
L 92.578125 24.21875 
Q 85.9375 25 79.6875 25 
L 64.453125 25 
Q 69.53125 16.796875 76.953125 12.5 
Q 84.375 8.203125 94.53125 5.859375 
Q 91.796875 2.34375 90.234375 -2.734375 
Q 76.953125 2.34375 69.140625 8.59375 
Q 61.328125 14.84375 57.421875 25 
L 54.296875 25 
L 54.296875 8.59375 
Q 54.296875 0 54.6875 -8.203125 
z
M 75.390625 60.546875 
L 75.390625 72.265625 
L 54.296875 72.265625 
L 54.296875 60.546875 
z
M 46.875 60.546875 
L 46.875 72.265625 
L 26.171875 72.265625 
L 26.171875 60.546875 
z
M 75.390625 44.140625 
L 75.390625 54.6875 
L 54.296875 54.6875 
L 54.296875 44.140625 
z
M 46.875 44.140625 
L 46.875 54.6875 
L 26.171875 54.6875 
L 26.171875 44.140625 
z
" id="SimHei-26524"/>
      <path d="M 80.46875 75 
Q 78.125 70.703125 74.40625 63.078125 
Q 70.703125 55.46875 66.796875 48.828125 
L 85.546875 48.828125 
Q 80.078125 32.8125 75.578125 25.1875 
Q 71.09375 17.578125 66.40625 12.109375 
Q 70.703125 8.984375 79.09375 5.46875 
Q 87.5 1.953125 96.09375 0 
Q 91.796875 -4.6875 90.625 -8.203125 
Q 76.171875 -3.515625 60.9375 7.03125 
Q 52.734375 0.78125 44.328125 -2.53125 
Q 35.9375 -5.859375 26.171875 -8.59375 
Q 25.390625 -6.640625 21.484375 -1.953125 
Q 43.75 2.734375 55.078125 11.71875 
Q 49.609375 17.578125 44.53125 24.796875 
Q 39.453125 32.03125 35.546875 39.0625 
Q 33.984375 32.421875 31.640625 26.359375 
Q 29.296875 20.3125 26.359375 15.03125 
Q 23.4375 9.765625 19.921875 5.265625 
Q 16.40625 0.78125 9.765625 -6.25 
Q 7.8125 -3.515625 3.90625 0.390625 
Q 13.671875 7.8125 19.53125 17.96875 
Q 25.390625 28.125 27.734375 37.296875 
Q 30.078125 46.484375 31.046875 54.875 
Q 32.03125 63.28125 32.03125 68.75 
L 27.34375 68.75 
Q 21.484375 68.75 14.453125 68.359375 
L 14.453125 75.390625 
Q 21.484375 75 27.34375 75 
z
M 37.5 48.828125 
Q 41.015625 41.796875 48.4375 31.25 
Q 55.859375 20.703125 60.546875 16.796875 
Q 64.0625 20.3125 67.96875 26.75 
Q 71.875 33.203125 75.390625 42.578125 
L 55.078125 42.578125 
Q 57.8125 46.875 60.9375 52.921875 
Q 64.0625 58.984375 68.359375 68.75 
L 39.453125 68.75 
Q 39.0625 62.5 37.5 48.828125 
z
" id="SimHei-21450"/>
      <path d="M 91.015625 75.78125 
Q 90.625 70.703125 90.625 53.515625 
Q 90.625 36.71875 91.015625 29.296875 
L 69.53125 29.296875 
L 69.53125 17.578125 
L 81.25 17.578125 
Q 88.28125 17.578125 92.1875 17.96875 
L 92.1875 10.9375 
Q 87.890625 11.328125 81.25 11.328125 
L 69.53125 11.328125 
L 69.53125 -1.953125 
L 83.59375 -1.953125 
Q 91.015625 -1.953125 96.09375 -1.5625 
L 96.09375 -8.59375 
Q 91.015625 -8.203125 83.984375 -8.203125 
L 46.09375 -8.203125 
Q 39.84375 -8.203125 35.15625 -8.59375 
L 35.15625 -1.5625 
Q 40.234375 -1.953125 46.09375 -1.953125 
L 62.109375 -1.953125 
L 62.109375 11.328125 
L 49.21875 11.328125 
Q 44.140625 11.328125 40.234375 10.9375 
L 40.234375 17.96875 
Q 44.140625 17.578125 49.21875 17.578125 
L 62.109375 17.578125 
L 62.109375 29.296875 
L 41.015625 29.296875 
Q 41.40625 35.15625 41.40625 53.125 
Q 41.40625 71.09375 41.015625 75.78125 
L 91.015625 75.78125 
z
M 27.34375 70.703125 
Q 31.640625 70.703125 36.71875 71.09375 
L 36.71875 63.671875 
Q 31.25 64.0625 27.34375 64.0625 
L 23.828125 64.0625 
L 23.828125 42.96875 
Q 29.296875 42.96875 34.765625 43.359375 
L 34.765625 35.9375 
Q 29.296875 36.328125 23.828125 36.328125 
L 23.828125 11.328125 
Q 31.25 14.0625 36.328125 16.40625 
Q 37.109375 12.5 37.890625 9.765625 
Q 30.46875 7.421875 21.28125 3.703125 
Q 12.109375 0 7.03125 -3.125 
Q 5.46875 0.78125 3.515625 5.078125 
Q 8.59375 5.859375 16.796875 9.375 
L 16.796875 36.328125 
Q 9.765625 36.328125 4.6875 35.9375 
L 4.6875 43.359375 
Q 10.15625 42.96875 16.796875 42.96875 
L 16.796875 64.0625 
L 12.109375 64.0625 
Q 8.59375 64.0625 3.515625 63.671875 
L 3.515625 71.09375 
Q 8.59375 70.703125 12.109375 70.703125 
z
M 83.203125 35.546875 
L 83.203125 49.609375 
L 69.53125 49.609375 
L 69.53125 35.546875 
z
M 83.203125 55.46875 
L 83.203125 69.53125 
L 69.53125 69.53125 
L 69.53125 55.46875 
z
M 62.109375 35.546875 
L 62.109375 49.609375 
L 48.828125 49.609375 
L 48.828125 35.546875 
z
M 62.109375 55.46875 
L 62.109375 69.53125 
L 48.828125 69.53125 
L 48.828125 55.46875 
z
" id="SimHei-29702"/>
      <path d="M 54.6875 25 
Q 59.765625 26.953125 66.40625 31.25 
Q 73.046875 35.546875 77.734375 40.234375 
Q 81.640625 35.546875 84.375 32.8125 
Q 78.90625 30.46875 71.09375 26.171875 
Q 63.28125 21.875 54.6875 17.96875 
L 54.6875 4.6875 
Q 54.6875 -1.5625 59.375 -1.5625 
L 75.390625 -1.5625 
Q 80.078125 -1.5625 82.03125 2.140625 
Q 83.984375 5.859375 83.984375 8.984375 
Q 88.671875 5.46875 92.578125 4.296875 
Q 89.84375 -3.515625 86.71875 -5.859375 
Q 83.59375 -8.203125 79.6875 -8.203125 
L 55.46875 -8.203125 
Q 47.265625 -7.421875 47.265625 0 
L 47.265625 33.984375 
Q 47.265625 39.453125 46.875 44.53125 
L 55.078125 44.53125 
Q 54.6875 37.5 54.6875 34.375 
z
M 65.234375 75.78125 
Q 68.75 67.96875 77.34375 57.609375 
Q 85.9375 47.265625 96.484375 42.1875 
Q 93.359375 40.234375 90.625 35.546875 
Q 79.6875 42.96875 72.453125 52.734375 
Q 65.234375 62.5 61.71875 69.140625 
Q 58.203125 61.71875 52.921875 53.515625 
Q 47.65625 45.3125 36.328125 34.375 
Q 33.984375 37.109375 30.46875 40.234375 
Q 36.71875 44.140625 41.40625 49.609375 
Q 46.09375 55.078125 50 61.90625 
Q 53.90625 68.75 55.859375 73.828125 
Q 57.8125 78.90625 58.59375 82.03125 
Q 62.109375 80.46875 66.796875 78.90625 
L 65.234375 75.78125 
z
M 25 49.21875 
Q 24.609375 42.96875 24.609375 35.546875 
L 24.609375 8.59375 
Q 30.46875 12.890625 37.5 20.3125 
Q 39.0625 16.796875 41.40625 12.5 
Q 35.15625 7.421875 29.6875 2.921875 
Q 24.21875 -1.5625 19.53125 -5.859375 
Q 17.96875 -3.515625 14.0625 0.78125 
Q 17.1875 3.90625 17.1875 7.03125 
L 17.1875 42.1875 
L 12.5 42.1875 
Q 8.59375 42.1875 4.296875 41.796875 
L 4.296875 49.609375 
Q 8.59375 49.21875 12.5 49.21875 
z
M 15.234375 78.125 
Q 24.21875 70.703125 33.203125 62.890625 
Q 30.46875 60.546875 27.34375 57.03125 
Q 20.703125 64.84375 10.15625 72.65625 
Q 12.890625 75 15.234375 78.125 
z
" id="SimHei-35770"/>
      <path d="M 91.015625 7.8125 
Q 91.015625 -3.125 91.40625 -8.59375 
L 82.421875 -8.59375 
L 82.421875 -0.78125 
L 17.96875 -0.78125 
L 17.96875 -8.59375 
L 8.984375 -8.59375 
Q 9.375 1.953125 9.375 8.59375 
L 9.375 43.359375 
Q 9.375 53.515625 8.984375 60.9375 
L 33.59375 60.9375 
L 33.59375 69.53125 
Q 33.203125 75.78125 33.203125 80.46875 
L 42.1875 80.46875 
Q 41.40625 75.390625 41.40625 69.921875 
L 41.40625 60.9375 
L 57.8125 60.9375 
L 57.8125 70.703125 
Q 57.8125 75.78125 57.421875 80.859375 
L 66.40625 80.859375 
Q 66.015625 76.171875 66.015625 71.09375 
L 66.015625 60.9375 
L 91.40625 60.9375 
Q 91.015625 55.078125 91.015625 42.96875 
z
M 57.8125 5.078125 
L 57.8125 29.296875 
L 41.40625 29.296875 
L 41.40625 5.078125 
z
M 82.421875 5.078125 
L 82.421875 29.296875 
L 66.015625 29.296875 
L 66.015625 5.078125 
z
M 33.59375 5.078125 
L 33.59375 29.296875 
L 17.96875 29.296875 
L 17.96875 5.078125 
z
M 57.8125 35.15625 
L 57.8125 55.078125 
L 41.40625 55.078125 
L 41.40625 35.15625 
z
M 82.421875 35.15625 
L 82.421875 55.078125 
L 66.015625 55.078125 
L 66.015625 35.15625 
z
M 33.59375 35.15625 
L 33.59375 55.078125 
L 17.96875 55.078125 
L 17.96875 35.15625 
z
" id="SimHei-26354"/>
      <path d="M 53.90625 67.1875 
Q 53.90625 73.046875 52.734375 80.078125 
Q 57.8125 79.6875 63.28125 78.90625 
Q 62.109375 76.5625 61.71875 71.28125 
Q 61.328125 66.015625 61.71875 56.25 
L 75 58.59375 
Q 81.640625 60.15625 88.28125 62.109375 
L 89.84375 54.6875 
Q 83.203125 53.90625 76.171875 52.734375 
L 62.109375 50 
Q 62.109375 43.75 62.890625 39.0625 
L 78.125 41.796875 
Q 85.9375 43.359375 92.96875 45.703125 
L 94.140625 38.28125 
Q 87.109375 37.109375 79.296875 35.546875 
L 64.0625 32.8125 
Q 64.84375 25 67.96875 18.359375 
Q 71.484375 21.09375 74.796875 24.609375 
Q 78.125 28.125 80.859375 32.421875 
Q 86.71875 27.734375 89.84375 26.171875 
Q 84.765625 23.828125 81.828125 20.890625 
Q 78.90625 17.96875 72.265625 11.71875 
Q 76.953125 3.90625 80.65625 1.75 
Q 84.375 -0.390625 85.9375 1.5625 
Q 87.5 3.515625 88.671875 9.765625 
Q 92.1875 7.03125 96.875 5.46875 
Q 90.234375 -11.71875 82.421875 -8.390625 
Q 74.609375 -5.078125 66.015625 7.03125 
Q 60.546875 2.734375 55.265625 -0.96875 
Q 50 -4.6875 42.1875 -8.59375 
Q 40.234375 -4.6875 36.328125 -1.5625 
Q 44.140625 1.171875 49.609375 4.296875 
Q 55.078125 7.421875 62.109375 13.28125 
Q 58.59375 21.09375 57.03125 31.640625 
Q 45.3125 29.6875 40.625 28.125 
L 39.453125 35.546875 
Q 44.140625 35.546875 55.46875 37.890625 
Q 54.6875 44.140625 54.6875 48.4375 
Q 44.140625 46.09375 40.234375 44.921875 
L 38.671875 52.34375 
Q 42.578125 52.34375 53.90625 54.6875 
z
M 30.46875 76.171875 
Q 26.5625 72.65625 22.84375 66.203125 
Q 19.140625 59.765625 12.890625 50.390625 
Q 22.265625 50.78125 25.78125 50.78125 
Q 29.296875 56.640625 32.03125 63.671875 
Q 35.9375 60.9375 40.625 59.375 
Q 36.71875 55.46875 32.609375 48.828125 
Q 28.515625 42.1875 18.359375 26.171875 
Q 28.90625 26.953125 37.109375 27.734375 
Q 35.9375 23.828125 35.9375 21.09375 
Q 33.203125 21.09375 23.828125 20.109375 
Q 14.453125 19.140625 8.59375 17.578125 
Q 8.203125 21.484375 6.25 25.78125 
Q 10.9375 26.953125 14.84375 32.03125 
Q 18.75 37.109375 23.046875 44.921875 
Q 10.15625 44.140625 6.640625 41.796875 
Q 5.46875 46.09375 3.125 50.390625 
Q 8.203125 53.90625 12.890625 61.90625 
Q 17.578125 69.921875 21.484375 80.46875 
Q 25.390625 77.734375 30.46875 76.171875 
z
M 40.234375 13.671875 
Q 39.84375 9.375 40.234375 7.03125 
Q 30.46875 5.078125 22.65625 3.125 
Q 14.84375 1.171875 8.203125 -1.171875 
Q 7.03125 3.125 3.90625 7.421875 
Q 14.84375 8.59375 20.703125 9.5625 
Q 26.5625 10.546875 40.234375 13.671875 
z
M 75.78125 62.890625 
Q 73.046875 67.1875 68.359375 73.046875 
L 74.609375 76.171875 
Q 76.171875 74.21875 82.421875 66.796875 
Q 78.515625 65.234375 75.78125 62.890625 
z
" id="SimHei-32447"/>
     </defs>
     <use xlink:href="#SimHei-89"/>
     <use x="50" xlink:href="#SimHei-19982"/>
     <use x="150" xlink:href="#SimHei-88"/>
     <use x="200" xlink:href="#SimHei-20851"/>
     <use x="300" xlink:href="#SimHei-31995"/>
     <use x="400" xlink:href="#SimHei-23454"/>
     <use x="500" xlink:href="#SimHei-39564"/>
     <use x="600" xlink:href="#SimHei-32467"/>
     <use x="700" xlink:href="#SimHei-26524"/>
     <use x="800" xlink:href="#SimHei-21450"/>
     <use x="900" xlink:href="#SimHei-29702"/>
     <use x="1000" xlink:href="#SimHei-35770"/>
     <use x="1100" xlink:href="#SimHei-26354"/>
     <use x="1200" xlink:href="#SimHei-32447"/>
    </g>
   </g>
   <g id="legend_1">
    <g id="patch_7">
     <path d="M 335.72 78.104813 
L 407.72 78.104813 
Q 409.72 78.104813 409.72 76.104813 
L 409.72 48.472 
Q 409.72 46.472 407.72 46.472 
L 335.72 46.472 
Q 333.72 46.472 333.72 48.472 
L 333.72 76.104813 
Q 333.72 78.104813 335.72 78.104813 
z
" style="fill:#ffffff;opacity:0.8;stroke:#cccccc;stroke-linejoin:miter;"/>
    </g>
    <g id="line2d_21">
     <path d="M 337.72 55.097 
L 357.72 55.097 
" style="fill:none;stroke:#e60012;stroke-linecap:square;"/>
    </g>
    <g id="line2d_22"/>
    <g id="text_18">
     <!-- 理论曲线 -->
     <g transform="translate(365.72 58.597)scale(0.1 -0.1)">
      <use xlink:href="#SimHei-29702"/>
      <use x="100" xlink:href="#SimHei-35770"/>
      <use x="200" xlink:href="#SimHei-26354"/>
      <use x="300" xlink:href="#SimHei-32447"/>
     </g>
    </g>
    <g id="LineCollection_3">
     <path d="M 342.72 69.354813 
L 352.72 69.354813 
" style="fill:none;stroke:#4573c4;"/>
    </g>
    <g id="LineCollection_4">
     <path d="M 347.72 74.354813 
L 347.72 64.354813 
" style="fill:none;stroke:#4573c4;"/>
    </g>
    <g id="line2d_23">
     <g>
      <use style="fill:#4573c4;stroke:#4573c4;" x="342.72" xlink:href="#mefd74a6476" y="69.354813"/>
     </g>
    </g>
    <g id="line2d_24">
     <g>
      <use style="fill:#4573c4;stroke:#4573c4;" x="352.72" xlink:href="#mefd74a6476" y="69.354813"/>
     </g>
    </g>
    <g id="line2d_25">
     <g>
      <use style="fill:#4573c4;stroke:#4573c4;" x="347.72" xlink:href="#m3c548dade5" y="74.354813"/>
     </g>
    </g>
    <g id="line2d_26">
     <g>
      <use style="fill:#4573c4;stroke:#4573c4;" x="347.72" xlink:href="#m3c548dade5" y="64.354813"/>
     </g>
    </g>
    <g id="line2d_27"/>
    <g id="line2d_28">
     <g>
      <use style="fill:#4573c4;stroke:#4573c4;" x="347.72" xlink:href="#mda5dd37610" y="69.354813"/>
     </g>
    </g>
    <g id="text_19">
     <!-- 实验结果 -->
     <g transform="translate(365.72 72.854813)scale(0.1 -0.1)">
      <use xlink:href="#SimHei-23454"/>
      <use x="100" xlink:href="#SimHei-39564"/>
      <use x="200" xlink:href="#SimHei-32467"/>
      <use x="300" xlink:href="#SimHei-26524"/>
     </g>
    </g>
   </g>
  </g>
 </g>
 <defs>
  <clipPath id="pee69c47345">
   <rect height="266.112" width="357.12" x="57.6" y="41.472"/>
  </clipPath>
 </defs>
</svg>
