<?xml version="1.0" encoding="utf-8" standalone="no"?>
<!DOCTYPE svg PUBLIC "-//W3C//DTD SVG 1.1//EN"
  "http://www.w3.org/Graphics/SVG/1.1/DTD/svg11.dtd">
<!-- Created with matplotlib (https://matplotlib.org/) -->
<svg height="345.6pt" version="1.1" viewBox="0 0 460.8 345.6" width="460.8pt" xmlns="http://www.w3.org/2000/svg" xmlns:xlink="http://www.w3.org/1999/xlink">
 <metadata>
  <rdf:RDF xmlns:cc="http://creativecommons.org/ns#" xmlns:dc="http://purl.org/dc/elements/1.1/" xmlns:rdf="http://www.w3.org/1999/02/22-rdf-syntax-ns#">
   <cc:Work>
    <dc:type rdf:resource="http://purl.org/dc/dcmitype/StillImage"/>
    <dc:date>2020-11-11T15:08:58.835759</dc:date>
    <dc:format>image/svg+xml</dc:format>
    <dc:creator>
     <cc:Agent>
      <dc:title>Matplotlib v3.3.2, https://matplotlib.org/</dc:title>
     </cc:Agent>
    </dc:creator>
   </cc:Work>
  </rdf:RDF>
 </metadata>
 <defs>
  <style type="text/css">*{stroke-linecap:butt;stroke-linejoin:round;}</style>
 </defs>
 <g id="figure_1">
  <g id="patch_1">
   <path d="M 0 345.6 
L 460.8 345.6 
L 460.8 0 
L 0 0 
z
" style="fill:#ffffff;"/>
  </g>
  <g id="axes_1">
   <g id="patch_2">
    <path d="M 57.6 307.584 
L 414.72 307.584 
L 414.72 41.472 
L 57.6 41.472 
z
" style="fill:#ffffff;"/>
   </g>
   <g id="matplotlib.axis_1">
    <g id="xtick_1">
     <g id="line2d_1">
      <defs>
       <path d="M 0 0 
L 0 3.5 
" id="m49cd99849a" style="stroke:#000000;stroke-width:0.8;"/>
      </defs>
      <g>
       <use style="stroke:#000000;stroke-width:0.8;" x="57.6" xlink:href="#m49cd99849a" y="307.584"/>
      </g>
     </g>
     <g id="text_1">
      <!-- 30 -->
      <g transform="translate(51.2375 322.182437)scale(0.1 -0.1)">
       <defs>
        <path d="M 40.578125 39.3125 
Q 47.65625 37.796875 51.625 33 
Q 55.609375 28.21875 55.609375 21.1875 
Q 55.609375 10.40625 48.1875 4.484375 
Q 40.765625 -1.421875 27.09375 -1.421875 
Q 22.515625 -1.421875 17.65625 -0.515625 
Q 12.796875 0.390625 7.625 2.203125 
L 7.625 11.71875 
Q 11.71875 9.328125 16.59375 8.109375 
Q 21.484375 6.890625 26.8125 6.890625 
Q 36.078125 6.890625 40.9375 10.546875 
Q 45.796875 14.203125 45.796875 21.1875 
Q 45.796875 27.640625 41.28125 31.265625 
Q 36.765625 34.90625 28.71875 34.90625 
L 20.21875 34.90625 
L 20.21875 43.015625 
L 29.109375 43.015625 
Q 36.375 43.015625 40.234375 45.921875 
Q 44.09375 48.828125 44.09375 54.296875 
Q 44.09375 59.90625 40.109375 62.90625 
Q 36.140625 65.921875 28.71875 65.921875 
Q 24.65625 65.921875 20.015625 65.03125 
Q 15.375 64.15625 9.8125 62.3125 
L 9.8125 71.09375 
Q 15.4375 72.65625 20.34375 73.4375 
Q 25.25 74.21875 29.59375 74.21875 
Q 40.828125 74.21875 47.359375 69.109375 
Q 53.90625 64.015625 53.90625 55.328125 
Q 53.90625 49.265625 50.4375 45.09375 
Q 46.96875 40.921875 40.578125 39.3125 
z
" id="DejaVuSans-51"/>
        <path d="M 31.78125 66.40625 
Q 24.171875 66.40625 20.328125 58.90625 
Q 16.5 51.421875 16.5 36.375 
Q 16.5 21.390625 20.328125 13.890625 
Q 24.171875 6.390625 31.78125 6.390625 
Q 39.453125 6.390625 43.28125 13.890625 
Q 47.125 21.390625 47.125 36.375 
Q 47.125 51.421875 43.28125 58.90625 
Q 39.453125 66.40625 31.78125 66.40625 
z
M 31.78125 74.21875 
Q 44.046875 74.21875 50.515625 64.515625 
Q 56.984375 54.828125 56.984375 36.375 
Q 56.984375 17.96875 50.515625 8.265625 
Q 44.046875 -1.421875 31.78125 -1.421875 
Q 19.53125 -1.421875 13.0625 8.265625 
Q 6.59375 17.96875 6.59375 36.375 
Q 6.59375 54.828125 13.0625 64.515625 
Q 19.53125 74.21875 31.78125 74.21875 
z
" id="DejaVuSans-48"/>
       </defs>
       <use xlink:href="#DejaVuSans-51"/>
       <use x="63.623047" xlink:href="#DejaVuSans-48"/>
      </g>
     </g>
    </g>
    <g id="xtick_2">
     <g id="line2d_2">
      <g>
       <use style="stroke:#000000;stroke-width:0.8;" x="102.24" xlink:href="#m49cd99849a" y="307.584"/>
      </g>
     </g>
     <g id="text_2">
      <!-- 35 -->
      <g transform="translate(95.8775 322.182437)scale(0.1 -0.1)">
       <defs>
        <path d="M 10.796875 72.90625 
L 49.515625 72.90625 
L 49.515625 64.59375 
L 19.828125 64.59375 
L 19.828125 46.734375 
Q 21.96875 47.46875 24.109375 47.828125 
Q 26.265625 48.1875 28.421875 48.1875 
Q 40.625 48.1875 47.75 41.5 
Q 54.890625 34.8125 54.890625 23.390625 
Q 54.890625 11.625 47.5625 5.09375 
Q 40.234375 -1.421875 26.90625 -1.421875 
Q 22.3125 -1.421875 17.546875 -0.640625 
Q 12.796875 0.140625 7.71875 1.703125 
L 7.71875 11.625 
Q 12.109375 9.234375 16.796875 8.0625 
Q 21.484375 6.890625 26.703125 6.890625 
Q 35.15625 6.890625 40.078125 11.328125 
Q 45.015625 15.765625 45.015625 23.390625 
Q 45.015625 31 40.078125 35.4375 
Q 35.15625 39.890625 26.703125 39.890625 
Q 22.75 39.890625 18.8125 39.015625 
Q 14.890625 38.140625 10.796875 36.28125 
z
" id="DejaVuSans-53"/>
       </defs>
       <use xlink:href="#DejaVuSans-51"/>
       <use x="63.623047" xlink:href="#DejaVuSans-53"/>
      </g>
     </g>
    </g>
    <g id="xtick_3">
     <g id="line2d_3">
      <g>
       <use style="stroke:#000000;stroke-width:0.8;" x="146.88" xlink:href="#m49cd99849a" y="307.584"/>
      </g>
     </g>
     <g id="text_3">
      <!-- 40 -->
      <g transform="translate(140.5175 322.182437)scale(0.1 -0.1)">
       <defs>
        <path d="M 37.796875 64.3125 
L 12.890625 25.390625 
L 37.796875 25.390625 
z
M 35.203125 72.90625 
L 47.609375 72.90625 
L 47.609375 25.390625 
L 58.015625 25.390625 
L 58.015625 17.1875 
L 47.609375 17.1875 
L 47.609375 0 
L 37.796875 0 
L 37.796875 17.1875 
L 4.890625 17.1875 
L 4.890625 26.703125 
z
" id="DejaVuSans-52"/>
       </defs>
       <use xlink:href="#DejaVuSans-52"/>
       <use x="63.623047" xlink:href="#DejaVuSans-48"/>
      </g>
     </g>
    </g>
    <g id="xtick_4">
     <g id="line2d_4">
      <g>
       <use style="stroke:#000000;stroke-width:0.8;" x="191.52" xlink:href="#m49cd99849a" y="307.584"/>
      </g>
     </g>
     <g id="text_4">
      <!-- 45 -->
      <g transform="translate(185.1575 322.182437)scale(0.1 -0.1)">
       <use xlink:href="#DejaVuSans-52"/>
       <use x="63.623047" xlink:href="#DejaVuSans-53"/>
      </g>
     </g>
    </g>
    <g id="xtick_5">
     <g id="line2d_5">
      <g>
       <use style="stroke:#000000;stroke-width:0.8;" x="236.16" xlink:href="#m49cd99849a" y="307.584"/>
      </g>
     </g>
     <g id="text_5">
      <!-- 50 -->
      <g transform="translate(229.7975 322.182437)scale(0.1 -0.1)">
       <use xlink:href="#DejaVuSans-53"/>
       <use x="63.623047" xlink:href="#DejaVuSans-48"/>
      </g>
     </g>
    </g>
    <g id="xtick_6">
     <g id="line2d_6">
      <g>
       <use style="stroke:#000000;stroke-width:0.8;" x="280.8" xlink:href="#m49cd99849a" y="307.584"/>
      </g>
     </g>
     <g id="text_6">
      <!-- 55 -->
      <g transform="translate(274.4375 322.182437)scale(0.1 -0.1)">
       <use xlink:href="#DejaVuSans-53"/>
       <use x="63.623047" xlink:href="#DejaVuSans-53"/>
      </g>
     </g>
    </g>
    <g id="xtick_7">
     <g id="line2d_7">
      <g>
       <use style="stroke:#000000;stroke-width:0.8;" x="325.44" xlink:href="#m49cd99849a" y="307.584"/>
      </g>
     </g>
     <g id="text_7">
      <!-- 60 -->
      <g transform="translate(319.0775 322.182437)scale(0.1 -0.1)">
       <defs>
        <path d="M 33.015625 40.375 
Q 26.375 40.375 22.484375 35.828125 
Q 18.609375 31.296875 18.609375 23.390625 
Q 18.609375 15.53125 22.484375 10.953125 
Q 26.375 6.390625 33.015625 6.390625 
Q 39.65625 6.390625 43.53125 10.953125 
Q 47.40625 15.53125 47.40625 23.390625 
Q 47.40625 31.296875 43.53125 35.828125 
Q 39.65625 40.375 33.015625 40.375 
z
M 52.59375 71.296875 
L 52.59375 62.3125 
Q 48.875 64.0625 45.09375 64.984375 
Q 41.3125 65.921875 37.59375 65.921875 
Q 27.828125 65.921875 22.671875 59.328125 
Q 17.53125 52.734375 16.796875 39.40625 
Q 19.671875 43.65625 24.015625 45.921875 
Q 28.375 48.1875 33.59375 48.1875 
Q 44.578125 48.1875 50.953125 41.515625 
Q 57.328125 34.859375 57.328125 23.390625 
Q 57.328125 12.15625 50.6875 5.359375 
Q 44.046875 -1.421875 33.015625 -1.421875 
Q 20.359375 -1.421875 13.671875 8.265625 
Q 6.984375 17.96875 6.984375 36.375 
Q 6.984375 53.65625 15.1875 63.9375 
Q 23.390625 74.21875 37.203125 74.21875 
Q 40.921875 74.21875 44.703125 73.484375 
Q 48.484375 72.75 52.59375 71.296875 
z
" id="DejaVuSans-54"/>
       </defs>
       <use xlink:href="#DejaVuSans-54"/>
       <use x="63.623047" xlink:href="#DejaVuSans-48"/>
      </g>
     </g>
    </g>
    <g id="xtick_8">
     <g id="line2d_8">
      <g>
       <use style="stroke:#000000;stroke-width:0.8;" x="370.08" xlink:href="#m49cd99849a" y="307.584"/>
      </g>
     </g>
     <g id="text_8">
      <!-- 65 -->
      <g transform="translate(363.7175 322.182437)scale(0.1 -0.1)">
       <use xlink:href="#DejaVuSans-54"/>
       <use x="63.623047" xlink:href="#DejaVuSans-53"/>
      </g>
     </g>
    </g>
    <g id="xtick_9">
     <g id="line2d_9">
      <g>
       <use style="stroke:#000000;stroke-width:0.8;" x="414.72" xlink:href="#m49cd99849a" y="307.584"/>
      </g>
     </g>
     <g id="text_9">
      <!-- 70 -->
      <g transform="translate(408.3575 322.182437)scale(0.1 -0.1)">
       <defs>
        <path d="M 8.203125 72.90625 
L 55.078125 72.90625 
L 55.078125 68.703125 
L 28.609375 0 
L 18.3125 0 
L 43.21875 64.59375 
L 8.203125 64.59375 
z
" id="DejaVuSans-55"/>
       </defs>
       <use xlink:href="#DejaVuSans-55"/>
       <use x="63.623047" xlink:href="#DejaVuSans-48"/>
      </g>
     </g>
    </g>
    <g id="text_10">
     <!-- $T(^\circ C)$ -->
     <g transform="translate(221.96 335.860562)scale(0.1 -0.1)">
      <defs>
       <path d="M 5.90625 72.90625 
L 67.578125 72.90625 
L 66.015625 64.59375 
L 39.984375 64.59375 
L 27.484375 0 
L 17.578125 0 
L 30.078125 64.59375 
L 4.296875 64.59375 
z
" id="DejaVuSans-Oblique-84"/>
       <path d="M 31 75.875 
Q 24.46875 64.65625 21.28125 53.65625 
Q 18.109375 42.671875 18.109375 31.390625 
Q 18.109375 20.125 21.3125 9.0625 
Q 24.515625 -2 31 -13.1875 
L 23.1875 -13.1875 
Q 15.875 -1.703125 12.234375 9.375 
Q 8.59375 20.453125 8.59375 31.390625 
Q 8.59375 42.28125 12.203125 53.3125 
Q 15.828125 64.359375 23.1875 75.875 
z
" id="DejaVuSans-40"/>
       <path d="M 31.296875 40.671875 
Q 27.390625 40.671875 24.703125 37.953125 
Q 22.015625 35.25 22.015625 31.34375 
Q 22.015625 27.484375 24.703125 24.828125 
Q 27.390625 22.171875 31.296875 22.171875 
Q 35.203125 22.171875 37.890625 24.828125 
Q 40.578125 27.484375 40.578125 31.34375 
Q 40.578125 35.203125 37.859375 37.9375 
Q 35.15625 40.671875 31.296875 40.671875 
z
M 31.296875 46.96875 
Q 34.421875 46.96875 37.296875 45.765625 
Q 40.1875 44.578125 42.28125 42.328125 
Q 44.53125 40.140625 45.65625 37.34375 
Q 46.78125 34.5625 46.78125 31.34375 
Q 46.78125 24.90625 42.265625 20.4375 
Q 37.75 15.96875 31.203125 15.96875 
Q 24.609375 15.96875 20.21875 20.359375 
Q 15.828125 24.75 15.828125 31.34375 
Q 15.828125 37.890625 20.3125 42.421875 
Q 24.8125 46.96875 31.296875 46.96875 
z
" id="DejaVuSans-8728"/>
       <path d="M 69.484375 67.28125 
L 67.484375 56.890625 
Q 62.796875 61.625 57.546875 63.921875 
Q 52.296875 66.21875 46.1875 66.21875 
Q 37.84375 66.21875 31.515625 62.203125 
Q 25.203125 58.203125 20.609375 50 
Q 17.671875 44.734375 16.125 38.84375 
Q 14.59375 32.953125 14.59375 27 
Q 14.59375 17.046875 19.75 11.8125 
Q 24.90625 6.59375 34.71875 6.59375 
Q 41.5 6.59375 47.75 8.765625 
Q 54 10.9375 59.90625 15.28125 
L 57.625 3.609375 
Q 51.8125 1.125 45.875 -0.140625 
Q 39.9375 -1.421875 33.984375 -1.421875 
Q 19.96875 -1.421875 12.078125 6.1875 
Q 4.203125 13.8125 4.203125 27.390625 
Q 4.203125 36.078125 7.203125 44.46875 
Q 10.203125 52.875 15.828125 59.8125 
Q 21.78125 67.1875 29.421875 70.703125 
Q 37.0625 74.21875 47.21875 74.21875 
Q 53.46875 74.21875 59.0625 72.484375 
Q 64.65625 70.75 69.484375 67.28125 
z
" id="DejaVuSans-Oblique-67"/>
       <path d="M 8.015625 75.875 
L 15.828125 75.875 
Q 23.140625 64.359375 26.78125 53.3125 
Q 30.421875 42.28125 30.421875 31.390625 
Q 30.421875 20.453125 26.78125 9.375 
Q 23.140625 -1.703125 15.828125 -13.1875 
L 8.015625 -13.1875 
Q 14.5 -2 17.703125 9.0625 
Q 20.90625 20.125 20.90625 31.390625 
Q 20.90625 42.671875 17.703125 53.65625 
Q 14.5 64.65625 8.015625 75.875 
z
" id="DejaVuSans-41"/>
      </defs>
      <use transform="translate(0 0.125)" xlink:href="#DejaVuSans-Oblique-84"/>
      <use transform="translate(61.083984 0.125)" xlink:href="#DejaVuSans-40"/>
      <use transform="translate(114.692383 38.40625)scale(0.7)" xlink:href="#DejaVuSans-8728"/>
      <use transform="translate(174.882812 0.125)" xlink:href="#DejaVuSans-Oblique-67"/>
      <use transform="translate(244.707031 0.125)" xlink:href="#DejaVuSans-41"/>
     </g>
    </g>
   </g>
   <g id="matplotlib.axis_2">
    <g id="ytick_1">
     <g id="line2d_10">
      <defs>
       <path d="M 0 0 
L -3.5 0 
" id="m6b63a0d963" style="stroke:#000000;stroke-width:0.8;"/>
      </defs>
      <g>
       <use style="stroke:#000000;stroke-width:0.8;" x="57.6" xlink:href="#m6b63a0d963" y="307.584"/>
      </g>
     </g>
     <g id="text_11">
      <!-- 0.52 -->
      <g transform="translate(28.334375 311.383219)scale(0.1 -0.1)">
       <defs>
        <path d="M 10.6875 12.40625 
L 21 12.40625 
L 21 0 
L 10.6875 0 
z
" id="DejaVuSans-46"/>
        <path d="M 19.1875 8.296875 
L 53.609375 8.296875 
L 53.609375 0 
L 7.328125 0 
L 7.328125 8.296875 
Q 12.9375 14.109375 22.625 23.890625 
Q 32.328125 33.6875 34.8125 36.53125 
Q 39.546875 41.84375 41.421875 45.53125 
Q 43.3125 49.21875 43.3125 52.78125 
Q 43.3125 58.59375 39.234375 62.25 
Q 35.15625 65.921875 28.609375 65.921875 
Q 23.96875 65.921875 18.8125 64.3125 
Q 13.671875 62.703125 7.8125 59.421875 
L 7.8125 69.390625 
Q 13.765625 71.78125 18.9375 73 
Q 24.125 74.21875 28.421875 74.21875 
Q 39.75 74.21875 46.484375 68.546875 
Q 53.21875 62.890625 53.21875 53.421875 
Q 53.21875 48.921875 51.53125 44.890625 
Q 49.859375 40.875 45.40625 35.40625 
Q 44.1875 33.984375 37.640625 27.21875 
Q 31.109375 20.453125 19.1875 8.296875 
z
" id="DejaVuSans-50"/>
       </defs>
       <use xlink:href="#DejaVuSans-48"/>
       <use x="63.623047" xlink:href="#DejaVuSans-46"/>
       <use x="95.410156" xlink:href="#DejaVuSans-53"/>
       <use x="159.033203" xlink:href="#DejaVuSans-50"/>
      </g>
     </g>
    </g>
    <g id="ytick_2">
     <g id="line2d_11">
      <g>
       <use style="stroke:#000000;stroke-width:0.8;" x="57.6" xlink:href="#m6b63a0d963" y="263.232"/>
      </g>
     </g>
     <g id="text_12">
      <!-- 0.54 -->
      <g transform="translate(28.334375 267.031219)scale(0.1 -0.1)">
       <use xlink:href="#DejaVuSans-48"/>
       <use x="63.623047" xlink:href="#DejaVuSans-46"/>
       <use x="95.410156" xlink:href="#DejaVuSans-53"/>
       <use x="159.033203" xlink:href="#DejaVuSans-52"/>
      </g>
     </g>
    </g>
    <g id="ytick_3">
     <g id="line2d_12">
      <g>
       <use style="stroke:#000000;stroke-width:0.8;" x="57.6" xlink:href="#m6b63a0d963" y="218.88"/>
      </g>
     </g>
     <g id="text_13">
      <!-- 0.56 -->
      <g transform="translate(28.334375 222.679219)scale(0.1 -0.1)">
       <use xlink:href="#DejaVuSans-48"/>
       <use x="63.623047" xlink:href="#DejaVuSans-46"/>
       <use x="95.410156" xlink:href="#DejaVuSans-53"/>
       <use x="159.033203" xlink:href="#DejaVuSans-54"/>
      </g>
     </g>
    </g>
    <g id="ytick_4">
     <g id="line2d_13">
      <g>
       <use style="stroke:#000000;stroke-width:0.8;" x="57.6" xlink:href="#m6b63a0d963" y="174.528"/>
      </g>
     </g>
     <g id="text_14">
      <!-- 0.58 -->
      <g transform="translate(28.334375 178.327219)scale(0.1 -0.1)">
       <defs>
        <path d="M 31.78125 34.625 
Q 24.75 34.625 20.71875 30.859375 
Q 16.703125 27.09375 16.703125 20.515625 
Q 16.703125 13.921875 20.71875 10.15625 
Q 24.75 6.390625 31.78125 6.390625 
Q 38.8125 6.390625 42.859375 10.171875 
Q 46.921875 13.96875 46.921875 20.515625 
Q 46.921875 27.09375 42.890625 30.859375 
Q 38.875 34.625 31.78125 34.625 
z
M 21.921875 38.8125 
Q 15.578125 40.375 12.03125 44.71875 
Q 8.5 49.078125 8.5 55.328125 
Q 8.5 64.0625 14.71875 69.140625 
Q 20.953125 74.21875 31.78125 74.21875 
Q 42.671875 74.21875 48.875 69.140625 
Q 55.078125 64.0625 55.078125 55.328125 
Q 55.078125 49.078125 51.53125 44.71875 
Q 48 40.375 41.703125 38.8125 
Q 48.828125 37.15625 52.796875 32.3125 
Q 56.78125 27.484375 56.78125 20.515625 
Q 56.78125 9.90625 50.3125 4.234375 
Q 43.84375 -1.421875 31.78125 -1.421875 
Q 19.734375 -1.421875 13.25 4.234375 
Q 6.78125 9.90625 6.78125 20.515625 
Q 6.78125 27.484375 10.78125 32.3125 
Q 14.796875 37.15625 21.921875 38.8125 
z
M 18.3125 54.390625 
Q 18.3125 48.734375 21.84375 45.5625 
Q 25.390625 42.390625 31.78125 42.390625 
Q 38.140625 42.390625 41.71875 45.5625 
Q 45.3125 48.734375 45.3125 54.390625 
Q 45.3125 60.0625 41.71875 63.234375 
Q 38.140625 66.40625 31.78125 66.40625 
Q 25.390625 66.40625 21.84375 63.234375 
Q 18.3125 60.0625 18.3125 54.390625 
z
" id="DejaVuSans-56"/>
       </defs>
       <use xlink:href="#DejaVuSans-48"/>
       <use x="63.623047" xlink:href="#DejaVuSans-46"/>
       <use x="95.410156" xlink:href="#DejaVuSans-53"/>
       <use x="159.033203" xlink:href="#DejaVuSans-56"/>
      </g>
     </g>
    </g>
    <g id="ytick_5">
     <g id="line2d_14">
      <g>
       <use style="stroke:#000000;stroke-width:0.8;" x="57.6" xlink:href="#m6b63a0d963" y="130.176"/>
      </g>
     </g>
     <g id="text_15">
      <!-- 0.60 -->
      <g transform="translate(28.334375 133.975219)scale(0.1 -0.1)">
       <use xlink:href="#DejaVuSans-48"/>
       <use x="63.623047" xlink:href="#DejaVuSans-46"/>
       <use x="95.410156" xlink:href="#DejaVuSans-54"/>
       <use x="159.033203" xlink:href="#DejaVuSans-48"/>
      </g>
     </g>
    </g>
    <g id="ytick_6">
     <g id="line2d_15">
      <g>
       <use style="stroke:#000000;stroke-width:0.8;" x="57.6" xlink:href="#m6b63a0d963" y="85.824"/>
      </g>
     </g>
     <g id="text_16">
      <!-- 0.62 -->
      <g transform="translate(28.334375 89.623219)scale(0.1 -0.1)">
       <use xlink:href="#DejaVuSans-48"/>
       <use x="63.623047" xlink:href="#DejaVuSans-46"/>
       <use x="95.410156" xlink:href="#DejaVuSans-54"/>
       <use x="159.033203" xlink:href="#DejaVuSans-50"/>
      </g>
     </g>
    </g>
    <g id="ytick_7">
     <g id="line2d_16">
      <g>
       <use style="stroke:#000000;stroke-width:0.8;" x="57.6" xlink:href="#m6b63a0d963" y="41.472"/>
      </g>
     </g>
     <g id="text_17">
      <!-- 0.64 -->
      <g transform="translate(28.334375 45.271219)scale(0.1 -0.1)">
       <use xlink:href="#DejaVuSans-48"/>
       <use x="63.623047" xlink:href="#DejaVuSans-46"/>
       <use x="95.410156" xlink:href="#DejaVuSans-54"/>
       <use x="159.033203" xlink:href="#DejaVuSans-52"/>
      </g>
     </g>
    </g>
    <g id="text_18">
     <!-- $U_F(V)$ -->
     <g transform="translate(22.254688 187.678)rotate(-90)scale(0.1 -0.1)">
      <defs>
       <path d="M 15.484375 72.90625 
L 25.390625 72.90625 
L 16.796875 28.609375 
Q 16.265625 25.640625 16.046875 23.703125 
Q 15.828125 21.78125 15.828125 20.3125 
Q 15.828125 13.578125 19.578125 10.078125 
Q 23.34375 6.59375 30.609375 6.59375 
Q 40.046875 6.59375 45.28125 11.765625 
Q 50.53125 16.9375 52.78125 28.609375 
L 61.375 72.90625 
L 71.296875 72.90625 
L 62.5 27.390625 
Q 59.625 12.640625 51.5625 5.609375 
Q 43.5 -1.421875 29.5 -1.421875 
Q 18.5625 -1.421875 12.1875 4.078125 
Q 5.8125 9.578125 5.8125 19 
Q 5.8125 20.703125 6.046875 22.828125 
Q 6.296875 24.953125 6.78125 27.390625 
z
" id="DejaVuSans-Oblique-85"/>
       <path d="M 16.890625 72.90625 
L 58.6875 72.90625 
L 57.078125 64.59375 
L 25.09375 64.59375 
L 20.90625 43.109375 
L 49.8125 43.109375 
L 48.1875 34.8125 
L 19.28125 34.8125 
L 12.5 0 
L 2.6875 0 
z
" id="DejaVuSans-Oblique-70"/>
       <path d="M 20.609375 0 
L 7.8125 72.90625 
L 17.484375 72.90625 
L 28.078125 10.203125 
L 63.484375 72.90625 
L 74.21875 72.90625 
L 32.078125 0 
z
" id="DejaVuSans-Oblique-86"/>
      </defs>
      <use transform="translate(0 0.125)" xlink:href="#DejaVuSans-Oblique-85"/>
      <use transform="translate(73.193359 -16.28125)scale(0.7)" xlink:href="#DejaVuSans-Oblique-70"/>
      <use transform="translate(116.191406 0.125)" xlink:href="#DejaVuSans-40"/>
      <use transform="translate(155.205078 0.125)" xlink:href="#DejaVuSans-Oblique-86"/>
      <use transform="translate(223.613281 0.125)" xlink:href="#DejaVuSans-41"/>
     </g>
    </g>
   </g>
   <g id="line2d_17">
    <path clip-path="url(#p75c6d32ae4)" d="M 57.6 110.479804 
L 66.756923 115.38723 
L 75.913846 120.294655 
L 85.070769 125.20208 
L 94.227692 130.109506 
L 103.384615 135.016931 
L 112.541538 139.924357 
L 121.698462 144.831782 
L 130.855385 149.739208 
L 140.012308 154.646633 
L 149.169231 159.554059 
L 158.326154 164.461484 
L 167.483077 169.36891 
L 176.64 174.276335 
L 185.796923 179.183761 
L 194.953846 184.091186 
L 204.110769 188.998611 
L 213.267692 193.906037 
L 222.424615 198.813462 
L 231.581538 203.720888 
L 240.738462 208.628313 
L 249.895385 213.535739 
L 259.052308 218.443164 
L 268.209231 223.35059 
L 277.366154 228.258015 
L 286.523077 233.165441 
L 295.68 238.072866 
L 304.836923 242.980292 
L 313.993846 247.887717 
L 323.150769 252.795142 
L 332.307692 257.702568 
L 341.464615 262.609993 
L 350.621538 267.517419 
L 359.778462 272.424844 
L 368.935385 277.33227 
L 378.092308 282.239695 
L 387.249231 287.147121 
L 396.406154 292.054546 
L 405.563077 296.961972 
L 414.72 301.869397 
" style="fill:none;stroke:#ed7d30;stroke-linecap:square;"/>
   </g>
   <g id="line2d_18">
    <defs>
     <path d="M 0 2 
C 0.530406 2 1.03916 1.789267 1.414214 1.414214 
C 1.789267 1.03916 2 0.530406 2 0 
C 2 -0.530406 1.789267 -1.03916 1.414214 -1.414214 
C 1.03916 -1.789267 0.530406 -2 0 -2 
C -0.530406 -2 -1.03916 -1.789267 -1.414214 -1.414214 
C -1.789267 -1.03916 -2 -0.530406 -2 0 
C -2 0.530406 -1.789267 1.03916 -1.414214 1.414214 
C -1.03916 1.789267 -0.530406 2 0 2 
z
" id="m66dd131dac" style="stroke:#70ad47;"/>
    </defs>
    <g clip-path="url(#p75c6d32ae4)">
     <use style="fill:#70ad47;stroke:#70ad47;" x="100.4544" xlink:href="#m66dd131dac" y="133.5024"/>
     <use style="fill:#70ad47;stroke:#70ad47;" x="145.9872" xlink:href="#m66dd131dac" y="158.56128"/>
     <use style="fill:#70ad47;stroke:#70ad47;" x="191.52" xlink:href="#m66dd131dac" y="182.2896"/>
     <use style="fill:#70ad47;stroke:#70ad47;" x="236.16" xlink:href="#m66dd131dac" y="206.01792"/>
     <use style="fill:#70ad47;stroke:#70ad47;" x="279.9072" xlink:href="#m66dd131dac" y="228.8592"/>
     <use style="fill:#70ad47;stroke:#70ad47;" x="324.5472" xlink:href="#m66dd131dac" y="251.47872"/>
     <use style="fill:#70ad47;stroke:#70ad47;" x="369.1872" xlink:href="#m66dd131dac" y="279.64224"/>
    </g>
   </g>
   <g id="line2d_19">
    <path clip-path="url(#p75c6d32ae4)" d="M 57.6 61.188057 
L 66.756923 65.865306 
L 75.913846 70.542554 
L 85.070769 75.219803 
L 94.227692 79.897051 
L 103.384615 84.5743 
L 112.541538 89.251548 
L 121.698462 93.928797 
L 130.855385 98.606046 
L 140.012308 103.283294 
L 149.169231 107.960543 
L 158.326154 112.637791 
L 167.483077 117.31504 
L 176.64 121.992289 
L 185.796923 126.669537 
L 194.953846 131.346786 
L 204.110769 136.024034 
L 213.267692 140.701283 
L 222.424615 145.378531 
L 231.581538 150.05578 
L 240.738462 154.733029 
L 249.895385 159.410277 
L 259.052308 164.087526 
L 268.209231 168.764774 
L 277.366154 173.442023 
L 286.523077 178.119272 
L 295.68 182.79652 
L 304.836923 187.473769 
L 313.993846 192.151017 
L 323.150769 196.828266 
L 332.307692 201.505514 
L 341.464615 206.182763 
L 350.621538 210.860012 
L 359.778462 215.53726 
L 368.935385 220.214509 
L 378.092308 224.891757 
L 387.249231 229.569006 
L 396.406154 234.246255 
L 405.563077 238.923503 
L 414.72 243.600752 
" style="fill:none;stroke:#e60012;stroke-linecap:square;"/>
   </g>
   <g id="line2d_20">
    <defs>
     <path d="M 0 2 
C 0.530406 2 1.03916 1.789267 1.414214 1.414214 
C 1.789267 1.03916 2 0.530406 2 0 
C 2 -0.530406 1.789267 -1.03916 1.414214 -1.414214 
C 1.03916 -1.789267 0.530406 -2 0 -2 
C -0.530406 -2 -1.03916 -1.789267 -1.414214 -1.414214 
C -1.789267 -1.03916 -2 -0.530406 -2 0 
C -2 0.530406 -1.789267 1.03916 -1.414214 1.414214 
C -1.03916 1.789267 -0.530406 2 0 2 
z
" id="m9de2e48756" style="stroke:#4573c4;"/>
    </defs>
    <g clip-path="url(#p75c6d32ae4)">
     <use style="fill:#4573c4;stroke:#4573c4;" x="100.4544" xlink:href="#m9de2e48756" y="82.71936"/>
     <use style="fill:#4573c4;stroke:#4573c4;" x="145.9872" xlink:href="#m9de2e48756" y="106.44768"/>
     <use style="fill:#4573c4;stroke:#4573c4;" x="191.52" xlink:href="#m9de2e48756" y="129.28896"/>
     <use style="fill:#4573c4;stroke:#4573c4;" x="236.16" xlink:href="#m9de2e48756" y="153.4608"/>
     <use style="fill:#4573c4;stroke:#4573c4;" x="279.9072" xlink:href="#m9de2e48756" y="174.528"/>
     <use style="fill:#4573c4;stroke:#4573c4;" x="324.5472" xlink:href="#m9de2e48756" y="197.59104"/>
     <use style="fill:#4573c4;stroke:#4573c4;" x="369.1872" xlink:href="#m9de2e48756" y="219.9888"/>
    </g>
   </g>
   <g id="patch_3">
    <path d="M 57.6 307.584 
L 57.6 41.472 
" style="fill:none;stroke:#000000;stroke-linecap:square;stroke-linejoin:miter;stroke-width:0.8;"/>
   </g>
   <g id="patch_4">
    <path d="M 414.72 307.584 
L 414.72 41.472 
" style="fill:none;stroke:#000000;stroke-linecap:square;stroke-linejoin:miter;stroke-width:0.8;"/>
   </g>
   <g id="patch_5">
    <path d="M 57.6 307.584 
L 414.72 307.584 
" style="fill:none;stroke:#000000;stroke-linecap:square;stroke-linejoin:miter;stroke-width:0.8;"/>
   </g>
   <g id="patch_6">
    <path d="M 57.6 41.472 
L 414.72 41.472 
" style="fill:none;stroke:#000000;stroke-linecap:square;stroke-linejoin:miter;stroke-width:0.8;"/>
   </g>
   <g id="text_19">
    <!-- $U_F$与$T$关系实验结果及线性拟合 -->
    <g transform="translate(167.26 35.472)scale(0.1 -0.1)">
     <defs>
      <path d="M 83.59375 1.5625 
Q 82.421875 -4.6875 76.953125 -6.640625 
Q 71.484375 -8.59375 60.9375 -9.375 
Q 60.546875 -5.859375 57.03125 -0.390625 
Q 68.359375 -0.78125 71.484375 0 
Q 74.609375 0.78125 75.578125 3.515625 
Q 76.5625 6.25 79.6875 36.71875 
L 17.578125 36.71875 
Q 22.65625 67.96875 23.046875 81.25 
Q 28.125 80.46875 32.421875 80.078125 
Q 30.859375 75.390625 29.6875 66.796875 
L 76.5625 66.796875 
Q 84.375 66.796875 90.625 67.1875 
L 90.625 59.765625 
Q 84.375 60.15625 77.34375 60.15625 
L 28.90625 60.15625 
L 26.5625 42.96875 
L 88.671875 42.96875 
Q 87.890625 38.28125 87.109375 32.03125 
z
M 57.421875 21.09375 
Q 64.453125 21.09375 70.3125 21.484375 
L 70.3125 13.671875 
Q 64.453125 14.0625 60.15625 14.0625 
L 22.65625 14.0625 
Q 15.625 14.0625 7.8125 13.671875 
L 7.8125 21.484375 
Q 15.625 21.09375 22.65625 21.09375 
z
" id="SimHei-19982"/>
      <path d="M 73.046875 75.78125 
Q 70.703125 73.046875 68.15625 68.359375 
Q 65.625 63.671875 63.671875 59.765625 
L 72.265625 59.765625 
Q 80.46875 59.765625 86.71875 60.15625 
L 86.71875 52.734375 
Q 81.640625 53.125 73.4375 53.125 
L 53.125 53.125 
L 53.125 33.59375 
L 77.734375 33.59375 
Q 85.546875 33.59375 91.796875 33.984375 
L 91.796875 26.5625 
Q 85.546875 26.953125 78.515625 26.953125 
L 54.6875 26.953125 
Q 66.40625 7.03125 93.75 1.171875 
Q 90.234375 -2.734375 87.5 -8.203125 
Q 62.890625 0 50.390625 20.3125 
Q 43.75 3.125 13.671875 -9.375 
Q 12.109375 -5.46875 7.8125 -2.34375 
Q 37.890625 5.859375 44.921875 26.953125 
L 24.21875 26.953125 
Q 15.234375 26.953125 9.375 26.5625 
L 9.375 33.59375 
Q 13.671875 33.203125 22.65625 33.203125 
L 45.703125 33.203125 
L 45.703125 53.125 
L 27.34375 53.125 
Q 19.921875 53.125 14.0625 52.734375 
L 14.0625 60.15625 
Q 19.921875 59.765625 27.734375 59.765625 
L 55.859375 59.765625 
Q 61.328125 72.265625 63.671875 80.46875 
Q 67.578125 78.125 73.046875 75.78125 
z
M 33.203125 80.078125 
Q 38.28125 73.828125 43.75 65.234375 
Q 39.0625 62.890625 36.328125 60.546875 
Q 31.640625 69.53125 26.953125 75.390625 
Q 30.46875 77.734375 33.203125 80.078125 
z
" id="SimHei-20851"/>
      <path d="M 82.8125 81.25 
Q 85.15625 77.34375 89.453125 73.046875 
Q 77.734375 72.65625 69.328125 71.671875 
Q 60.9375 70.703125 48.828125 69.53125 
Q 50.78125 67.578125 54.296875 66.015625 
Q 49.21875 62.890625 44.328125 58.78125 
Q 39.453125 54.6875 34.765625 51.171875 
L 54.296875 51.171875 
Q 64.0625 57.8125 70.703125 63.28125 
Q 74.609375 60.15625 80.078125 57.8125 
Q 74.609375 55.46875 69.53125 52.734375 
Q 64.453125 50 52.921875 42.765625 
Q 41.40625 35.546875 33.203125 30.859375 
Q 56.25 32.03125 76.171875 32.8125 
Q 74.21875 34.765625 66.015625 41.015625 
Q 69.921875 42.578125 72.65625 44.921875 
Q 77.34375 41.40625 83.390625 36.125 
Q 89.453125 30.859375 94.921875 25.78125 
Q 90.234375 23.046875 87.5 20.703125 
Q 84.375 24.609375 81.640625 26.953125 
Q 71.09375 26.5625 56.640625 25.78125 
L 56.640625 2.34375 
Q 56.640625 -5.078125 52.921875 -6.4375 
Q 49.21875 -7.8125 39.453125 -9.375 
Q 38.671875 -4.6875 35.9375 -0.390625 
Q 44.921875 -0.390625 47.0625 0.1875 
Q 49.21875 0.78125 49.21875 4.6875 
L 49.21875 25.78125 
Q 25.390625 25.390625 16.796875 23.828125 
Q 15.625 27.734375 14.0625 32.03125 
Q 22.65625 32.8125 29.296875 35.9375 
Q 35.9375 39.0625 45.3125 45.3125 
Q 36.328125 45.3125 31.828125 44.921875 
Q 27.34375 44.53125 21.875 43.75 
Q 20.703125 48.046875 19.53125 51.953125 
Q 26.171875 51.953125 32.8125 57.21875 
Q 39.453125 62.5 42.96875 68.75 
Q 21.09375 67.96875 14.453125 67.1875 
Q 13.28125 71.09375 11.71875 74.21875 
Q 33.59375 74.21875 50.78125 75.78125 
Q 67.96875 77.34375 82.8125 81.25 
z
M 72.265625 19.53125 
Q 76.953125 16.015625 83.203125 11.515625 
Q 89.453125 7.03125 93.75 2.734375 
Q 90.625 0 87.5 -3.515625 
Q 82.421875 1.953125 76.953125 6.25 
Q 71.484375 10.546875 66.796875 13.671875 
Q 70.3125 16.40625 72.265625 19.53125 
z
M 34.375 13.671875 
Q 29.6875 11.328125 24.015625 5.859375 
Q 18.359375 0.390625 12.5 -4.6875 
Q 8.984375 -1.171875 5.859375 0.390625 
Q 16.796875 7.03125 26.171875 19.140625 
Q 29.6875 16.40625 34.375 13.671875 
z
" id="SimHei-31995"/>
      <path d="M 64.453125 54.6875 
Q 63.28125 50 62.5 41.796875 
Q 61.71875 33.59375 60.15625 24.21875 
L 78.515625 24.21875 
Q 85.546875 24.21875 93.359375 24.609375 
L 93.359375 17.1875 
Q 85.15625 17.578125 78.125 17.578125 
L 58.203125 17.578125 
Q 54.6875 9.765625 47.65625 3.90625 
Q 40.625 -1.953125 31.25 -5.265625 
Q 21.875 -8.59375 14.453125 -10.546875 
Q 12.890625 -5.859375 7.8125 -3.125 
Q 19.140625 -1.953125 32.03125 3.3125 
Q 44.921875 8.59375 50 17.578125 
L 22.265625 17.578125 
Q 15.234375 17.578125 6.640625 17.1875 
L 6.640625 24.609375 
Q 15.625 24.21875 22.265625 24.21875 
L 52.734375 24.21875 
Q 53.90625 30.859375 54.484375 38.46875 
Q 55.078125 46.09375 54.6875 57.03125 
Q 59.375 55.46875 64.453125 54.6875 
z
M 50.78125 82.03125 
Q 53.90625 75.78125 56.25 68.359375 
L 90.234375 68.359375 
Q 89.84375 64.0625 89.84375 59.765625 
Q 89.84375 55.859375 90.234375 51.171875 
L 81.25 51.171875 
L 81.25 62.109375 
L 19.140625 62.109375 
L 19.140625 50.390625 
L 10.546875 50.390625 
Q 10.9375 55.078125 10.9375 59.375 
Q 10.9375 64.0625 10.546875 68.359375 
L 46.484375 68.359375 
Q 45.3125 73.046875 42.1875 79.296875 
Q 45.3125 80.46875 50.78125 82.03125 
z
M 62.5 12.890625 
Q 71.09375 8.203125 78.90625 4.09375 
Q 86.71875 0 92.578125 -3.515625 
Q 89.84375 -6.640625 86.71875 -10.15625 
Q 79.6875 -5.078125 71.484375 -0.578125 
Q 63.28125 3.90625 57.421875 6.25 
Q 60.546875 10.15625 62.5 12.890625 
z
M 18.359375 42.96875 
Q 25 39.84375 36.71875 32.03125 
Q 35.15625 29.6875 32.03125 25.78125 
Q 21.09375 33.984375 14.453125 36.71875 
Q 16.796875 39.0625 18.359375 42.96875 
z
M 49.21875 44.140625 
Q 46.484375 41.015625 44.53125 37.890625 
Q 32.03125 46.875 26.171875 48.828125 
Q 28.125 51.5625 30.46875 55.078125 
z
" id="SimHei-23454"/>
      <path d="M 35.9375 73.828125 
Q 35.15625 70.3125 34.765625 63.671875 
L 32.03125 33.203125 
L 39.453125 33.203125 
Q 39.0625 30.078125 38.671875 22.65625 
L 37.109375 1.171875 
Q 37.109375 -7.03125 32.421875 -8.203125 
Q 27.734375 -9.375 19.53125 -10.546875 
Q 18.359375 -5.078125 16.40625 -1.5625 
Q 24.609375 -1.5625 27.140625 -1.359375 
Q 29.6875 -1.171875 30.46875 2.34375 
L 31.640625 26.5625 
L 8.59375 26.5625 
Q 8.984375 33.984375 9.171875 42.765625 
Q 9.375 51.5625 9.375 59.375 
L 17.1875 59.375 
Q 16.40625 55.078125 16.015625 48.234375 
Q 15.625 41.40625 15.625 33.203125 
L 25.390625 33.203125 
L 28.125 67.578125 
L 17.578125 67.578125 
Q 11.328125 67.578125 5.46875 67.1875 
L 5.46875 74.21875 
Q 11.328125 73.828125 17.578125 73.828125 
z
M 67.578125 76.171875 
Q 73.828125 64.453125 80.46875 58.984375 
Q 87.109375 53.515625 96.09375 50.390625 
Q 92.578125 47.265625 90.625 42.578125 
Q 85.15625 45.703125 80.078125 50 
L 80.078125 43.359375 
Q 75 43.75 65.625 43.75 
Q 56.25 43.75 50.390625 43.359375 
L 50.390625 49.609375 
Q 48.046875 46.484375 43.75 41.40625 
Q 40.234375 44.921875 36.328125 46.875 
Q 42.578125 51.171875 45.890625 55.46875 
Q 49.21875 59.765625 51.75 64.453125 
Q 54.296875 69.140625 56.046875 73.046875 
Q 57.8125 76.953125 58.984375 81.640625 
Q 64.0625 80.46875 69.53125 79.296875 
z
M 87.5 33.59375 
Q 85.546875 31.25 84.375 27.140625 
Q 83.203125 23.046875 80.65625 14.25 
Q 78.125 5.46875 76.5625 0.390625 
L 82.03125 0.390625 
Q 84.765625 0.390625 90.625 0.78125 
L 90.625 -6.25 
Q 85.546875 -5.859375 82.03125 -5.859375 
L 51.953125 -5.859375 
Q 44.921875 -5.859375 41.796875 -6.25 
L 41.796875 0.78125 
Q 46.484375 0.390625 52.34375 0.390625 
L 69.921875 0.390625 
Q 73.046875 8.984375 75 17.96875 
L 78.90625 35.9375 
Q 82.03125 34.765625 87.5 33.59375 
z
M 79.6875 50.390625 
Q 75 53.90625 71.09375 58.984375 
Q 67.1875 64.0625 63.28125 71.875 
Q 60.15625 65.625 57.609375 61.125 
Q 55.078125 56.640625 50.78125 50.390625 
z
M 50.78125 33.984375 
Q 52.34375 28.515625 54.09375 21.484375 
Q 55.859375 14.453125 57.421875 8.59375 
Q 53.90625 8.203125 50.78125 6.640625 
Q 49.609375 14.0625 48.234375 19.140625 
Q 46.875 24.21875 44.53125 32.03125 
Q 47.65625 33.203125 50.78125 33.984375 
z
M 27.734375 17.578125 
Q 27.34375 14.84375 26.953125 10.9375 
Q 21.09375 9.765625 17.375 8.984375 
Q 13.671875 8.203125 5.859375 5.859375 
Q 4.6875 10.15625 3.125 14.453125 
Q 8.59375 14.84375 14.453125 15.625 
Q 20.3125 16.40625 27.734375 17.578125 
z
M 67.1875 25.78125 
Q 67.96875 20.703125 69.140625 12.890625 
L 62.890625 11.328125 
Q 61.328125 19.921875 60.546875 24.40625 
Q 59.765625 28.90625 58.59375 34.765625 
Q 62.109375 35.546875 65.625 35.9375 
z
" id="SimHei-39564"/>
      <path d="M 89.453125 30.078125 
Q 89.0625 25 89.0625 18.75 
L 89.0625 5.46875 
Q 89.0625 -1.953125 89.453125 -7.421875 
L 81.640625 -7.421875 
L 81.640625 0 
L 55.078125 0 
L 55.078125 -8.203125 
L 47.265625 -8.203125 
Q 47.65625 1.953125 47.65625 5.078125 
L 47.65625 19.53125 
Q 47.65625 24.21875 47.265625 30.078125 
L 89.453125 30.078125 
z
M 29.6875 75.78125 
Q 26.5625 71.875 23.046875 65.625 
Q 19.53125 59.375 14.453125 50 
Q 23.046875 50.390625 26.953125 50.390625 
Q 30.46875 56.640625 32.8125 62.5 
Q 36.71875 59.765625 41.40625 57.421875 
Q 39.453125 55.859375 34.5625 48.828125 
Q 29.6875 41.796875 19.140625 25.78125 
Q 32.03125 27.734375 39.453125 28.90625 
Q 38.28125 24.609375 38.28125 21.484375 
Q 34.765625 21.09375 25.78125 19.921875 
Q 16.796875 18.75 8.203125 16.40625 
Q 6.640625 20.3125 5.46875 24.21875 
Q 10.15625 25.390625 14.84375 31.4375 
Q 19.53125 37.5 23.046875 44.140625 
Q 20.3125 44.140625 15.03125 43.546875 
Q 9.765625 42.96875 5.859375 41.796875 
Q 4.6875 45.703125 3.515625 49.21875 
Q 7.8125 52.734375 12.6875 61.328125 
Q 17.578125 69.921875 20.3125 80.078125 
Q 25 77.734375 29.6875 75.78125 
z
M 63.671875 65.234375 
Q 63.671875 71.875 63.28125 80.859375 
L 71.484375 80.859375 
Q 71.09375 73.828125 71.09375 65.234375 
L 82.421875 65.234375 
Q 89.84375 65.234375 96.09375 65.625 
L 96.09375 58.59375 
Q 89.84375 58.984375 82.8125 58.984375 
L 71.09375 58.984375 
L 71.09375 46.09375 
L 80.078125 46.09375 
Q 85.546875 46.09375 91.015625 46.484375 
L 91.015625 39.453125 
Q 86.328125 39.84375 79.6875 39.84375 
L 57.03125 39.84375 
Q 50.390625 39.84375 45.3125 39.453125 
L 45.3125 46.484375 
Q 50.390625 46.09375 56.25 46.09375 
L 63.671875 46.09375 
L 63.671875 58.984375 
L 55.078125 58.984375 
Q 48.046875 58.984375 41.796875 58.59375 
L 41.796875 65.625 
Q 46.875 65.234375 54.296875 65.234375 
z
M 81.640625 6.25 
L 81.640625 23.828125 
L 55.078125 23.828125 
L 55.078125 6.25 
z
M 40.234375 10.15625 
Q 39.0625 6.640625 39.453125 2.734375 
Q 32.03125 1.5625 22.65625 0 
Q 13.28125 -1.5625 6.640625 -3.515625 
Q 5.078125 1.5625 3.515625 5.46875 
Q 11.71875 5.859375 18.359375 6.828125 
Q 25 7.8125 40.234375 10.15625 
z
" id="SimHei-32467"/>
      <path d="M 46.484375 -8.203125 
Q 46.875 -1.171875 46.875 8.984375 
L 46.875 25 
L 45.3125 25 
Q 42.578125 19.921875 39.0625 15.625 
Q 35.546875 11.328125 31.046875 8 
Q 26.5625 4.6875 21.28125 1.5625 
Q 16.015625 -1.5625 10.546875 -3.90625 
Q 8.984375 0.390625 6.25 4.296875 
Q 10.9375 5.46875 15.234375 7.609375 
Q 19.53125 9.765625 23.828125 12.296875 
Q 28.125 14.84375 31.25 17.96875 
Q 34.375 21.09375 37.109375 25 
L 21.484375 25 
Q 15.625 25 7.03125 24.21875 
L 7.03125 32.03125 
Q 14.84375 31.25 21.484375 31.25 
L 46.875 31.25 
L 46.875 38.28125 
L 17.96875 38.28125 
Q 18.359375 47.65625 18.359375 58.984375 
Q 18.359375 70.3125 17.96875 78.125 
L 83.203125 78.125 
Q 82.8125 70.3125 82.8125 58.984375 
Q 82.8125 47.65625 83.203125 38.28125 
L 54.296875 38.28125 
L 54.296875 31.25 
L 78.90625 31.25 
Q 86.71875 31.25 92.578125 31.640625 
L 92.578125 24.21875 
Q 85.9375 25 79.6875 25 
L 64.453125 25 
Q 69.53125 16.796875 76.953125 12.5 
Q 84.375 8.203125 94.53125 5.859375 
Q 91.796875 2.34375 90.234375 -2.734375 
Q 76.953125 2.34375 69.140625 8.59375 
Q 61.328125 14.84375 57.421875 25 
L 54.296875 25 
L 54.296875 8.59375 
Q 54.296875 0 54.6875 -8.203125 
z
M 75.390625 60.546875 
L 75.390625 72.265625 
L 54.296875 72.265625 
L 54.296875 60.546875 
z
M 46.875 60.546875 
L 46.875 72.265625 
L 26.171875 72.265625 
L 26.171875 60.546875 
z
M 75.390625 44.140625 
L 75.390625 54.6875 
L 54.296875 54.6875 
L 54.296875 44.140625 
z
M 46.875 44.140625 
L 46.875 54.6875 
L 26.171875 54.6875 
L 26.171875 44.140625 
z
" id="SimHei-26524"/>
      <path d="M 80.46875 75 
Q 78.125 70.703125 74.40625 63.078125 
Q 70.703125 55.46875 66.796875 48.828125 
L 85.546875 48.828125 
Q 80.078125 32.8125 75.578125 25.1875 
Q 71.09375 17.578125 66.40625 12.109375 
Q 70.703125 8.984375 79.09375 5.46875 
Q 87.5 1.953125 96.09375 0 
Q 91.796875 -4.6875 90.625 -8.203125 
Q 76.171875 -3.515625 60.9375 7.03125 
Q 52.734375 0.78125 44.328125 -2.53125 
Q 35.9375 -5.859375 26.171875 -8.59375 
Q 25.390625 -6.640625 21.484375 -1.953125 
Q 43.75 2.734375 55.078125 11.71875 
Q 49.609375 17.578125 44.53125 24.796875 
Q 39.453125 32.03125 35.546875 39.0625 
Q 33.984375 32.421875 31.640625 26.359375 
Q 29.296875 20.3125 26.359375 15.03125 
Q 23.4375 9.765625 19.921875 5.265625 
Q 16.40625 0.78125 9.765625 -6.25 
Q 7.8125 -3.515625 3.90625 0.390625 
Q 13.671875 7.8125 19.53125 17.96875 
Q 25.390625 28.125 27.734375 37.296875 
Q 30.078125 46.484375 31.046875 54.875 
Q 32.03125 63.28125 32.03125 68.75 
L 27.34375 68.75 
Q 21.484375 68.75 14.453125 68.359375 
L 14.453125 75.390625 
Q 21.484375 75 27.34375 75 
z
M 37.5 48.828125 
Q 41.015625 41.796875 48.4375 31.25 
Q 55.859375 20.703125 60.546875 16.796875 
Q 64.0625 20.3125 67.96875 26.75 
Q 71.875 33.203125 75.390625 42.578125 
L 55.078125 42.578125 
Q 57.8125 46.875 60.9375 52.921875 
Q 64.0625 58.984375 68.359375 68.75 
L 39.453125 68.75 
Q 39.0625 62.5 37.5 48.828125 
z
" id="SimHei-21450"/>
      <path d="M 53.90625 67.1875 
Q 53.90625 73.046875 52.734375 80.078125 
Q 57.8125 79.6875 63.28125 78.90625 
Q 62.109375 76.5625 61.71875 71.28125 
Q 61.328125 66.015625 61.71875 56.25 
L 75 58.59375 
Q 81.640625 60.15625 88.28125 62.109375 
L 89.84375 54.6875 
Q 83.203125 53.90625 76.171875 52.734375 
L 62.109375 50 
Q 62.109375 43.75 62.890625 39.0625 
L 78.125 41.796875 
Q 85.9375 43.359375 92.96875 45.703125 
L 94.140625 38.28125 
Q 87.109375 37.109375 79.296875 35.546875 
L 64.0625 32.8125 
Q 64.84375 25 67.96875 18.359375 
Q 71.484375 21.09375 74.796875 24.609375 
Q 78.125 28.125 80.859375 32.421875 
Q 86.71875 27.734375 89.84375 26.171875 
Q 84.765625 23.828125 81.828125 20.890625 
Q 78.90625 17.96875 72.265625 11.71875 
Q 76.953125 3.90625 80.65625 1.75 
Q 84.375 -0.390625 85.9375 1.5625 
Q 87.5 3.515625 88.671875 9.765625 
Q 92.1875 7.03125 96.875 5.46875 
Q 90.234375 -11.71875 82.421875 -8.390625 
Q 74.609375 -5.078125 66.015625 7.03125 
Q 60.546875 2.734375 55.265625 -0.96875 
Q 50 -4.6875 42.1875 -8.59375 
Q 40.234375 -4.6875 36.328125 -1.5625 
Q 44.140625 1.171875 49.609375 4.296875 
Q 55.078125 7.421875 62.109375 13.28125 
Q 58.59375 21.09375 57.03125 31.640625 
Q 45.3125 29.6875 40.625 28.125 
L 39.453125 35.546875 
Q 44.140625 35.546875 55.46875 37.890625 
Q 54.6875 44.140625 54.6875 48.4375 
Q 44.140625 46.09375 40.234375 44.921875 
L 38.671875 52.34375 
Q 42.578125 52.34375 53.90625 54.6875 
z
M 30.46875 76.171875 
Q 26.5625 72.65625 22.84375 66.203125 
Q 19.140625 59.765625 12.890625 50.390625 
Q 22.265625 50.78125 25.78125 50.78125 
Q 29.296875 56.640625 32.03125 63.671875 
Q 35.9375 60.9375 40.625 59.375 
Q 36.71875 55.46875 32.609375 48.828125 
Q 28.515625 42.1875 18.359375 26.171875 
Q 28.90625 26.953125 37.109375 27.734375 
Q 35.9375 23.828125 35.9375 21.09375 
Q 33.203125 21.09375 23.828125 20.109375 
Q 14.453125 19.140625 8.59375 17.578125 
Q 8.203125 21.484375 6.25 25.78125 
Q 10.9375 26.953125 14.84375 32.03125 
Q 18.75 37.109375 23.046875 44.921875 
Q 10.15625 44.140625 6.640625 41.796875 
Q 5.46875 46.09375 3.125 50.390625 
Q 8.203125 53.90625 12.890625 61.90625 
Q 17.578125 69.921875 21.484375 80.46875 
Q 25.390625 77.734375 30.46875 76.171875 
z
M 40.234375 13.671875 
Q 39.84375 9.375 40.234375 7.03125 
Q 30.46875 5.078125 22.65625 3.125 
Q 14.84375 1.171875 8.203125 -1.171875 
Q 7.03125 3.125 3.90625 7.421875 
Q 14.84375 8.59375 20.703125 9.5625 
Q 26.5625 10.546875 40.234375 13.671875 
z
M 75.78125 62.890625 
Q 73.046875 67.1875 68.359375 73.046875 
L 74.609375 76.171875 
Q 76.171875 74.21875 82.421875 66.796875 
Q 78.515625 65.234375 75.78125 62.890625 
z
" id="SimHei-32447"/>
      <path d="M 53.90625 70.703125 
Q 51.953125 63.671875 51.171875 58.59375 
L 63.28125 58.59375 
L 63.28125 66.796875 
Q 63.28125 73.4375 62.890625 79.6875 
L 71.09375 79.6875 
Q 70.703125 73.4375 70.703125 66.796875 
L 70.703125 58.59375 
L 78.515625 58.59375 
Q 83.59375 58.59375 90.625 58.984375 
L 90.625 51.5625 
Q 83.59375 51.953125 78.515625 51.953125 
L 70.703125 51.953125 
L 70.703125 31.25 
L 77.734375 31.25 
Q 83.59375 31.25 89.453125 31.640625 
L 89.453125 24.21875 
Q 83.59375 24.609375 77.734375 24.609375 
L 70.703125 24.609375 
L 70.703125 0.390625 
L 81.25 0.390625 
Q 87.890625 0.390625 94.140625 0.78125 
L 94.140625 -6.25 
Q 87.890625 -5.859375 81.25 -5.859375 
L 51.171875 -5.859375 
Q 44.140625 -5.859375 37.5 -6.25 
L 37.5 0.78125 
Q 44.140625 0.390625 50.78125 0.390625 
L 63.28125 0.390625 
L 63.28125 24.609375 
L 56.640625 24.609375 
Q 51.5625 24.609375 44.921875 24.21875 
L 44.921875 31.640625 
Q 50 31.25 56.640625 31.25 
L 63.28125 31.25 
L 63.28125 51.953125 
L 49.609375 51.953125 
Q 48.4375 46.09375 43.359375 34.765625 
Q 39.0625 37.109375 36.328125 37.5 
Q 41.796875 48.828125 43.359375 57.03125 
Q 44.921875 65.234375 46.09375 72.65625 
Q 50 71.484375 53.90625 70.703125 
z
M 26.5625 80.46875 
Q 26.171875 72.65625 26.171875 65.234375 
L 26.171875 6.640625 
Q 26.171875 -1.5625 26.5625 -9.765625 
L 18.359375 -9.765625 
Q 18.75 -1.5625 18.75 6.640625 
L 18.75 65.234375 
Q 18.75 73.4375 18.359375 80.46875 
L 26.5625 80.46875 
z
M 15.234375 58.203125 
Q 12.890625 41.796875 10.9375 33.59375 
Q 7.03125 34.375 3.90625 35.15625 
Q 6.640625 45.3125 8.203125 59.375 
Q 11.328125 58.984375 15.234375 58.203125 
z
M 33.203125 62.890625 
Q 36.328125 56.640625 39.453125 46.875 
Q 35.9375 45.703125 33.203125 44.140625 
Q 30.46875 52.734375 27.34375 60.15625 
Q 30.46875 61.71875 33.203125 62.890625 
z
" id="SimHei-24615"/>
      <path d="M 26.171875 1.953125 
Q 26.171875 -2.734375 23.4375 -4.296875 
Q 20.703125 -5.859375 12.5 -7.8125 
Q 11.71875 -3.515625 8.984375 0 
Q 19.140625 0.390625 19.140625 4.296875 
L 19.140625 29.296875 
Q 10.9375 25.390625 7.421875 23.4375 
Q 5.859375 28.125 3.90625 30.859375 
Q 8.203125 32.03125 19.140625 36.328125 
L 19.140625 55.46875 
Q 11.328125 55.46875 5.46875 55.078125 
L 5.46875 62.5 
Q 10.9375 61.71875 19.140625 61.71875 
Q 19.140625 72.265625 18.75 81.640625 
L 26.953125 81.640625 
Q 26.171875 71.09375 26.171875 61.71875 
Q 31.640625 61.71875 36.328125 62.109375 
L 36.328125 55.078125 
Q 30.859375 55.46875 26.171875 55.46875 
L 26.171875 38.671875 
Q 33.59375 41.796875 35.9375 43.75 
Q 35.9375 39.84375 36.328125 36.328125 
Q 33.203125 35.15625 26.171875 32.03125 
z
M 77.34375 78.90625 
Q 82.421875 78.515625 85.9375 78.125 
Q 84.765625 72.65625 85.15625 52.140625 
Q 85.546875 31.640625 82.03125 19.921875 
Q 91.40625 8.59375 96.875 -0.78125 
Q 93.359375 -3.515625 90.234375 -6.25 
Q 86.328125 1.5625 78.90625 12.5 
Q 75 7.03125 69.328125 1.75 
Q 63.671875 -3.515625 51.953125 -10.15625 
Q 49.609375 -7.03125 45.703125 -3.90625 
Q 53.515625 -0.390625 60.9375 5.078125 
Q 68.359375 10.546875 72.0625 16.40625 
Q 75.78125 22.265625 76.953125 33.59375 
Q 78.125 44.921875 77.34375 78.90625 
z
M 39.0625 10.9375 
Q 41.796875 13.671875 41.796875 18.75 
L 41.796875 54.296875 
Q 41.796875 61.328125 41.40625 68.75 
L 49.609375 68.75 
Q 48.828125 62.109375 48.828125 54.6875 
L 48.828125 18.359375 
Q 58.984375 28.90625 63.28125 34.375 
Q 64.84375 30.078125 67.1875 26.953125 
Q 62.890625 23.4375 45.3125 4.6875 
L 39.0625 10.9375 
z
M 59.375 79.6875 
Q 68.359375 62.890625 71.484375 55.46875 
Q 66.40625 53.125 64.0625 51.5625 
Q 60.15625 60.546875 52.734375 76.171875 
Q 55.859375 77.34375 59.375 79.6875 
z
" id="SimHei-25311"/>
      <path d="M 78.90625 28.125 
Q 78.515625 24.21875 78.515625 10.15625 
Q 78.515625 -3.90625 78.90625 -8.203125 
L 70.703125 -8.203125 
L 70.703125 -0.78125 
L 27.34375 -0.78125 
L 27.34375 -9.375 
L 19.53125 -9.375 
Q 19.921875 -4.6875 19.921875 8.59375 
Q 19.921875 22.265625 19.53125 28.125 
L 78.90625 28.125 
z
M 52.734375 75 
Q 64.0625 61.328125 71.09375 56.25 
Q 78.125 51.171875 83.984375 48.4375 
Q 89.84375 45.703125 95.3125 44.140625 
Q 91.40625 39.84375 90.234375 35.9375 
Q 82.421875 39.453125 76.171875 43.359375 
Q 69.921875 47.265625 63.46875 53.3125 
Q 57.03125 59.375 48.828125 69.921875 
Q 41.40625 59.375 34.171875 52.53125 
Q 26.953125 45.703125 21.875 41.796875 
Q 16.796875 37.890625 10.546875 33.984375 
Q 9.765625 35.546875 4.296875 40.234375 
Q 12.5 44.140625 19.921875 49.609375 
Q 27.34375 55.078125 34.765625 63.46875 
Q 42.1875 71.875 46.875 81.640625 
Q 51.171875 78.90625 54.6875 77.34375 
z
M 70.703125 5.46875 
L 70.703125 21.875 
L 27.34375 21.875 
L 27.34375 5.46875 
z
M 61.328125 44.140625 
Q 67.578125 44.140625 72.265625 44.53125 
L 72.265625 37.109375 
Q 67.1875 37.5 61.71875 37.5 
L 39.84375 37.5 
Q 31.640625 37.5 26.5625 37.109375 
L 26.5625 44.53125 
Q 33.984375 44.140625 39.84375 44.140625 
z
" id="SimHei-21512"/>
     </defs>
     <use transform="translate(0 0.96875)" xlink:href="#DejaVuSans-Oblique-85"/>
     <use transform="translate(73.193359 -15.4375)scale(0.7)" xlink:href="#DejaVuSans-Oblique-70"/>
     <use transform="translate(116.191406 0.96875)" xlink:href="#SimHei-19982"/>
     <use transform="translate(216.191406 0.96875)" xlink:href="#DejaVuSans-Oblique-84"/>
     <use transform="translate(277.275391 0.96875)" xlink:href="#SimHei-20851"/>
     <use transform="translate(377.275391 0.96875)" xlink:href="#SimHei-31995"/>
     <use transform="translate(477.275391 0.96875)" xlink:href="#SimHei-23454"/>
     <use transform="translate(577.275391 0.96875)" xlink:href="#SimHei-39564"/>
     <use transform="translate(677.275391 0.96875)" xlink:href="#SimHei-32467"/>
     <use transform="translate(777.275391 0.96875)" xlink:href="#SimHei-26524"/>
     <use transform="translate(877.275391 0.96875)" xlink:href="#SimHei-21450"/>
     <use transform="translate(977.275391 0.96875)" xlink:href="#SimHei-32447"/>
     <use transform="translate(1077.275391 0.96875)" xlink:href="#SimHei-24615"/>
     <use transform="translate(1177.275391 0.96875)" xlink:href="#SimHei-25311"/>
     <use transform="translate(1277.275391 0.96875)" xlink:href="#SimHei-21512"/>
    </g>
   </g>
   <g id="legend_1">
    <g id="patch_7">
     <path d="M 278.82 110.872 
L 407.72 110.872 
Q 409.72 110.872 409.72 108.872 
L 409.72 48.472 
Q 409.72 46.472 407.72 46.472 
L 278.82 46.472 
Q 276.82 46.472 276.82 48.472 
L 276.82 108.872 
Q 276.82 110.872 278.82 110.872 
z
" style="fill:#ffffff;opacity:0.8;stroke:#cccccc;stroke-linejoin:miter;"/>
    </g>
    <g id="line2d_21">
     <path d="M 280.82 55.172 
L 300.82 55.172 
" style="fill:none;stroke:#ed7d30;stroke-linecap:square;"/>
    </g>
    <g id="line2d_22"/>
    <g id="text_20">
     <!-- $I_F=100 \mu A$ 线性拟合 -->
     <g transform="translate(308.82 58.672)scale(0.1 -0.1)">
      <defs>
       <path d="M 16.890625 72.90625 
L 26.8125 72.90625 
L 12.59375 0 
L 2.6875 0 
z
" id="DejaVuSans-Oblique-73"/>
       <path d="M 10.59375 45.40625 
L 73.1875 45.40625 
L 73.1875 37.203125 
L 10.59375 37.203125 
z
M 10.59375 25.484375 
L 73.1875 25.484375 
L 73.1875 17.1875 
L 10.59375 17.1875 
z
" id="DejaVuSans-61"/>
       <path d="M 12.40625 8.296875 
L 28.515625 8.296875 
L 28.515625 63.921875 
L 10.984375 60.40625 
L 10.984375 69.390625 
L 28.421875 72.90625 
L 38.28125 72.90625 
L 38.28125 8.296875 
L 54.390625 8.296875 
L 54.390625 0 
L 12.40625 0 
z
" id="DejaVuSans-49"/>
       <path d="M -1.3125 -20.796875 
L 13.375 54.6875 
L 22.40625 54.6875 
L 15.765625 20.65625 
Q 15.578125 19.625 15.421875 18.359375 
Q 15.28125 17.09375 15.28125 15.828125 
Q 15.28125 11.28125 18.140625 8.828125 
Q 21 6.390625 26.3125 6.390625 
Q 33.546875 6.390625 37.984375 10.484375 
Q 42.4375 14.59375 44 22.796875 
L 50.203125 54.6875 
L 59.1875 54.6875 
L 51.03125 12.640625 
Q 50.828125 11.71875 50.75 11.03125 
Q 50.6875 10.359375 50.6875 9.8125 
Q 50.6875 8.296875 51.296875 7.59375 
Q 51.90625 6.890625 53.21875 6.890625 
Q 53.71875 6.890625 54.5625 7.125 
Q 55.421875 7.375 56.984375 8.015625 
L 55.609375 0.78125 
Q 53.46875 -0.296875 51.515625 -0.859375 
Q 49.5625 -1.421875 47.703125 -1.421875 
Q 44.484375 -1.421875 42.65625 0.625 
Q 40.828125 2.6875 40.828125 6.296875 
Q 38.09375 2.390625 34.296875 0.484375 
Q 30.515625 -1.421875 25.390625 -1.421875 
Q 20.84375 -1.421875 17.453125 0.671875 
Q 14.0625 2.78125 12.984375 6.203125 
L 7.71875 -20.796875 
z
" id="DejaVuSans-Oblique-956"/>
       <path d="M 36.8125 72.90625 
L 48 72.90625 
L 61.53125 0 
L 51.21875 0 
L 48.1875 18.703125 
L 15.375 18.703125 
L 5.078125 0 
L -5.328125 0 
z
M 40.375 63.1875 
L 19.921875 26.90625 
L 46.6875 26.90625 
z
" id="DejaVuSans-Oblique-65"/>
       <path id="SimHei-32"/>
      </defs>
      <use transform="translate(0 0.359375)" xlink:href="#DejaVuSans-Oblique-73"/>
      <use transform="translate(29.492188 -16.046875)scale(0.7)" xlink:href="#DejaVuSans-Oblique-70"/>
      <use transform="translate(91.972656 0.359375)" xlink:href="#DejaVuSans-61"/>
      <use transform="translate(195.244141 0.359375)" xlink:href="#DejaVuSans-49"/>
      <use transform="translate(258.867188 0.359375)" xlink:href="#DejaVuSans-48"/>
      <use transform="translate(322.490234 0.359375)" xlink:href="#DejaVuSans-48"/>
      <use transform="translate(386.113281 0.359375)" xlink:href="#DejaVuSans-Oblique-956"/>
      <use transform="translate(449.736328 0.359375)" xlink:href="#DejaVuSans-Oblique-65"/>
      <use transform="translate(518.144531 0.359375)" xlink:href="#SimHei-32"/>
      <use transform="translate(568.144531 0.359375)" xlink:href="#SimHei-32447"/>
      <use transform="translate(668.144531 0.359375)" xlink:href="#SimHei-24615"/>
      <use transform="translate(768.144531 0.359375)" xlink:href="#SimHei-25311"/>
      <use transform="translate(868.144531 0.359375)" xlink:href="#SimHei-21512"/>
     </g>
    </g>
    <g id="line2d_23"/>
    <g id="line2d_24">
     <g>
      <use style="fill:#70ad47;stroke:#70ad47;" x="290.82" xlink:href="#m66dd131dac" y="70.572"/>
     </g>
    </g>
    <g id="text_21">
     <!-- $I_F=100 \mu A$ 实验结果 -->
     <g transform="translate(308.82 74.072)scale(0.1 -0.1)">
      <use transform="translate(0 0.96875)" xlink:href="#DejaVuSans-Oblique-73"/>
      <use transform="translate(29.492188 -15.4375)scale(0.7)" xlink:href="#DejaVuSans-Oblique-70"/>
      <use transform="translate(91.972656 0.96875)" xlink:href="#DejaVuSans-61"/>
      <use transform="translate(195.244141 0.96875)" xlink:href="#DejaVuSans-49"/>
      <use transform="translate(258.867188 0.96875)" xlink:href="#DejaVuSans-48"/>
      <use transform="translate(322.490234 0.96875)" xlink:href="#DejaVuSans-48"/>
      <use transform="translate(386.113281 0.96875)" xlink:href="#DejaVuSans-Oblique-956"/>
      <use transform="translate(449.736328 0.96875)" xlink:href="#DejaVuSans-Oblique-65"/>
      <use transform="translate(518.144531 0.96875)" xlink:href="#SimHei-32"/>
      <use transform="translate(568.144531 0.96875)" xlink:href="#SimHei-23454"/>
      <use transform="translate(668.144531 0.96875)" xlink:href="#SimHei-39564"/>
      <use transform="translate(768.144531 0.96875)" xlink:href="#SimHei-32467"/>
      <use transform="translate(868.144531 0.96875)" xlink:href="#SimHei-26524"/>
     </g>
    </g>
    <g id="line2d_25">
     <path d="M 280.82 85.872 
L 300.82 85.872 
" style="fill:none;stroke:#e60012;stroke-linecap:square;"/>
    </g>
    <g id="line2d_26"/>
    <g id="text_22">
     <!-- $I_F=200 \mu A$ 线性拟合 -->
     <g transform="translate(308.82 89.372)scale(0.1 -0.1)">
      <use transform="translate(0 0.359375)" xlink:href="#DejaVuSans-Oblique-73"/>
      <use transform="translate(29.492188 -16.046875)scale(0.7)" xlink:href="#DejaVuSans-Oblique-70"/>
      <use transform="translate(91.972656 0.359375)" xlink:href="#DejaVuSans-61"/>
      <use transform="translate(195.244141 0.359375)" xlink:href="#DejaVuSans-50"/>
      <use transform="translate(258.867188 0.359375)" xlink:href="#DejaVuSans-48"/>
      <use transform="translate(322.490234 0.359375)" xlink:href="#DejaVuSans-48"/>
      <use transform="translate(386.113281 0.359375)" xlink:href="#DejaVuSans-Oblique-956"/>
      <use transform="translate(449.736328 0.359375)" xlink:href="#DejaVuSans-Oblique-65"/>
      <use transform="translate(518.144531 0.359375)" xlink:href="#SimHei-32"/>
      <use transform="translate(568.144531 0.359375)" xlink:href="#SimHei-32447"/>
      <use transform="translate(668.144531 0.359375)" xlink:href="#SimHei-24615"/>
      <use transform="translate(768.144531 0.359375)" xlink:href="#SimHei-25311"/>
      <use transform="translate(868.144531 0.359375)" xlink:href="#SimHei-21512"/>
     </g>
    </g>
    <g id="line2d_27"/>
    <g id="line2d_28">
     <g>
      <use style="fill:#4573c4;stroke:#4573c4;" x="290.82" xlink:href="#m9de2e48756" y="101.272"/>
     </g>
    </g>
    <g id="text_23">
     <!-- $I_F=200 \mu A$ 实验结果 -->
     <g transform="translate(308.82 104.772)scale(0.1 -0.1)">
      <use transform="translate(0 0.96875)" xlink:href="#DejaVuSans-Oblique-73"/>
      <use transform="translate(29.492188 -15.4375)scale(0.7)" xlink:href="#DejaVuSans-Oblique-70"/>
      <use transform="translate(91.972656 0.96875)" xlink:href="#DejaVuSans-61"/>
      <use transform="translate(195.244141 0.96875)" xlink:href="#DejaVuSans-50"/>
      <use transform="translate(258.867188 0.96875)" xlink:href="#DejaVuSans-48"/>
      <use transform="translate(322.490234 0.96875)" xlink:href="#DejaVuSans-48"/>
      <use transform="translate(386.113281 0.96875)" xlink:href="#DejaVuSans-Oblique-956"/>
      <use transform="translate(449.736328 0.96875)" xlink:href="#DejaVuSans-Oblique-65"/>
      <use transform="translate(518.144531 0.96875)" xlink:href="#SimHei-32"/>
      <use transform="translate(568.144531 0.96875)" xlink:href="#SimHei-23454"/>
      <use transform="translate(668.144531 0.96875)" xlink:href="#SimHei-39564"/>
      <use transform="translate(768.144531 0.96875)" xlink:href="#SimHei-32467"/>
      <use transform="translate(868.144531 0.96875)" xlink:href="#SimHei-26524"/>
     </g>
    </g>
   </g>
  </g>
 </g>
 <defs>
  <clipPath id="p75c6d32ae4">
   <rect height="266.112" width="357.12" x="57.6" y="41.472"/>
  </clipPath>
 </defs>
</svg>
