<?xml version="1.0" encoding="utf-8" standalone="no"?>
<!DOCTYPE svg PUBLIC "-//W3C//DTD SVG 1.1//EN"
  "http://www.w3.org/Graphics/SVG/1.1/DTD/svg11.dtd">
<!-- Created with matplotlib (https://matplotlib.org/) -->
<svg height="288pt" version="1.1" viewBox="0 0 576 288" width="576pt" xmlns="http://www.w3.org/2000/svg" xmlns:xlink="http://www.w3.org/1999/xlink">
 <metadata>
  <rdf:RDF xmlns:cc="http://creativecommons.org/ns#" xmlns:dc="http://purl.org/dc/elements/1.1/" xmlns:rdf="http://www.w3.org/1999/02/22-rdf-syntax-ns#">
   <cc:Work>
    <dc:type rdf:resource="http://purl.org/dc/dcmitype/StillImage"/>
    <dc:date>2020-11-18T13:45:25.837869</dc:date>
    <dc:format>image/svg+xml</dc:format>
    <dc:creator>
     <cc:Agent>
      <dc:title>Matplotlib v3.3.2, https://matplotlib.org/</dc:title>
     </cc:Agent>
    </dc:creator>
   </cc:Work>
  </rdf:RDF>
 </metadata>
 <defs>
  <style type="text/css">*{stroke-linecap:butt;stroke-linejoin:round;}</style>
 </defs>
 <g id="figure_1">
  <g id="patch_1">
   <path d="M 0 288 
L 576 288 
L 576 0 
L 0 0 
z
" style="fill:#ffffff;"/>
  </g>
  <g id="axes_1">
   <g id="patch_2">
    <path d="M 72 256.32 
L 518.4 256.32 
L 518.4 34.56 
L 72 34.56 
z
" style="fill:#ffffff;"/>
   </g>
   <g id="PathCollection_1">
    <defs>
     <path d="M 0 2 
C 0.530406 2 1.03916 1.789267 1.414214 1.414214 
C 1.789267 1.03916 2 0.530406 2 0 
C 2 -0.530406 1.789267 -1.03916 1.414214 -1.414214 
C 1.03916 -1.789267 0.530406 -2 0 -2 
C -0.530406 -2 -1.03916 -1.789267 -1.414214 -1.414214 
C -1.789267 -1.03916 -2 -0.530406 -2 0 
C -2 0.530406 -1.789267 1.03916 -1.414214 1.414214 
C -1.03916 1.789267 -0.530406 2 0 2 
z
" id="me85d31e2b2" style="stroke:#ff0000;"/>
    </defs>
    <g clip-path="url(#p2eb27caab6)">
     <use style="fill:#ff0000;stroke:#ff0000;" x="101.354182" xlink:href="#me85d31e2b2" y="143.89628"/>
     <use style="fill:#ff0000;stroke:#ff0000;" x="103.518545" xlink:href="#me85d31e2b2" y="151.442652"/>
     <use style="fill:#ff0000;stroke:#ff0000;" x="105.818182" xlink:href="#me85d31e2b2" y="159.109109"/>
     <use style="fill:#ff0000;stroke:#ff0000;" x="108.117818" xlink:href="#me85d31e2b2" y="166.023456"/>
     <use style="fill:#ff0000;stroke:#ff0000;" x="110.282182" xlink:href="#me85d31e2b2" y="173.323339"/>
     <use style="fill:#ff0000;stroke:#ff0000;" x="112.581818" xlink:href="#me85d31e2b2" y="180.481016"/>
     <use style="fill:#ff0000;stroke:#ff0000;" x="114.881455" xlink:href="#me85d31e2b2" y="187.227877"/>
     <use style="fill:#ff0000;stroke:#ff0000;" x="117.181091" xlink:href="#me85d31e2b2" y="194.233868"/>
     <use style="fill:#ff0000;stroke:#ff0000;" x="119.345455" xlink:href="#me85d31e2b2" y="200.712119"/>
     <use style="fill:#ff0000;stroke:#ff0000;" x="121.645091" xlink:href="#me85d31e2b2" y="206.842756"/>
     <use style="fill:#ff0000;stroke:#ff0000;" x="123.944727" xlink:href="#me85d31e2b2" y="212.414051"/>
     <use style="fill:#ff0000;stroke:#ff0000;" x="126.109091" xlink:href="#me85d31e2b2" y="217.726217"/>
     <use style="fill:#ff0000;stroke:#ff0000;" x="128.408727" xlink:href="#me85d31e2b2" y="222.823494"/>
     <use style="fill:#ff0000;stroke:#ff0000;" x="130.708364" xlink:href="#me85d31e2b2" y="227.506795"/>
     <use style="fill:#ff0000;stroke:#ff0000;" x="132.872727" xlink:href="#me85d31e2b2" y="231.77612"/>
     <use style="fill:#ff0000;stroke:#ff0000;" x="135.172364" xlink:href="#me85d31e2b2" y="235.713633"/>
     <use style="fill:#ff0000;stroke:#ff0000;" x="137.472" xlink:href="#me85d31e2b2" y="238.968559"/>
     <use style="fill:#ff0000;stroke:#ff0000;" x="139.636364" xlink:href="#me85d31e2b2" y="241.610421"/>
     <use style="fill:#ff0000;stroke:#ff0000;" x="141.936" xlink:href="#me85d31e2b2" y="243.525455"/>
     <use style="fill:#ff0000;stroke:#ff0000;" x="144.235636" xlink:href="#me85d31e2b2" y="244.922229"/>
     <use style="fill:#ff0000;stroke:#ff0000;" x="146.4" xlink:href="#me85d31e2b2" y="245.851305"/>
     <use style="fill:#ff0000;stroke:#ff0000;" x="148.699636" xlink:href="#me85d31e2b2" y="246.24"/>
     <use style="fill:#ff0000;stroke:#ff0000;" x="150.999273" xlink:href="#me85d31e2b2" y="246.091474"/>
     <use style="fill:#ff0000;stroke:#ff0000;" x="153.163636" xlink:href="#me85d31e2b2" y="245.532133"/>
     <use style="fill:#ff0000;stroke:#ff0000;" x="155.463273" xlink:href="#me85d31e2b2" y="244.1796"/>
     <use style="fill:#ff0000;stroke:#ff0000;" x="157.762909" xlink:href="#me85d31e2b2" y="242.381491"/>
     <use style="fill:#ff0000;stroke:#ff0000;" x="160.062545" xlink:href="#me85d31e2b2" y="239.954517"/>
     <use style="fill:#ff0000;stroke:#ff0000;" x="162.226909" xlink:href="#me85d31e2b2" y="236.857597"/>
     <use style="fill:#ff0000;stroke:#ff0000;" x="164.526545" xlink:href="#me85d31e2b2" y="233.169734"/>
     <use style="fill:#ff0000;stroke:#ff0000;" x="166.826182" xlink:href="#me85d31e2b2" y="229.014174"/>
     <use style="fill:#ff0000;stroke:#ff0000;" x="168.990545" xlink:href="#me85d31e2b2" y="224.321392"/>
     <use style="fill:#ff0000;stroke:#ff0000;" x="171.290182" xlink:href="#me85d31e2b2" y="219.170393"/>
     <use style="fill:#ff0000;stroke:#ff0000;" x="173.589818" xlink:href="#me85d31e2b2" y="213.823466"/>
     <use style="fill:#ff0000;stroke:#ff0000;" x="175.754182" xlink:href="#me85d31e2b2" y="208.030962"/>
     <use style="fill:#ff0000;stroke:#ff0000;" x="178.053818" xlink:href="#me85d31e2b2" y="201.596953"/>
     <use style="fill:#ff0000;stroke:#ff0000;" x="180.353455" xlink:href="#me85d31e2b2" y="194.989137"/>
     <use style="fill:#ff0000;stroke:#ff0000;" x="182.517818" xlink:href="#me85d31e2b2" y="188.137992"/>
     <use style="fill:#ff0000;stroke:#ff0000;" x="184.817455" xlink:href="#me85d31e2b2" y="181.018237"/>
     <use style="fill:#ff0000;stroke:#ff0000;" x="187.117091" xlink:href="#me85d31e2b2" y="173.809998"/>
     <use style="fill:#ff0000;stroke:#ff0000;" x="189.281455" xlink:href="#me85d31e2b2" y="166.295227"/>
     <use style="fill:#ff0000;stroke:#ff0000;" x="191.581091" xlink:href="#me85d31e2b2" y="158.796257"/>
     <use style="fill:#ff0000;stroke:#ff0000;" x="193.880727" xlink:href="#me85d31e2b2" y="150.940193"/>
     <use style="fill:#ff0000;stroke:#ff0000;" x="196.045091" xlink:href="#me85d31e2b2" y="143.264256"/>
     <use style="fill:#ff0000;stroke:#ff0000;" x="198.344727" xlink:href="#me85d31e2b2" y="135.480875"/>
     <use style="fill:#ff0000;stroke:#ff0000;" x="200.644364" xlink:href="#me85d31e2b2" y="127.466805"/>
     <use style="fill:#ff0000;stroke:#ff0000;" x="202.808727" xlink:href="#me85d31e2b2" y="119.689744"/>
     <use style="fill:#ff0000;stroke:#ff0000;" x="205.108364" xlink:href="#me85d31e2b2" y="111.84316"/>
     <use style="fill:#ff0000;stroke:#ff0000;" x="207.408" xlink:href="#me85d31e2b2" y="104.802408"/>
     <use style="fill:#ff0000;stroke:#ff0000;" x="209.707636" xlink:href="#me85d31e2b2" y="98.542206"/>
     <use style="fill:#ff0000;stroke:#ff0000;" x="211.872" xlink:href="#me85d31e2b2" y="92.424209"/>
     <use style="fill:#ff0000;stroke:#ff0000;" x="214.171636" xlink:href="#me85d31e2b2" y="86.527421"/>
     <use style="fill:#ff0000;stroke:#ff0000;" x="216.471273" xlink:href="#me85d31e2b2" y="80.608512"/>
     <use style="fill:#ff0000;stroke:#ff0000;" x="218.635636" xlink:href="#me85d31e2b2" y="75.239464"/>
     <use style="fill:#ff0000;stroke:#ff0000;" x="220.935273" xlink:href="#me85d31e2b2" y="70.322314"/>
     <use style="fill:#ff0000;stroke:#ff0000;" x="223.234909" xlink:href="#me85d31e2b2" y="65.721176"/>
     <use style="fill:#ff0000;stroke:#ff0000;" x="225.399273" xlink:href="#me85d31e2b2" y="61.521373"/>
     <use style="fill:#ff0000;stroke:#ff0000;" x="227.698909" xlink:href="#me85d31e2b2" y="57.109842"/>
     <use style="fill:#ff0000;stroke:#ff0000;" x="229.998545" xlink:href="#me85d31e2b2" y="54.752391"/>
     <use style="fill:#ff0000;stroke:#ff0000;" x="232.162909" xlink:href="#me85d31e2b2" y="51.440583"/>
     <use style="fill:#ff0000;stroke:#ff0000;" x="234.462545" xlink:href="#me85d31e2b2" y="48.925126"/>
     <use style="fill:#ff0000;stroke:#ff0000;" x="236.762182" xlink:href="#me85d31e2b2" y="47.010092"/>
     <use style="fill:#ff0000;stroke:#ff0000;" x="238.926545" xlink:href="#me85d31e2b2" y="45.67336"/>
     <use style="fill:#ff0000;stroke:#ff0000;" x="241.226182" xlink:href="#me85d31e2b2" y="45.297305"/>
     <use style="fill:#ff0000;stroke:#ff0000;" x="243.525818" xlink:href="#me85d31e2b2" y="44.64"/>
     <use style="fill:#ff0000;stroke:#ff0000;" x="245.690182" xlink:href="#me85d31e2b2" y="45.303626"/>
     <use style="fill:#ff0000;stroke:#ff0000;" x="247.989818" xlink:href="#me85d31e2b2" y="46.065215"/>
     <use style="fill:#ff0000;stroke:#ff0000;" x="250.289455" xlink:href="#me85d31e2b2" y="47.531512"/>
     <use style="fill:#ff0000;stroke:#ff0000;" x="252.589091" xlink:href="#me85d31e2b2" y="49.358063"/>
     <use style="fill:#ff0000;stroke:#ff0000;" x="254.753455" xlink:href="#me85d31e2b2" y="52.018885"/>
     <use style="fill:#ff0000;stroke:#ff0000;" x="257.053091" xlink:href="#me85d31e2b2" y="55.068403"/>
     <use style="fill:#ff0000;stroke:#ff0000;" x="259.352727" xlink:href="#me85d31e2b2" y="58.693064"/>
     <use style="fill:#ff0000;stroke:#ff0000;" x="261.517091" xlink:href="#me85d31e2b2" y="62.99715"/>
     <use style="fill:#ff0000;stroke:#ff0000;" x="263.816727" xlink:href="#me85d31e2b2" y="67.731013"/>
     <use style="fill:#ff0000;stroke:#ff0000;" x="266.116364" xlink:href="#me85d31e2b2" y="72.657644"/>
     <use style="fill:#ff0000;stroke:#ff0000;" x="268.280727" xlink:href="#me85d31e2b2" y="78.112015"/>
     <use style="fill:#ff0000;stroke:#ff0000;" x="270.580364" xlink:href="#me85d31e2b2" y="83.774954"/>
     <use style="fill:#ff0000;stroke:#ff0000;" x="272.88" xlink:href="#me85d31e2b2" y="89.703344"/>
     <use style="fill:#ff0000;stroke:#ff0000;" x="275.044364" xlink:href="#me85d31e2b2" y="96.004627"/>
     <use style="fill:#ff0000;stroke:#ff0000;" x="277.344" xlink:href="#me85d31e2b2" y="101.111385"/>
     <use style="fill:#ff0000;stroke:#ff0000;" x="279.643636" xlink:href="#me85d31e2b2" y="109.571032"/>
     <use style="fill:#ff0000;stroke:#ff0000;" x="281.808" xlink:href="#me85d31e2b2" y="117.243809"/>
     <use style="fill:#ff0000;stroke:#ff0000;" x="284.107636" xlink:href="#me85d31e2b2" y="124.398326"/>
     <use style="fill:#ff0000;stroke:#ff0000;" x="286.407273" xlink:href="#me85d31e2b2" y="131.590764"/>
     <use style="fill:#ff0000;stroke:#ff0000;" x="288.571636" xlink:href="#me85d31e2b2" y="139.49739"/>
     <use style="fill:#ff0000;stroke:#ff0000;" x="290.871273" xlink:href="#me85d31e2b2" y="146.576064"/>
     <use style="fill:#ff0000;stroke:#ff0000;" x="293.170909" xlink:href="#me85d31e2b2" y="154.665977"/>
     <use style="fill:#ff0000;stroke:#ff0000;" x="295.470545" xlink:href="#me85d31e2b2" y="162.145986"/>
     <use style="fill:#ff0000;stroke:#ff0000;" x="297.634909" xlink:href="#me85d31e2b2" y="169.262582"/>
     <use style="fill:#ff0000;stroke:#ff0000;" x="299.934545" xlink:href="#me85d31e2b2" y="176.609866"/>
     <use style="fill:#ff0000;stroke:#ff0000;" x="302.234182" xlink:href="#me85d31e2b2" y="184.21944"/>
     <use style="fill:#ff0000;stroke:#ff0000;" x="304.398545" xlink:href="#me85d31e2b2" y="190.631328"/>
     <use style="fill:#ff0000;stroke:#ff0000;" x="306.698182" xlink:href="#me85d31e2b2" y="197.64048"/>
     <use style="fill:#ff0000;stroke:#ff0000;" x="308.997818" xlink:href="#me85d31e2b2" y="203.913322"/>
     <use style="fill:#ff0000;stroke:#ff0000;" x="311.162182" xlink:href="#me85d31e2b2" y="210.230407"/>
     <use style="fill:#ff0000;stroke:#ff0000;" x="313.461818" xlink:href="#me85d31e2b2" y="215.059074"/>
     <use style="fill:#ff0000;stroke:#ff0000;" x="315.761455" xlink:href="#me85d31e2b2" y="219.87194"/>
     <use style="fill:#ff0000;stroke:#ff0000;" x="317.925818" xlink:href="#me85d31e2b2" y="224.811211"/>
     <use style="fill:#ff0000;stroke:#ff0000;" x="320.225455" xlink:href="#me85d31e2b2" y="229.339666"/>
     <use style="fill:#ff0000;stroke:#ff0000;" x="322.525091" xlink:href="#me85d31e2b2" y="233.330901"/>
     <use style="fill:#ff0000;stroke:#ff0000;" x="324.689455" xlink:href="#me85d31e2b2" y="236.803875"/>
     <use style="fill:#ff0000;stroke:#ff0000;" x="326.989091" xlink:href="#me85d31e2b2" y="239.736468"/>
     <use style="fill:#ff0000;stroke:#ff0000;" x="329.288727" xlink:href="#me85d31e2b2" y="242.311968"/>
     <use style="fill:#ff0000;stroke:#ff0000;" x="331.453091" xlink:href="#me85d31e2b2" y="244.024754"/>
     <use style="fill:#ff0000;stroke:#ff0000;" x="333.752727" xlink:href="#me85d31e2b2" y="245.096036"/>
     <use style="fill:#ff0000;stroke:#ff0000;" x="336.052364" xlink:href="#me85d31e2b2" y="245.424688"/>
     <use style="fill:#ff0000;stroke:#ff0000;" x="338.216727" xlink:href="#me85d31e2b2" y="245.304604"/>
     <use style="fill:#ff0000;stroke:#ff0000;" x="340.516364" xlink:href="#me85d31e2b2" y="244.893788"/>
     <use style="fill:#ff0000;stroke:#ff0000;" x="342.816" xlink:href="#me85d31e2b2" y="243.91415"/>
     <use style="fill:#ff0000;stroke:#ff0000;" x="345.115636" xlink:href="#me85d31e2b2" y="242.214004"/>
     <use style="fill:#ff0000;stroke:#ff0000;" x="347.28" xlink:href="#me85d31e2b2" y="239.982958"/>
     <use style="fill:#ff0000;stroke:#ff0000;" x="349.579636" xlink:href="#me85d31e2b2" y="237.179929"/>
     <use style="fill:#ff0000;stroke:#ff0000;" x="351.879273" xlink:href="#me85d31e2b2" y="233.729076"/>
     <use style="fill:#ff0000;stroke:#ff0000;" x="354.043636" xlink:href="#me85d31e2b2" y="229.747322"/>
     <use style="fill:#ff0000;stroke:#ff0000;" x="356.343273" xlink:href="#me85d31e2b2" y="225.405314"/>
     <use style="fill:#ff0000;stroke:#ff0000;" x="358.642909" xlink:href="#me85d31e2b2" y="220.497644"/>
     <use style="fill:#ff0000;stroke:#ff0000;" x="360.807273" xlink:href="#me85d31e2b2" y="215.365605"/>
     <use style="fill:#ff0000;stroke:#ff0000;" x="363.106909" xlink:href="#me85d31e2b2" y="209.636304"/>
     <use style="fill:#ff0000;stroke:#ff0000;" x="365.406545" xlink:href="#me85d31e2b2" y="203.932283"/>
     <use style="fill:#ff0000;stroke:#ff0000;" x="367.570909" xlink:href="#me85d31e2b2" y="197.498274"/>
     <use style="fill:#ff0000;stroke:#ff0000;" x="369.870545" xlink:href="#me85d31e2b2" y="191.083226"/>
     <use style="fill:#ff0000;stroke:#ff0000;" x="372.170182" xlink:href="#me85d31e2b2" y="184.175199"/>
     <use style="fill:#ff0000;stroke:#ff0000;" x="374.334545" xlink:href="#me85d31e2b2" y="177.200809"/>
     <use style="fill:#ff0000;stroke:#ff0000;" x="376.634182" xlink:href="#me85d31e2b2" y="170.027331"/>
     <use style="fill:#ff0000;stroke:#ff0000;" x="378.933818" xlink:href="#me85d31e2b2" y="162.778011"/>
     <use style="fill:#ff0000;stroke:#ff0000;" x="381.098182" xlink:href="#me85d31e2b2" y="155.279041"/>
     <use style="fill:#ff0000;stroke:#ff0000;" x="383.397818" xlink:href="#me85d31e2b2" y="147.849593"/>
     <use style="fill:#ff0000;stroke:#ff0000;" x="385.697455" xlink:href="#me85d31e2b2" y="140.356943"/>
     <use style="fill:#ff0000;stroke:#ff0000;" x="387.997091" xlink:href="#me85d31e2b2" y="132.731568"/>
     <use style="fill:#ff0000;stroke:#ff0000;" x="390.161455" xlink:href="#me85d31e2b2" y="125.403245"/>
     <use style="fill:#ff0000;stroke:#ff0000;" x="392.461091" xlink:href="#me85d31e2b2" y="118.248728"/>
     <use style="fill:#ff0000;stroke:#ff0000;" x="394.760727" xlink:href="#me85d31e2b2" y="110.620193"/>
     <use style="fill:#ff0000;stroke:#ff0000;" x="396.925091" xlink:href="#me85d31e2b2" y="104.047138"/>
     <use style="fill:#ff0000;stroke:#ff0000;" x="399.224727" xlink:href="#me85d31e2b2" y="97.467764"/>
     <use style="fill:#ff0000;stroke:#ff0000;" x="401.524364" xlink:href="#me85d31e2b2" y="92.029194"/>
     <use style="fill:#ff0000;stroke:#ff0000;" x="403.688727" xlink:href="#me85d31e2b2" y="86.606424"/>
     <use style="fill:#ff0000;stroke:#ff0000;" x="405.988364" xlink:href="#me85d31e2b2" y="81.066729"/>
     <use style="fill:#ff0000;stroke:#ff0000;" x="408.288" xlink:href="#me85d31e2b2" y="76.652039"/>
     <use style="fill:#ff0000;stroke:#ff0000;" x="410.452364" xlink:href="#me85d31e2b2" y="71.873934"/>
     <use style="fill:#ff0000;stroke:#ff0000;" x="412.752" xlink:href="#me85d31e2b2" y="67.203273"/>
     <use style="fill:#ff0000;stroke:#ff0000;" x="415.051636" xlink:href="#me85d31e2b2" y="64.28648"/>
     <use style="fill:#ff0000;stroke:#ff0000;" x="417.216" xlink:href="#me85d31e2b2" y="60.617578"/>
     <use style="fill:#ff0000;stroke:#ff0000;" x="419.515636" xlink:href="#me85d31e2b2" y="57.226767"/>
     <use style="fill:#ff0000;stroke:#ff0000;" x="421.815273" xlink:href="#me85d31e2b2" y="55.103165"/>
     <use style="fill:#ff0000;stroke:#ff0000;" x="423.979636" xlink:href="#me85d31e2b2" y="53.16285"/>
     <use style="fill:#ff0000;stroke:#ff0000;" x="426.279273" xlink:href="#me85d31e2b2" y="51.143532"/>
     <use style="fill:#ff0000;stroke:#ff0000;" x="428.578909" xlink:href="#me85d31e2b2" y="50.179694"/>
     <use style="fill:#ff0000;stroke:#ff0000;" x="430.878545" xlink:href="#me85d31e2b2" y="49.234818"/>
     <use style="fill:#ff0000;stroke:#ff0000;" x="433.042909" xlink:href="#me85d31e2b2" y="49.437066"/>
     <use style="fill:#ff0000;stroke:#ff0000;" x="435.342545" xlink:href="#me85d31e2b2" y="49.967966"/>
     <use style="fill:#ff0000;stroke:#ff0000;" x="437.642182" xlink:href="#me85d31e2b2" y="51.124571"/>
     <use style="fill:#ff0000;stroke:#ff0000;" x="439.806545" xlink:href="#me85d31e2b2" y="52.483423"/>
     <use style="fill:#ff0000;stroke:#ff0000;" x="442.106182" xlink:href="#me85d31e2b2" y="54.783992"/>
     <use style="fill:#ff0000;stroke:#ff0000;" x="444.405818" xlink:href="#me85d31e2b2" y="57.337371"/>
     <use style="fill:#ff0000;stroke:#ff0000;" x="446.570182" xlink:href="#me85d31e2b2" y="60.187802"/>
     <use style="fill:#ff0000;stroke:#ff0000;" x="448.869818" xlink:href="#me85d31e2b2" y="63.584933"/>
     <use style="fill:#ff0000;stroke:#ff0000;" x="451.169455" xlink:href="#me85d31e2b2" y="67.63621"/>
     <use style="fill:#ff0000;stroke:#ff0000;" x="453.333818" xlink:href="#me85d31e2b2" y="72.174145"/>
     <use style="fill:#ff0000;stroke:#ff0000;" x="455.633455" xlink:href="#me85d31e2b2" y="76.923809"/>
     <use style="fill:#ff0000;stroke:#ff0000;" x="457.933091" xlink:href="#me85d31e2b2" y="82.223334"/>
     <use style="fill:#ff0000;stroke:#ff0000;" x="460.097455" xlink:href="#me85d31e2b2" y="87.731427"/>
     <use style="fill:#ff0000;stroke:#ff0000;" x="462.397091" xlink:href="#me85d31e2b2" y="93.315363"/>
     <use style="fill:#ff0000;stroke:#ff0000;" x="464.696727" xlink:href="#me85d31e2b2" y="99.825215"/>
     <use style="fill:#ff0000;stroke:#ff0000;" x="466.861091" xlink:href="#me85d31e2b2" y="106.309786"/>
     <use style="fill:#ff0000;stroke:#ff0000;" x="469.160727" xlink:href="#me85d31e2b2" y="112.598429"/>
     <use style="fill:#ff0000;stroke:#ff0000;" x="471.460364" xlink:href="#me85d31e2b2" y="119.465375"/>
     <use style="fill:#ff0000;stroke:#ff0000;" x="473.624727" xlink:href="#me85d31e2b2" y="126.683094"/>
     <use style="fill:#ff0000;stroke:#ff0000;" x="475.924364" xlink:href="#me85d31e2b2" y="133.81865"/>
     <use style="fill:#ff0000;stroke:#ff0000;" x="478.224" xlink:href="#me85d31e2b2" y="141.431385"/>
     <use style="fill:#ff0000;stroke:#ff0000;" x="480.523636" xlink:href="#me85d31e2b2" y="149.075721"/>
     <use style="fill:#ff0000;stroke:#ff0000;" x="482.688" xlink:href="#me85d31e2b2" y="156.129114"/>
     <use style="fill:#ff0000;stroke:#ff0000;" x="484.987636" xlink:href="#me85d31e2b2" y="163.403715"/>
     <use style="fill:#ff0000;stroke:#ff0000;" x="487.287273" xlink:href="#me85d31e2b2" y="170.918486"/>
     <use style="fill:#ff0000;stroke:#ff0000;" x="489.451636" xlink:href="#me85d31e2b2" y="178.202568"/>
     <use style="fill:#ff0000;stroke:#ff0000;" x="491.751273" xlink:href="#me85d31e2b2" y="185.208559"/>
     <use style="fill:#ff0000;stroke:#ff0000;" x="494.050909" xlink:href="#me85d31e2b2" y="191.4498"/>
     <use style="fill:#ff0000;stroke:#ff0000;" x="496.215273" xlink:href="#me85d31e2b2" y="198.054456"/>
    </g>
   </g>
   <g id="matplotlib.axis_1">
    <g id="xtick_1">
     <g id="line2d_1">
      <defs>
       <path d="M 0 0 
L 0 3.5 
" id="m21eee5219a" style="stroke:#000000;stroke-width:0.8;"/>
      </defs>
      <g>
       <use style="stroke:#000000;stroke-width:0.8;" x="92.290909" xlink:href="#m21eee5219a" y="256.32"/>
      </g>
     </g>
     <g id="text_1">
      <!-- 0.0 -->
      <g transform="translate(84.339347 270.918437)scale(0.1 -0.1)">
       <defs>
        <path d="M 31.78125 66.40625 
Q 24.171875 66.40625 20.328125 58.90625 
Q 16.5 51.421875 16.5 36.375 
Q 16.5 21.390625 20.328125 13.890625 
Q 24.171875 6.390625 31.78125 6.390625 
Q 39.453125 6.390625 43.28125 13.890625 
Q 47.125 21.390625 47.125 36.375 
Q 47.125 51.421875 43.28125 58.90625 
Q 39.453125 66.40625 31.78125 66.40625 
z
M 31.78125 74.21875 
Q 44.046875 74.21875 50.515625 64.515625 
Q 56.984375 54.828125 56.984375 36.375 
Q 56.984375 17.96875 50.515625 8.265625 
Q 44.046875 -1.421875 31.78125 -1.421875 
Q 19.53125 -1.421875 13.0625 8.265625 
Q 6.59375 17.96875 6.59375 36.375 
Q 6.59375 54.828125 13.0625 64.515625 
Q 19.53125 74.21875 31.78125 74.21875 
z
" id="DejaVuSans-48"/>
        <path d="M 10.6875 12.40625 
L 21 12.40625 
L 21 0 
L 10.6875 0 
z
" id="DejaVuSans-46"/>
       </defs>
       <use xlink:href="#DejaVuSans-48"/>
       <use x="63.623047" xlink:href="#DejaVuSans-46"/>
       <use x="95.410156" xlink:href="#DejaVuSans-48"/>
      </g>
     </g>
    </g>
    <g id="xtick_2">
     <g id="line2d_2">
      <g>
       <use style="stroke:#000000;stroke-width:0.8;" x="159.927273" xlink:href="#m21eee5219a" y="256.32"/>
      </g>
     </g>
     <g id="text_2">
      <!-- 0.5 -->
      <g transform="translate(151.97571 270.918437)scale(0.1 -0.1)">
       <defs>
        <path d="M 10.796875 72.90625 
L 49.515625 72.90625 
L 49.515625 64.59375 
L 19.828125 64.59375 
L 19.828125 46.734375 
Q 21.96875 47.46875 24.109375 47.828125 
Q 26.265625 48.1875 28.421875 48.1875 
Q 40.625 48.1875 47.75 41.5 
Q 54.890625 34.8125 54.890625 23.390625 
Q 54.890625 11.625 47.5625 5.09375 
Q 40.234375 -1.421875 26.90625 -1.421875 
Q 22.3125 -1.421875 17.546875 -0.640625 
Q 12.796875 0.140625 7.71875 1.703125 
L 7.71875 11.625 
Q 12.109375 9.234375 16.796875 8.0625 
Q 21.484375 6.890625 26.703125 6.890625 
Q 35.15625 6.890625 40.078125 11.328125 
Q 45.015625 15.765625 45.015625 23.390625 
Q 45.015625 31 40.078125 35.4375 
Q 35.15625 39.890625 26.703125 39.890625 
Q 22.75 39.890625 18.8125 39.015625 
Q 14.890625 38.140625 10.796875 36.28125 
z
" id="DejaVuSans-53"/>
       </defs>
       <use xlink:href="#DejaVuSans-48"/>
       <use x="63.623047" xlink:href="#DejaVuSans-46"/>
       <use x="95.410156" xlink:href="#DejaVuSans-53"/>
      </g>
     </g>
    </g>
    <g id="xtick_3">
     <g id="line2d_3">
      <g>
       <use style="stroke:#000000;stroke-width:0.8;" x="227.563636" xlink:href="#m21eee5219a" y="256.32"/>
      </g>
     </g>
     <g id="text_3">
      <!-- 1.0 -->
      <g transform="translate(219.612074 270.918437)scale(0.1 -0.1)">
       <defs>
        <path d="M 12.40625 8.296875 
L 28.515625 8.296875 
L 28.515625 63.921875 
L 10.984375 60.40625 
L 10.984375 69.390625 
L 28.421875 72.90625 
L 38.28125 72.90625 
L 38.28125 8.296875 
L 54.390625 8.296875 
L 54.390625 0 
L 12.40625 0 
z
" id="DejaVuSans-49"/>
       </defs>
       <use xlink:href="#DejaVuSans-49"/>
       <use x="63.623047" xlink:href="#DejaVuSans-46"/>
       <use x="95.410156" xlink:href="#DejaVuSans-48"/>
      </g>
     </g>
    </g>
    <g id="xtick_4">
     <g id="line2d_4">
      <g>
       <use style="stroke:#000000;stroke-width:0.8;" x="295.2" xlink:href="#m21eee5219a" y="256.32"/>
      </g>
     </g>
     <g id="text_4">
      <!-- 1.5 -->
      <g transform="translate(287.248438 270.918437)scale(0.1 -0.1)">
       <use xlink:href="#DejaVuSans-49"/>
       <use x="63.623047" xlink:href="#DejaVuSans-46"/>
       <use x="95.410156" xlink:href="#DejaVuSans-53"/>
      </g>
     </g>
    </g>
    <g id="xtick_5">
     <g id="line2d_5">
      <g>
       <use style="stroke:#000000;stroke-width:0.8;" x="362.836364" xlink:href="#m21eee5219a" y="256.32"/>
      </g>
     </g>
     <g id="text_5">
      <!-- 2.0 -->
      <g transform="translate(354.884801 270.918437)scale(0.1 -0.1)">
       <defs>
        <path d="M 19.1875 8.296875 
L 53.609375 8.296875 
L 53.609375 0 
L 7.328125 0 
L 7.328125 8.296875 
Q 12.9375 14.109375 22.625 23.890625 
Q 32.328125 33.6875 34.8125 36.53125 
Q 39.546875 41.84375 41.421875 45.53125 
Q 43.3125 49.21875 43.3125 52.78125 
Q 43.3125 58.59375 39.234375 62.25 
Q 35.15625 65.921875 28.609375 65.921875 
Q 23.96875 65.921875 18.8125 64.3125 
Q 13.671875 62.703125 7.8125 59.421875 
L 7.8125 69.390625 
Q 13.765625 71.78125 18.9375 73 
Q 24.125 74.21875 28.421875 74.21875 
Q 39.75 74.21875 46.484375 68.546875 
Q 53.21875 62.890625 53.21875 53.421875 
Q 53.21875 48.921875 51.53125 44.890625 
Q 49.859375 40.875 45.40625 35.40625 
Q 44.1875 33.984375 37.640625 27.21875 
Q 31.109375 20.453125 19.1875 8.296875 
z
" id="DejaVuSans-50"/>
       </defs>
       <use xlink:href="#DejaVuSans-50"/>
       <use x="63.623047" xlink:href="#DejaVuSans-46"/>
       <use x="95.410156" xlink:href="#DejaVuSans-48"/>
      </g>
     </g>
    </g>
    <g id="xtick_6">
     <g id="line2d_6">
      <g>
       <use style="stroke:#000000;stroke-width:0.8;" x="430.472727" xlink:href="#m21eee5219a" y="256.32"/>
      </g>
     </g>
     <g id="text_6">
      <!-- 2.5 -->
      <g transform="translate(422.521165 270.918437)scale(0.1 -0.1)">
       <use xlink:href="#DejaVuSans-50"/>
       <use x="63.623047" xlink:href="#DejaVuSans-46"/>
       <use x="95.410156" xlink:href="#DejaVuSans-53"/>
      </g>
     </g>
    </g>
    <g id="xtick_7">
     <g id="line2d_7">
      <g>
       <use style="stroke:#000000;stroke-width:0.8;" x="498.109091" xlink:href="#m21eee5219a" y="256.32"/>
      </g>
     </g>
     <g id="text_7">
      <!-- 3.0 -->
      <g transform="translate(490.157528 270.918437)scale(0.1 -0.1)">
       <defs>
        <path d="M 40.578125 39.3125 
Q 47.65625 37.796875 51.625 33 
Q 55.609375 28.21875 55.609375 21.1875 
Q 55.609375 10.40625 48.1875 4.484375 
Q 40.765625 -1.421875 27.09375 -1.421875 
Q 22.515625 -1.421875 17.65625 -0.515625 
Q 12.796875 0.390625 7.625 2.203125 
L 7.625 11.71875 
Q 11.71875 9.328125 16.59375 8.109375 
Q 21.484375 6.890625 26.8125 6.890625 
Q 36.078125 6.890625 40.9375 10.546875 
Q 45.796875 14.203125 45.796875 21.1875 
Q 45.796875 27.640625 41.28125 31.265625 
Q 36.765625 34.90625 28.71875 34.90625 
L 20.21875 34.90625 
L 20.21875 43.015625 
L 29.109375 43.015625 
Q 36.375 43.015625 40.234375 45.921875 
Q 44.09375 48.828125 44.09375 54.296875 
Q 44.09375 59.90625 40.109375 62.90625 
Q 36.140625 65.921875 28.71875 65.921875 
Q 24.65625 65.921875 20.015625 65.03125 
Q 15.375 64.15625 9.8125 62.3125 
L 9.8125 71.09375 
Q 15.4375 72.65625 20.34375 73.4375 
Q 25.25 74.21875 29.59375 74.21875 
Q 40.828125 74.21875 47.359375 69.109375 
Q 53.90625 64.015625 53.90625 55.328125 
Q 53.90625 49.265625 50.4375 45.09375 
Q 46.96875 40.921875 40.578125 39.3125 
z
" id="DejaVuSans-51"/>
       </defs>
       <use xlink:href="#DejaVuSans-51"/>
       <use x="63.623047" xlink:href="#DejaVuSans-46"/>
       <use x="95.410156" xlink:href="#DejaVuSans-48"/>
      </g>
     </g>
    </g>
   </g>
   <g id="matplotlib.axis_2">
    <g id="ytick_1">
     <g id="line2d_8">
      <defs>
       <path d="M 0 0 
L -3.5 0 
" id="m634a269ce1" style="stroke:#000000;stroke-width:0.8;"/>
      </defs>
      <g>
       <use style="stroke:#000000;stroke-width:0.8;" x="72" xlink:href="#m634a269ce1" y="241.379732"/>
      </g>
     </g>
     <g id="text_8">
      <!-- -30 -->
      <g transform="translate(48.667187 245.178951)scale(0.1 -0.1)">
       <defs>
        <path d="M 4.890625 31.390625 
L 31.203125 31.390625 
L 31.203125 23.390625 
L 4.890625 23.390625 
z
" id="DejaVuSans-45"/>
       </defs>
       <use xlink:href="#DejaVuSans-45"/>
       <use x="36.083984" xlink:href="#DejaVuSans-51"/>
       <use x="99.707031" xlink:href="#DejaVuSans-48"/>
      </g>
     </g>
    </g>
    <g id="ytick_2">
     <g id="line2d_9">
      <g>
       <use style="stroke:#000000;stroke-width:0.8;" x="72" xlink:href="#m634a269ce1" y="209.778509"/>
      </g>
     </g>
     <g id="text_9">
      <!-- -20 -->
      <g transform="translate(48.667187 213.577728)scale(0.1 -0.1)">
       <use xlink:href="#DejaVuSans-45"/>
       <use x="36.083984" xlink:href="#DejaVuSans-50"/>
       <use x="99.707031" xlink:href="#DejaVuSans-48"/>
      </g>
     </g>
    </g>
    <g id="ytick_3">
     <g id="line2d_10">
      <g>
       <use style="stroke:#000000;stroke-width:0.8;" x="72" xlink:href="#m634a269ce1" y="178.177287"/>
      </g>
     </g>
     <g id="text_10">
      <!-- -10 -->
      <g transform="translate(48.667187 181.976505)scale(0.1 -0.1)">
       <use xlink:href="#DejaVuSans-45"/>
       <use x="36.083984" xlink:href="#DejaVuSans-49"/>
       <use x="99.707031" xlink:href="#DejaVuSans-48"/>
      </g>
     </g>
    </g>
    <g id="ytick_4">
     <g id="line2d_11">
      <g>
       <use style="stroke:#000000;stroke-width:0.8;" x="72" xlink:href="#m634a269ce1" y="146.576064"/>
      </g>
     </g>
     <g id="text_11">
      <!-- 0 -->
      <g transform="translate(58.6375 150.375283)scale(0.1 -0.1)">
       <use xlink:href="#DejaVuSans-48"/>
      </g>
     </g>
    </g>
    <g id="ytick_5">
     <g id="line2d_12">
      <g>
       <use style="stroke:#000000;stroke-width:0.8;" x="72" xlink:href="#m634a269ce1" y="114.974841"/>
      </g>
     </g>
     <g id="text_12">
      <!-- 10 -->
      <g transform="translate(52.275 118.77406)scale(0.1 -0.1)">
       <use xlink:href="#DejaVuSans-49"/>
       <use x="63.623047" xlink:href="#DejaVuSans-48"/>
      </g>
     </g>
    </g>
    <g id="ytick_6">
     <g id="line2d_13">
      <g>
       <use style="stroke:#000000;stroke-width:0.8;" x="72" xlink:href="#m634a269ce1" y="83.373619"/>
      </g>
     </g>
     <g id="text_13">
      <!-- 20 -->
      <g transform="translate(52.275 87.172837)scale(0.1 -0.1)">
       <use xlink:href="#DejaVuSans-50"/>
       <use x="63.623047" xlink:href="#DejaVuSans-48"/>
      </g>
     </g>
    </g>
    <g id="ytick_7">
     <g id="line2d_14">
      <g>
       <use style="stroke:#000000;stroke-width:0.8;" x="72" xlink:href="#m634a269ce1" y="51.772396"/>
      </g>
     </g>
     <g id="text_14">
      <!-- 30 -->
      <g transform="translate(52.275 55.571615)scale(0.1 -0.1)">
       <use xlink:href="#DejaVuSans-51"/>
       <use x="63.623047" xlink:href="#DejaVuSans-48"/>
      </g>
     </g>
    </g>
   </g>
   <g id="line2d_15">
    <path clip-path="url(#p2eb27caab6)" d="M 92.290909 115.450717 
L 97.719915 132.99884 
L 111.292429 177.344832 
L 115.364184 189.781436 
L 119.435938 201.402365 
L 122.150441 208.590517 
L 124.864944 215.2624 
L 127.579447 221.363585 
L 130.29395 226.844301 
L 133.008452 231.659838 
L 135.722955 235.770913 
L 137.080207 237.551564 
L 138.437458 239.143988 
L 139.79471 240.544935 
L 141.151961 241.751547 
L 142.509213 242.761361 
L 143.866464 243.572318 
L 145.223715 244.182762 
L 146.580967 244.591447 
L 147.938218 244.797541 
L 149.29547 244.800622 
L 150.652721 244.600684 
L 152.009973 244.198136 
L 153.367224 243.593798 
L 154.724476 242.788903 
L 156.081727 241.785094 
L 157.438978 240.58442 
L 158.79623 239.18933 
L 160.153481 237.60267 
L 161.510733 235.827679 
L 164.225236 231.727565 
L 166.939739 226.922436 
L 169.654241 221.451491 
L 172.368744 215.35936 
L 175.083247 208.695741 
L 177.79775 201.514993 
L 181.869504 189.903432 
L 185.941259 177.473957 
L 191.370265 160.024639 
L 206.30003 111.322009 
L 210.371785 98.995461 
L 214.443539 87.518182 
L 217.158042 80.443181 
L 219.872545 73.897297 
L 222.587048 67.93393 
L 225.301551 62.601728 
L 228.016054 57.944188 
L 230.730556 53.999306 
L 232.087808 52.304403 
L 233.445059 50.799263 
L 234.802311 49.486957 
L 236.159562 48.370163 
L 237.516814 47.451161 
L 238.874065 46.731824 
L 240.231317 46.213621 
L 241.588568 45.897609 
L 242.945819 45.784433 
L 244.303071 45.874324 
L 245.660322 46.167098 
L 247.017574 46.662159 
L 248.374825 47.358495 
L 249.732077 48.254687 
L 251.089328 49.348905 
L 252.44658 50.638917 
L 253.803831 52.12209 
L 255.161082 53.795398 
L 257.875585 57.698382 
L 260.590088 62.316029 
L 263.304591 67.610669 
L 266.019094 73.539111 
L 268.733597 80.052991 
L 271.4481 87.099172 
L 274.162603 94.620173 
L 278.234357 106.656814 
L 282.306111 119.402219 
L 289.092369 141.580666 
L 298.593129 172.692755 
L 302.664883 185.368722 
L 306.736637 197.309939 
L 309.45114 204.753734 
L 312.165643 211.712557 
L 314.880146 218.129642 
L 317.594649 223.95264 
L 320.309152 229.134048 
L 323.023655 233.631598 
L 325.738157 237.4086 
L 327.095409 239.01703 
L 328.45266 240.434243 
L 329.809912 241.657346 
L 331.167163 242.683844 
L 332.524415 243.511642 
L 333.881666 244.139051 
L 335.238918 244.564792 
L 336.596169 244.787995 
L 337.95342 244.808204 
L 339.310672 244.62538 
L 340.667923 244.239894 
L 342.025175 243.652533 
L 343.382426 242.864496 
L 344.739678 241.877391 
L 346.096929 240.693232 
L 347.454181 239.314435 
L 348.811432 237.743813 
L 350.168683 235.984571 
L 352.883186 231.914966 
L 355.597689 227.138816 
L 358.312192 221.695085 
L 361.026695 215.62818 
L 363.741198 208.987594 
L 366.455701 201.827499 
L 370.527455 190.242091 
L 374.599209 177.832558 
L 380.028215 160.399552 
L 394.957981 111.678655 
L 399.029735 99.331435 
L 403.10149 87.827322 
L 405.815993 80.731247 
L 408.530496 74.161939 
L 411.244998 68.17299 
L 413.959501 62.813254 
L 416.674004 58.126456 
L 419.388507 54.150829 
L 420.745759 52.440073 
L 422.10301 50.918804 
L 423.460261 49.590125 
L 424.817513 48.456748 
L 426.174764 47.520985 
L 427.532016 46.784745 
L 428.889267 46.249532 
L 430.246519 45.916436 
L 431.60377 45.786137 
L 432.961022 45.858903 
L 434.318273 46.134583 
L 435.675524 46.612615 
L 437.032776 47.292025 
L 438.390027 48.171425 
L 439.747279 49.249022 
L 441.10453 50.522616 
L 442.461782 51.989609 
L 443.819033 53.647007 
L 446.533536 57.519111 
L 449.248039 62.10734 
L 451.962542 67.374266 
L 454.677045 73.276921 
L 457.391548 79.767154 
L 460.10605 86.792019 
L 462.820553 94.29421 
L 466.892308 106.307664 
L 470.964062 119.036285 
L 477.750319 141.201767 
L 487.251079 172.328007 
L 491.322834 185.021325 
L 495.394588 196.986264 
L 498.109091 204.449201 
L 498.109091 204.449201 
" style="fill:none;stroke:#0000ff;stroke-linecap:square;"/>
   </g>
   <g id="patch_3">
    <path d="M 72 256.32 
L 72 34.56 
" style="fill:none;stroke:#000000;stroke-linecap:square;stroke-linejoin:miter;stroke-width:0.8;"/>
   </g>
   <g id="patch_4">
    <path d="M 518.4 256.32 
L 518.4 34.56 
" style="fill:none;stroke:#000000;stroke-linecap:square;stroke-linejoin:miter;stroke-width:0.8;"/>
   </g>
   <g id="patch_5">
    <path d="M 72 256.32 
L 518.4 256.32 
" style="fill:none;stroke:#000000;stroke-linecap:square;stroke-linejoin:miter;stroke-width:0.8;"/>
   </g>
   <g id="patch_6">
    <path d="M 72 34.56 
L 518.4 34.56 
" style="fill:none;stroke:#000000;stroke-linecap:square;stroke-linejoin:miter;stroke-width:0.8;"/>
   </g>
   <g id="text_15">
    <!-- 摩擦振子实验结果及正弦拟合 -->
    <g transform="translate(191.2 28.56)scale(0.16 -0.16)">
     <defs>
      <path d="M 44.140625 -3.125 
Q 52.34375 -3.515625 53.125 -2.53125 
Q 53.90625 -1.5625 53.90625 4.296875 
L 34.375 4.296875 
Q 28.90625 4.296875 21.875 3.90625 
L 21.875 9.765625 
Q 28.515625 9.375 34.375 9.375 
L 53.90625 9.375 
L 53.90625 15.234375 
L 38.671875 15.234375 
Q 32.8125 15.234375 25.78125 14.84375 
L 25.78125 20.703125 
Q 32.8125 20.3125 38.28125 20.3125 
L 53.90625 20.3125 
L 53.90625 26.171875 
L 28.90625 24.609375 
Q 28.515625 26.953125 26.953125 30.46875 
Q 31.640625 29.6875 51.171875 30.859375 
Q 70.703125 32.03125 83.59375 35.546875 
Q 86.328125 30.078125 87.5 28.515625 
Q 82.421875 28.515625 75.390625 27.734375 
Q 68.359375 26.953125 60.546875 26.5625 
L 60.546875 20.3125 
L 74.609375 20.3125 
Q 80.078125 20.3125 88.28125 20.703125 
L 88.28125 14.84375 
Q 80.078125 15.234375 74.609375 15.234375 
L 60.546875 15.234375 
L 60.546875 9.375 
L 79.296875 9.375 
Q 85.546875 9.375 93.75 9.765625 
L 93.75 3.90625 
Q 85.546875 4.296875 79.6875 4.296875 
L 60.546875 4.296875 
L 60.546875 -4.6875 
Q 60.9375 -9.765625 47.265625 -10.9375 
Q 47.265625 -8.59375 44.140625 -3.125 
z
M 3.125 -3.125 
Q 7.421875 3.125 9.953125 9.171875 
Q 12.5 15.234375 13.46875 22.0625 
Q 14.453125 28.90625 14.453125 41.40625 
L 14.453125 60.546875 
Q 14.453125 67.578125 13.671875 74.21875 
L 50.78125 74.21875 
Q 50.390625 77.734375 48.828125 81.25 
Q 54.296875 82.421875 56.25 82.8125 
Q 57.8125 79.296875 58.984375 74.21875 
L 80.46875 74.21875 
Q 88.28125 74.21875 94.53125 74.609375 
L 94.53125 68.359375 
Q 89.453125 68.75 80.46875 68.75 
L 21.09375 68.75 
L 21.09375 44.53125 
Q 21.09375 34.375 20.3125 25.78125 
Q 19.53125 17.1875 17.375 9.375 
Q 15.234375 1.5625 10.15625 -8.203125 
Q 8.984375 -6.25 3.125 -3.125 
z
M 52.34375 38.28125 
Q 57.03125 41.40625 61.328125 46.671875 
Q 65.625 51.953125 67.1875 55.078125 
Q 61.71875 55.078125 57.8125 54.296875 
L 57.8125 60.546875 
Q 61.71875 60.15625 69.921875 60.15625 
L 69.921875 66.796875 
L 76.5625 66.796875 
Q 76.171875 63.28125 76.171875 60.15625 
Q 86.71875 60.15625 91.015625 60.546875 
L 91.015625 54.6875 
Q 87.5 55.078125 79.6875 55.078125 
Q 81.25 51.5625 85.734375 47.265625 
Q 90.234375 42.96875 95.703125 40.625 
Q 93.75 39.0625 90.234375 35.546875 
Q 84.375 39.453125 81.25 43.15625 
Q 78.125 46.875 76.171875 50.78125 
L 76.171875 43.75 
Q 76.171875 41.40625 76.5625 36.71875 
L 69.53125 36.328125 
Q 69.921875 38.671875 69.921875 43.75 
L 69.921875 48.828125 
Q 68.359375 45.703125 65.8125 42.375 
Q 63.28125 39.0625 58.59375 34.375 
Q 57.03125 36.328125 52.34375 38.28125 
z
M 38.671875 33.984375 
Q 39.0625 39.453125 39.0625 43.75 
L 39.0625 50.78125 
Q 36.328125 46.875 34.171875 43.359375 
Q 32.03125 39.84375 28.125 34.765625 
Q 26.5625 35.9375 21.875 38.28125 
Q 26.953125 42.578125 29.875 47.0625 
Q 32.8125 51.5625 34.375 55.078125 
Q 31.25 55.078125 25 54.6875 
L 25 60.546875 
Q 30.859375 60.15625 39.0625 60.15625 
Q 39.0625 62.890625 38.671875 66.796875 
L 45.703125 66.796875 
Q 45.3125 63.28125 45.3125 61.71875 
Q 45.3125 60.15625 46.484375 60.15625 
Q 48.046875 60.15625 53.125 60.546875 
L 53.125 54.6875 
Q 46.875 55.078125 45.3125 55.078125 
L 45.3125 43.75 
Q 45.3125 39.84375 45.703125 33.984375 
z
M 55.46875 46.09375 
Q 52.734375 43.359375 51.953125 42.1875 
Q 50 44.140625 46.09375 48.828125 
Q 47.65625 51.5625 49.21875 52.734375 
Q 54.6875 47.265625 55.46875 46.09375 
z
" id="SimHei-25705"/>
      <path d="M 55.859375 60.9375 
Q 53.515625 59.375 51.171875 56.25 
L 64.453125 56.25 
Q 62.890625 42.96875 54.296875 33.203125 
L 76.171875 33.203125 
Q 66.796875 44.140625 64.0625 62.5 
Q 67.1875 62.890625 70.703125 63.671875 
Q 71.09375 60.9375 71.875 58.203125 
L 91.015625 58.203125 
Q 90.234375 54.6875 88.46875 49.609375 
Q 86.71875 44.53125 83.203125 36.328125 
Q 89.0625 31.25 96.484375 28.125 
Q 94.140625 26.171875 91.796875 21.484375 
Q 82.421875 27.34375 76.5625 32.8125 
L 76.5625 26.953125 
L 53.515625 26.953125 
L 53.515625 32.421875 
Q 46.09375 24.21875 35.15625 17.96875 
Q 32.8125 21.875 30.46875 23.828125 
Q 37.5 26.171875 42.96875 30.859375 
Q 40.625 33.59375 37.109375 35.9375 
Q 39.84375 37.890625 41.40625 40.234375 
Q 44.140625 37.5 47.265625 34.765625 
Q 49.609375 36.71875 51.171875 38.671875 
Q 47.65625 41.40625 43.359375 43.359375 
L 47.265625 48.046875 
Q 51.5625 45.3125 54.296875 43.359375 
Q 56.640625 47.65625 57.03125 50.390625 
L 47.65625 50.390625 
Q 43.359375 44.921875 37.890625 40.234375 
Q 35.546875 42.96875 32.421875 44.921875 
Q 37.890625 48.046875 42.1875 53.703125 
Q 46.484375 59.375 48.4375 64.84375 
Q 51.5625 62.5 55.859375 60.9375 
z
M 16.796875 60.546875 
Q 16.796875 75.390625 16.40625 80.078125 
L 24.609375 80.078125 
Q 23.4375 74.21875 23.828125 60.546875 
Q 27.734375 60.546875 33.203125 60.9375 
L 33.203125 53.90625 
Q 27.734375 54.296875 23.828125 54.296875 
L 23.828125 38.671875 
Q 27.734375 40.234375 32.03125 42.1875 
Q 32.03125 38.28125 32.8125 35.15625 
Q 28.125 33.59375 23.828125 31.640625 
L 23.828125 1.5625 
Q 23.828125 -3.515625 21.875 -5.078125 
Q 19.921875 -6.640625 10.9375 -8.984375 
Q 9.765625 -4.6875 7.421875 -0.390625 
Q 12.5 -0.390625 14.640625 0 
Q 16.796875 0.390625 16.796875 4.296875 
L 16.796875 29.296875 
Q 13.28125 27.734375 7.03125 24.21875 
Q 5.859375 28.125 3.90625 32.03125 
Q 10.9375 33.59375 16.796875 35.9375 
L 16.796875 54.296875 
Q 10.15625 54.296875 5.078125 53.90625 
L 5.078125 60.9375 
Q 10.15625 60.546875 16.796875 60.546875 
z
M 66.40625 81.640625 
Q 67.1875 78.515625 68.359375 73.4375 
L 93.75 73.4375 
Q 93.359375 69.53125 93.359375 66.796875 
Q 93.359375 64.0625 93.75 60.546875 
L 86.71875 60.546875 
L 86.71875 67.1875 
L 42.1875 67.1875 
L 42.1875 59.375 
L 35.15625 59.375 
Q 35.546875 63.671875 35.546875 66.40625 
Q 35.546875 69.53125 35.15625 73.4375 
L 60.15625 73.4375 
Q 59.375 76.953125 58.203125 80.46875 
Q 62.5 80.859375 66.40625 81.640625 
z
M 76.5625 21.09375 
Q 81.640625 21.09375 87.5 21.484375 
L 87.5 14.84375 
Q 81.640625 15.234375 68.75 15.234375 
L 68.75 0 
Q 68.75 -6.25 65.625 -7.609375 
Q 62.5 -8.984375 56.640625 -9.765625 
Q 55.46875 -5.859375 53.515625 -1.953125 
Q 58.59375 -2.34375 60.34375 -1.953125 
Q 62.109375 -1.5625 62.109375 1.953125 
L 62.109375 15.234375 
Q 48.4375 15.234375 41.796875 14.84375 
L 41.796875 21.484375 
Q 48.4375 21.09375 54.296875 21.09375 
z
M 55.078125 7.03125 
Q 52.34375 5.859375 47.0625 1.5625 
Q 41.796875 -2.734375 37.890625 -5.859375 
Q 35.546875 -2.734375 32.421875 -0.390625 
Q 37.109375 1.953125 41.59375 5.46875 
Q 46.09375 8.984375 48.4375 12.5 
Q 51.5625 10.15625 55.078125 7.03125 
z
M 78.125 11.71875 
Q 85.9375 5.078125 93.359375 -1.171875 
Q 90.234375 -3.515625 87.890625 -6.640625 
Q 81.25 0.390625 73.4375 6.640625 
Q 75.78125 8.984375 78.125 11.71875 
z
M 78.515625 40.625 
Q 80.46875 44.53125 82.8125 52.34375 
L 72.65625 52.34375 
Q 75 44.140625 78.515625 40.625 
z
" id="SimHei-25830"/>
      <path d="M 51.171875 -3.125 
Q 53.125 -1.5625 53.703125 0.578125 
Q 54.296875 2.734375 54.296875 7.8125 
L 54.296875 35.9375 
L 47.265625 35.9375 
Q 46.875 28.125 46.09375 21.484375 
Q 45.3125 14.84375 43.75 9.375 
Q 42.1875 3.90625 40.234375 -0.578125 
Q 38.28125 -5.078125 36.328125 -9.765625 
Q 33.984375 -7.421875 28.515625 -5.46875 
Q 33.59375 -0.390625 35.9375 6.4375 
Q 38.28125 13.28125 39.0625 21.09375 
Q 39.84375 28.90625 40.03125 38.078125 
Q 40.234375 47.265625 40.234375 56.640625 
Q 40.234375 66.40625 39.453125 75.390625 
L 80.46875 75.390625 
Q 85.546875 75.390625 91.015625 75.78125 
L 91.015625 68.359375 
Q 84.375 68.75 81.640625 68.75 
L 47.265625 68.75 
L 47.265625 42.1875 
L 83.984375 42.1875 
Q 87.5 42.1875 93.359375 42.578125 
L 93.359375 35.546875 
Q 91.40625 35.9375 85.546875 35.9375 
L 73.046875 35.9375 
Q 74.609375 25 76.953125 19.921875 
Q 80.078125 22.65625 82.21875 24.796875 
Q 84.375 26.953125 86.71875 30.859375 
Q 88.28125 27.734375 92.1875 24.609375 
Q 89.84375 23.4375 87.109375 20.890625 
Q 84.375 18.359375 80.078125 13.671875 
Q 81.640625 10.15625 85.9375 5.65625 
Q 90.234375 1.171875 96.484375 -1.171875 
Q 91.796875 -3.90625 90.234375 -8.203125 
Q 82.8125 -2.734375 79.296875 1.5625 
Q 75.78125 5.859375 73.234375 10.734375 
Q 70.703125 15.625 68.9375 21.671875 
Q 67.1875 27.734375 66.40625 35.9375 
L 61.71875 35.9375 
L 61.71875 2.34375 
Q 66.40625 4.6875 71.484375 7.421875 
Q 72.265625 5.078125 74.21875 0.78125 
Q 71.484375 -0.390625 66.203125 -3.3125 
Q 60.9375 -6.25 56.25 -10.15625 
Q 54.6875 -7.03125 51.171875 -3.125 
z
M 3.90625 31.25 
Q 8.59375 32.421875 11.328125 33.203125 
L 17.96875 35.546875 
L 17.96875 52.34375 
Q 10.546875 52.34375 5.078125 51.953125 
L 5.078125 59.375 
Q 10.15625 58.984375 17.96875 58.984375 
L 17.96875 70.3125 
Q 17.96875 75.78125 17.578125 80.46875 
L 26.171875 80.46875 
Q 25.78125 76.171875 25.78125 70.3125 
L 25.78125 58.984375 
Q 29.296875 58.984375 35.9375 59.375 
L 35.9375 51.953125 
Q 29.6875 52.34375 25.78125 52.34375 
L 25.78125 37.890625 
Q 31.25 39.84375 35.15625 41.796875 
Q 35.15625 38.671875 35.546875 35.15625 
Q 32.8125 34.375 25.78125 31.25 
L 25.78125 1.5625 
Q 25 -3.90625 22.65625 -5.65625 
Q 20.3125 -7.421875 11.328125 -8.203125 
Q 10.9375 -5.078125 9.375 0.390625 
Q 13.28125 0 15.625 0 
Q 17.96875 0 17.96875 4.6875 
L 17.96875 28.125 
Q 15.234375 26.953125 13.28125 25.96875 
Q 11.328125 25 7.421875 22.65625 
Q 6.640625 26.171875 3.90625 31.25 
z
M 77.34375 58.984375 
Q 82.421875 58.984375 87.5 59.375 
L 87.5 51.953125 
Q 82.421875 52.34375 78.125 52.34375 
L 62.5 52.34375 
Q 58.203125 52.34375 52.734375 51.953125 
L 52.734375 59.375 
Q 57.8125 58.984375 62.5 58.984375 
z
" id="SimHei-25391"/>
      <path d="M 32.421875 0.390625 
Q 41.40625 0 43.75 0.96875 
Q 46.09375 1.953125 46.09375 5.859375 
L 46.09375 34.375 
L 18.359375 34.375 
Q 12.890625 34.375 5.46875 33.984375 
L 5.46875 41.015625 
Q 12.890625 40.625 18.359375 40.625 
L 46.09375 40.625 
Q 46.09375 46.875 45.703125 54.6875 
Q 51.171875 57.03125 56.828125 60.546875 
Q 62.5 64.0625 69.921875 68.75 
L 30.078125 68.75 
Q 21.875 68.75 15.625 68.359375 
L 15.625 75.390625 
Q 23.828125 75 29.296875 75 
L 84.375 75 
L 84.375 67.96875 
Q 78.515625 65.625 71.484375 61.71875 
Q 64.453125 57.8125 53.90625 50.78125 
L 53.90625 40.625 
L 80.078125 40.625 
Q 86.71875 40.625 94.921875 41.40625 
L 94.921875 34.375 
Q 86.71875 34.765625 80.078125 34.375 
L 53.90625 34.375 
L 53.90625 3.125 
Q 53.90625 -4.6875 49.40625 -6.25 
Q 44.921875 -7.8125 35.9375 -8.59375 
Q 35.15625 -4.296875 32.421875 0.390625 
z
" id="SimHei-23376"/>
      <path d="M 64.453125 54.6875 
Q 63.28125 50 62.5 41.796875 
Q 61.71875 33.59375 60.15625 24.21875 
L 78.515625 24.21875 
Q 85.546875 24.21875 93.359375 24.609375 
L 93.359375 17.1875 
Q 85.15625 17.578125 78.125 17.578125 
L 58.203125 17.578125 
Q 54.6875 9.765625 47.65625 3.90625 
Q 40.625 -1.953125 31.25 -5.265625 
Q 21.875 -8.59375 14.453125 -10.546875 
Q 12.890625 -5.859375 7.8125 -3.125 
Q 19.140625 -1.953125 32.03125 3.3125 
Q 44.921875 8.59375 50 17.578125 
L 22.265625 17.578125 
Q 15.234375 17.578125 6.640625 17.1875 
L 6.640625 24.609375 
Q 15.625 24.21875 22.265625 24.21875 
L 52.734375 24.21875 
Q 53.90625 30.859375 54.484375 38.46875 
Q 55.078125 46.09375 54.6875 57.03125 
Q 59.375 55.46875 64.453125 54.6875 
z
M 50.78125 82.03125 
Q 53.90625 75.78125 56.25 68.359375 
L 90.234375 68.359375 
Q 89.84375 64.0625 89.84375 59.765625 
Q 89.84375 55.859375 90.234375 51.171875 
L 81.25 51.171875 
L 81.25 62.109375 
L 19.140625 62.109375 
L 19.140625 50.390625 
L 10.546875 50.390625 
Q 10.9375 55.078125 10.9375 59.375 
Q 10.9375 64.0625 10.546875 68.359375 
L 46.484375 68.359375 
Q 45.3125 73.046875 42.1875 79.296875 
Q 45.3125 80.46875 50.78125 82.03125 
z
M 62.5 12.890625 
Q 71.09375 8.203125 78.90625 4.09375 
Q 86.71875 0 92.578125 -3.515625 
Q 89.84375 -6.640625 86.71875 -10.15625 
Q 79.6875 -5.078125 71.484375 -0.578125 
Q 63.28125 3.90625 57.421875 6.25 
Q 60.546875 10.15625 62.5 12.890625 
z
M 18.359375 42.96875 
Q 25 39.84375 36.71875 32.03125 
Q 35.15625 29.6875 32.03125 25.78125 
Q 21.09375 33.984375 14.453125 36.71875 
Q 16.796875 39.0625 18.359375 42.96875 
z
M 49.21875 44.140625 
Q 46.484375 41.015625 44.53125 37.890625 
Q 32.03125 46.875 26.171875 48.828125 
Q 28.125 51.5625 30.46875 55.078125 
z
" id="SimHei-23454"/>
      <path d="M 35.9375 73.828125 
Q 35.15625 70.3125 34.765625 63.671875 
L 32.03125 33.203125 
L 39.453125 33.203125 
Q 39.0625 30.078125 38.671875 22.65625 
L 37.109375 1.171875 
Q 37.109375 -7.03125 32.421875 -8.203125 
Q 27.734375 -9.375 19.53125 -10.546875 
Q 18.359375 -5.078125 16.40625 -1.5625 
Q 24.609375 -1.5625 27.140625 -1.359375 
Q 29.6875 -1.171875 30.46875 2.34375 
L 31.640625 26.5625 
L 8.59375 26.5625 
Q 8.984375 33.984375 9.171875 42.765625 
Q 9.375 51.5625 9.375 59.375 
L 17.1875 59.375 
Q 16.40625 55.078125 16.015625 48.234375 
Q 15.625 41.40625 15.625 33.203125 
L 25.390625 33.203125 
L 28.125 67.578125 
L 17.578125 67.578125 
Q 11.328125 67.578125 5.46875 67.1875 
L 5.46875 74.21875 
Q 11.328125 73.828125 17.578125 73.828125 
z
M 67.578125 76.171875 
Q 73.828125 64.453125 80.46875 58.984375 
Q 87.109375 53.515625 96.09375 50.390625 
Q 92.578125 47.265625 90.625 42.578125 
Q 85.15625 45.703125 80.078125 50 
L 80.078125 43.359375 
Q 75 43.75 65.625 43.75 
Q 56.25 43.75 50.390625 43.359375 
L 50.390625 49.609375 
Q 48.046875 46.484375 43.75 41.40625 
Q 40.234375 44.921875 36.328125 46.875 
Q 42.578125 51.171875 45.890625 55.46875 
Q 49.21875 59.765625 51.75 64.453125 
Q 54.296875 69.140625 56.046875 73.046875 
Q 57.8125 76.953125 58.984375 81.640625 
Q 64.0625 80.46875 69.53125 79.296875 
z
M 87.5 33.59375 
Q 85.546875 31.25 84.375 27.140625 
Q 83.203125 23.046875 80.65625 14.25 
Q 78.125 5.46875 76.5625 0.390625 
L 82.03125 0.390625 
Q 84.765625 0.390625 90.625 0.78125 
L 90.625 -6.25 
Q 85.546875 -5.859375 82.03125 -5.859375 
L 51.953125 -5.859375 
Q 44.921875 -5.859375 41.796875 -6.25 
L 41.796875 0.78125 
Q 46.484375 0.390625 52.34375 0.390625 
L 69.921875 0.390625 
Q 73.046875 8.984375 75 17.96875 
L 78.90625 35.9375 
Q 82.03125 34.765625 87.5 33.59375 
z
M 79.6875 50.390625 
Q 75 53.90625 71.09375 58.984375 
Q 67.1875 64.0625 63.28125 71.875 
Q 60.15625 65.625 57.609375 61.125 
Q 55.078125 56.640625 50.78125 50.390625 
z
M 50.78125 33.984375 
Q 52.34375 28.515625 54.09375 21.484375 
Q 55.859375 14.453125 57.421875 8.59375 
Q 53.90625 8.203125 50.78125 6.640625 
Q 49.609375 14.0625 48.234375 19.140625 
Q 46.875 24.21875 44.53125 32.03125 
Q 47.65625 33.203125 50.78125 33.984375 
z
M 27.734375 17.578125 
Q 27.34375 14.84375 26.953125 10.9375 
Q 21.09375 9.765625 17.375 8.984375 
Q 13.671875 8.203125 5.859375 5.859375 
Q 4.6875 10.15625 3.125 14.453125 
Q 8.59375 14.84375 14.453125 15.625 
Q 20.3125 16.40625 27.734375 17.578125 
z
M 67.1875 25.78125 
Q 67.96875 20.703125 69.140625 12.890625 
L 62.890625 11.328125 
Q 61.328125 19.921875 60.546875 24.40625 
Q 59.765625 28.90625 58.59375 34.765625 
Q 62.109375 35.546875 65.625 35.9375 
z
" id="SimHei-39564"/>
      <path d="M 89.453125 30.078125 
Q 89.0625 25 89.0625 18.75 
L 89.0625 5.46875 
Q 89.0625 -1.953125 89.453125 -7.421875 
L 81.640625 -7.421875 
L 81.640625 0 
L 55.078125 0 
L 55.078125 -8.203125 
L 47.265625 -8.203125 
Q 47.65625 1.953125 47.65625 5.078125 
L 47.65625 19.53125 
Q 47.65625 24.21875 47.265625 30.078125 
L 89.453125 30.078125 
z
M 29.6875 75.78125 
Q 26.5625 71.875 23.046875 65.625 
Q 19.53125 59.375 14.453125 50 
Q 23.046875 50.390625 26.953125 50.390625 
Q 30.46875 56.640625 32.8125 62.5 
Q 36.71875 59.765625 41.40625 57.421875 
Q 39.453125 55.859375 34.5625 48.828125 
Q 29.6875 41.796875 19.140625 25.78125 
Q 32.03125 27.734375 39.453125 28.90625 
Q 38.28125 24.609375 38.28125 21.484375 
Q 34.765625 21.09375 25.78125 19.921875 
Q 16.796875 18.75 8.203125 16.40625 
Q 6.640625 20.3125 5.46875 24.21875 
Q 10.15625 25.390625 14.84375 31.4375 
Q 19.53125 37.5 23.046875 44.140625 
Q 20.3125 44.140625 15.03125 43.546875 
Q 9.765625 42.96875 5.859375 41.796875 
Q 4.6875 45.703125 3.515625 49.21875 
Q 7.8125 52.734375 12.6875 61.328125 
Q 17.578125 69.921875 20.3125 80.078125 
Q 25 77.734375 29.6875 75.78125 
z
M 63.671875 65.234375 
Q 63.671875 71.875 63.28125 80.859375 
L 71.484375 80.859375 
Q 71.09375 73.828125 71.09375 65.234375 
L 82.421875 65.234375 
Q 89.84375 65.234375 96.09375 65.625 
L 96.09375 58.59375 
Q 89.84375 58.984375 82.8125 58.984375 
L 71.09375 58.984375 
L 71.09375 46.09375 
L 80.078125 46.09375 
Q 85.546875 46.09375 91.015625 46.484375 
L 91.015625 39.453125 
Q 86.328125 39.84375 79.6875 39.84375 
L 57.03125 39.84375 
Q 50.390625 39.84375 45.3125 39.453125 
L 45.3125 46.484375 
Q 50.390625 46.09375 56.25 46.09375 
L 63.671875 46.09375 
L 63.671875 58.984375 
L 55.078125 58.984375 
Q 48.046875 58.984375 41.796875 58.59375 
L 41.796875 65.625 
Q 46.875 65.234375 54.296875 65.234375 
z
M 81.640625 6.25 
L 81.640625 23.828125 
L 55.078125 23.828125 
L 55.078125 6.25 
z
M 40.234375 10.15625 
Q 39.0625 6.640625 39.453125 2.734375 
Q 32.03125 1.5625 22.65625 0 
Q 13.28125 -1.5625 6.640625 -3.515625 
Q 5.078125 1.5625 3.515625 5.46875 
Q 11.71875 5.859375 18.359375 6.828125 
Q 25 7.8125 40.234375 10.15625 
z
" id="SimHei-32467"/>
      <path d="M 46.484375 -8.203125 
Q 46.875 -1.171875 46.875 8.984375 
L 46.875 25 
L 45.3125 25 
Q 42.578125 19.921875 39.0625 15.625 
Q 35.546875 11.328125 31.046875 8 
Q 26.5625 4.6875 21.28125 1.5625 
Q 16.015625 -1.5625 10.546875 -3.90625 
Q 8.984375 0.390625 6.25 4.296875 
Q 10.9375 5.46875 15.234375 7.609375 
Q 19.53125 9.765625 23.828125 12.296875 
Q 28.125 14.84375 31.25 17.96875 
Q 34.375 21.09375 37.109375 25 
L 21.484375 25 
Q 15.625 25 7.03125 24.21875 
L 7.03125 32.03125 
Q 14.84375 31.25 21.484375 31.25 
L 46.875 31.25 
L 46.875 38.28125 
L 17.96875 38.28125 
Q 18.359375 47.65625 18.359375 58.984375 
Q 18.359375 70.3125 17.96875 78.125 
L 83.203125 78.125 
Q 82.8125 70.3125 82.8125 58.984375 
Q 82.8125 47.65625 83.203125 38.28125 
L 54.296875 38.28125 
L 54.296875 31.25 
L 78.90625 31.25 
Q 86.71875 31.25 92.578125 31.640625 
L 92.578125 24.21875 
Q 85.9375 25 79.6875 25 
L 64.453125 25 
Q 69.53125 16.796875 76.953125 12.5 
Q 84.375 8.203125 94.53125 5.859375 
Q 91.796875 2.34375 90.234375 -2.734375 
Q 76.953125 2.34375 69.140625 8.59375 
Q 61.328125 14.84375 57.421875 25 
L 54.296875 25 
L 54.296875 8.59375 
Q 54.296875 0 54.6875 -8.203125 
z
M 75.390625 60.546875 
L 75.390625 72.265625 
L 54.296875 72.265625 
L 54.296875 60.546875 
z
M 46.875 60.546875 
L 46.875 72.265625 
L 26.171875 72.265625 
L 26.171875 60.546875 
z
M 75.390625 44.140625 
L 75.390625 54.6875 
L 54.296875 54.6875 
L 54.296875 44.140625 
z
M 46.875 44.140625 
L 46.875 54.6875 
L 26.171875 54.6875 
L 26.171875 44.140625 
z
" id="SimHei-26524"/>
      <path d="M 80.46875 75 
Q 78.125 70.703125 74.40625 63.078125 
Q 70.703125 55.46875 66.796875 48.828125 
L 85.546875 48.828125 
Q 80.078125 32.8125 75.578125 25.1875 
Q 71.09375 17.578125 66.40625 12.109375 
Q 70.703125 8.984375 79.09375 5.46875 
Q 87.5 1.953125 96.09375 0 
Q 91.796875 -4.6875 90.625 -8.203125 
Q 76.171875 -3.515625 60.9375 7.03125 
Q 52.734375 0.78125 44.328125 -2.53125 
Q 35.9375 -5.859375 26.171875 -8.59375 
Q 25.390625 -6.640625 21.484375 -1.953125 
Q 43.75 2.734375 55.078125 11.71875 
Q 49.609375 17.578125 44.53125 24.796875 
Q 39.453125 32.03125 35.546875 39.0625 
Q 33.984375 32.421875 31.640625 26.359375 
Q 29.296875 20.3125 26.359375 15.03125 
Q 23.4375 9.765625 19.921875 5.265625 
Q 16.40625 0.78125 9.765625 -6.25 
Q 7.8125 -3.515625 3.90625 0.390625 
Q 13.671875 7.8125 19.53125 17.96875 
Q 25.390625 28.125 27.734375 37.296875 
Q 30.078125 46.484375 31.046875 54.875 
Q 32.03125 63.28125 32.03125 68.75 
L 27.34375 68.75 
Q 21.484375 68.75 14.453125 68.359375 
L 14.453125 75.390625 
Q 21.484375 75 27.34375 75 
z
M 37.5 48.828125 
Q 41.015625 41.796875 48.4375 31.25 
Q 55.859375 20.703125 60.546875 16.796875 
Q 64.0625 20.3125 67.96875 26.75 
Q 71.875 33.203125 75.390625 42.578125 
L 55.078125 42.578125 
Q 57.8125 46.875 60.9375 52.921875 
Q 64.0625 58.984375 68.359375 68.75 
L 39.453125 68.75 
Q 39.0625 62.5 37.5 48.828125 
z
" id="SimHei-21450"/>
      <path d="M 75.390625 72.265625 
Q 82.8125 72.265625 88.671875 72.65625 
L 88.671875 64.84375 
Q 82.8125 65.234375 74.609375 65.234375 
L 55.859375 65.234375 
L 55.859375 40.625 
L 75.78125 40.625 
Q 82.03125 40.625 86.71875 41.015625 
L 86.71875 33.59375 
Q 82.03125 33.984375 75.78125 33.984375 
L 55.859375 33.984375 
L 55.859375 2.34375 
L 75.78125 2.34375 
Q 83.984375 2.34375 92.1875 2.734375 
L 92.1875 -5.078125 
Q 83.984375 -4.6875 77.734375 -4.6875 
L 18.359375 -4.6875 
Q 10.9375 -4.6875 5.859375 -5.078125 
L 5.859375 2.734375 
Q 10.9375 2.34375 18.359375 2.34375 
L 20.703125 2.34375 
L 20.703125 36.71875 
Q 20.703125 43.75 20.3125 48.828125 
L 29.296875 48.828125 
Q 28.90625 44.140625 28.90625 36.71875 
L 28.90625 2.34375 
L 48.046875 2.34375 
L 48.046875 65.234375 
L 25.390625 65.234375 
Q 17.96875 65.234375 12.5 64.84375 
L 12.5 72.65625 
Q 17.96875 72.265625 25.390625 72.265625 
z
" id="SimHei-27491"/>
      <path d="M 78.515625 67.578125 
Q 87.109375 67.578125 94.53125 67.96875 
L 94.53125 61.328125 
Q 86.328125 62.109375 78.515625 62.109375 
L 60.15625 62.109375 
Q 62.5 59.765625 66.40625 57.421875 
Q 62.890625 55.46875 50 33.59375 
Q 57.03125 33.59375 69.140625 33.984375 
Q 75.390625 41.40625 77.34375 48.046875 
Q 81.25 45.703125 85.9375 43.359375 
Q 79.6875 36.328125 71.09375 24.796875 
Q 62.5 13.28125 53.125 3.125 
Q 59.765625 3.515625 83.203125 5.078125 
Q 80.859375 11.71875 78.125 16.40625 
Q 81.640625 17.578125 85.546875 19.140625 
Q 91.40625 5.078125 95.3125 -5.859375 
Q 93.359375 -6.640625 87.5 -8.59375 
Q 86.328125 -5.078125 84.765625 -0.78125 
Q 69.53125 -1.5625 58.984375 -2.734375 
Q 48.4375 -3.90625 42.96875 -5.859375 
L 40.234375 2.34375 
Q 44.53125 3.90625 51.171875 9.953125 
Q 57.8125 16.015625 65.234375 27.734375 
Q 61.328125 27.734375 55.078125 27.140625 
Q 48.828125 26.5625 42.96875 25 
L 40.234375 33.984375 
Q 44.921875 35.546875 50.390625 45.109375 
Q 55.859375 54.6875 57.8125 62.109375 
Q 47.265625 62.109375 39.84375 61.328125 
L 39.84375 67.96875 
Q 47.265625 67.578125 54.6875 67.578125 
z
M 14.84375 -9.375 
Q 14.0625 -5.078125 11.71875 -0.390625 
Q 21.09375 -1.171875 22.84375 0 
Q 24.609375 1.171875 25.390625 4.6875 
Q 26.171875 8.203125 26.953125 26.5625 
L 6.640625 26.5625 
Q 8.203125 40.234375 8.203125 53.515625 
L 26.953125 53.515625 
L 26.953125 68.359375 
L 17.96875 68.359375 
Q 11.71875 68.359375 5.859375 67.96875 
L 5.859375 75 
Q 11.71875 74.609375 17.578125 74.609375 
L 34.765625 74.609375 
Q 34.375 67.1875 34.171875 60.9375 
Q 33.984375 54.6875 34.375 47.265625 
L 14.84375 47.265625 
L 14.0625 32.8125 
L 34.765625 32.8125 
Q 33.984375 25 33.203125 13.28125 
Q 32.421875 1.5625 31.25 -1.75 
Q 30.078125 -5.078125 26.953125 -6.4375 
Q 23.828125 -7.8125 14.84375 -9.375 
z
M 68.359375 82.03125 
Q 69.921875 76.5625 71.875 70.3125 
Q 67.96875 69.53125 64.0625 67.96875 
Q 62.890625 74.21875 60.15625 79.6875 
Q 64.453125 80.078125 68.359375 82.03125 
z
" id="SimHei-24358"/>
      <path d="M 26.171875 1.953125 
Q 26.171875 -2.734375 23.4375 -4.296875 
Q 20.703125 -5.859375 12.5 -7.8125 
Q 11.71875 -3.515625 8.984375 0 
Q 19.140625 0.390625 19.140625 4.296875 
L 19.140625 29.296875 
Q 10.9375 25.390625 7.421875 23.4375 
Q 5.859375 28.125 3.90625 30.859375 
Q 8.203125 32.03125 19.140625 36.328125 
L 19.140625 55.46875 
Q 11.328125 55.46875 5.46875 55.078125 
L 5.46875 62.5 
Q 10.9375 61.71875 19.140625 61.71875 
Q 19.140625 72.265625 18.75 81.640625 
L 26.953125 81.640625 
Q 26.171875 71.09375 26.171875 61.71875 
Q 31.640625 61.71875 36.328125 62.109375 
L 36.328125 55.078125 
Q 30.859375 55.46875 26.171875 55.46875 
L 26.171875 38.671875 
Q 33.59375 41.796875 35.9375 43.75 
Q 35.9375 39.84375 36.328125 36.328125 
Q 33.203125 35.15625 26.171875 32.03125 
z
M 77.34375 78.90625 
Q 82.421875 78.515625 85.9375 78.125 
Q 84.765625 72.65625 85.15625 52.140625 
Q 85.546875 31.640625 82.03125 19.921875 
Q 91.40625 8.59375 96.875 -0.78125 
Q 93.359375 -3.515625 90.234375 -6.25 
Q 86.328125 1.5625 78.90625 12.5 
Q 75 7.03125 69.328125 1.75 
Q 63.671875 -3.515625 51.953125 -10.15625 
Q 49.609375 -7.03125 45.703125 -3.90625 
Q 53.515625 -0.390625 60.9375 5.078125 
Q 68.359375 10.546875 72.0625 16.40625 
Q 75.78125 22.265625 76.953125 33.59375 
Q 78.125 44.921875 77.34375 78.90625 
z
M 39.0625 10.9375 
Q 41.796875 13.671875 41.796875 18.75 
L 41.796875 54.296875 
Q 41.796875 61.328125 41.40625 68.75 
L 49.609375 68.75 
Q 48.828125 62.109375 48.828125 54.6875 
L 48.828125 18.359375 
Q 58.984375 28.90625 63.28125 34.375 
Q 64.84375 30.078125 67.1875 26.953125 
Q 62.890625 23.4375 45.3125 4.6875 
L 39.0625 10.9375 
z
M 59.375 79.6875 
Q 68.359375 62.890625 71.484375 55.46875 
Q 66.40625 53.125 64.0625 51.5625 
Q 60.15625 60.546875 52.734375 76.171875 
Q 55.859375 77.34375 59.375 79.6875 
z
" id="SimHei-25311"/>
      <path d="M 78.90625 28.125 
Q 78.515625 24.21875 78.515625 10.15625 
Q 78.515625 -3.90625 78.90625 -8.203125 
L 70.703125 -8.203125 
L 70.703125 -0.78125 
L 27.34375 -0.78125 
L 27.34375 -9.375 
L 19.53125 -9.375 
Q 19.921875 -4.6875 19.921875 8.59375 
Q 19.921875 22.265625 19.53125 28.125 
L 78.90625 28.125 
z
M 52.734375 75 
Q 64.0625 61.328125 71.09375 56.25 
Q 78.125 51.171875 83.984375 48.4375 
Q 89.84375 45.703125 95.3125 44.140625 
Q 91.40625 39.84375 90.234375 35.9375 
Q 82.421875 39.453125 76.171875 43.359375 
Q 69.921875 47.265625 63.46875 53.3125 
Q 57.03125 59.375 48.828125 69.921875 
Q 41.40625 59.375 34.171875 52.53125 
Q 26.953125 45.703125 21.875 41.796875 
Q 16.796875 37.890625 10.546875 33.984375 
Q 9.765625 35.546875 4.296875 40.234375 
Q 12.5 44.140625 19.921875 49.609375 
Q 27.34375 55.078125 34.765625 63.46875 
Q 42.1875 71.875 46.875 81.640625 
Q 51.171875 78.90625 54.6875 77.34375 
z
M 70.703125 5.46875 
L 70.703125 21.875 
L 27.34375 21.875 
L 27.34375 5.46875 
z
M 61.328125 44.140625 
Q 67.578125 44.140625 72.265625 44.53125 
L 72.265625 37.109375 
Q 67.1875 37.5 61.71875 37.5 
L 39.84375 37.5 
Q 31.640625 37.5 26.5625 37.109375 
L 26.5625 44.53125 
Q 33.984375 44.140625 39.84375 44.140625 
z
" id="SimHei-21512"/>
     </defs>
     <use xlink:href="#SimHei-25705"/>
     <use x="100" xlink:href="#SimHei-25830"/>
     <use x="200" xlink:href="#SimHei-25391"/>
     <use x="300" xlink:href="#SimHei-23376"/>
     <use x="400" xlink:href="#SimHei-23454"/>
     <use x="500" xlink:href="#SimHei-39564"/>
     <use x="600" xlink:href="#SimHei-32467"/>
     <use x="700" xlink:href="#SimHei-26524"/>
     <use x="800" xlink:href="#SimHei-21450"/>
     <use x="900" xlink:href="#SimHei-27491"/>
     <use x="1000" xlink:href="#SimHei-24358"/>
     <use x="1100" xlink:href="#SimHei-25311"/>
     <use x="1200" xlink:href="#SimHei-21512"/>
    </g>
   </g>
   <g id="legend_1">
    <g id="patch_7">
     <path d="M 79 71.15375 
L 151 71.15375 
Q 153 71.15375 153 69.15375 
L 153 41.56 
Q 153 39.56 151 39.56 
L 79 39.56 
Q 77 39.56 77 41.56 
L 77 69.15375 
Q 77 71.15375 79 71.15375 
z
" style="fill:#ffffff;opacity:0.8;stroke:#cccccc;stroke-linejoin:miter;"/>
    </g>
    <g id="line2d_16">
     <path d="M 81 48.145938 
L 101 48.145938 
" style="fill:none;stroke:#0000ff;stroke-linecap:square;"/>
    </g>
    <g id="line2d_17"/>
    <g id="text_16">
     <!-- 拟合曲线 -->
     <g transform="translate(109 51.645938)scale(0.1 -0.1)">
      <defs>
       <path d="M 91.015625 7.8125 
Q 91.015625 -3.125 91.40625 -8.59375 
L 82.421875 -8.59375 
L 82.421875 -0.78125 
L 17.96875 -0.78125 
L 17.96875 -8.59375 
L 8.984375 -8.59375 
Q 9.375 1.953125 9.375 8.59375 
L 9.375 43.359375 
Q 9.375 53.515625 8.984375 60.9375 
L 33.59375 60.9375 
L 33.59375 69.53125 
Q 33.203125 75.78125 33.203125 80.46875 
L 42.1875 80.46875 
Q 41.40625 75.390625 41.40625 69.921875 
L 41.40625 60.9375 
L 57.8125 60.9375 
L 57.8125 70.703125 
Q 57.8125 75.78125 57.421875 80.859375 
L 66.40625 80.859375 
Q 66.015625 76.171875 66.015625 71.09375 
L 66.015625 60.9375 
L 91.40625 60.9375 
Q 91.015625 55.078125 91.015625 42.96875 
z
M 57.8125 5.078125 
L 57.8125 29.296875 
L 41.40625 29.296875 
L 41.40625 5.078125 
z
M 82.421875 5.078125 
L 82.421875 29.296875 
L 66.015625 29.296875 
L 66.015625 5.078125 
z
M 33.59375 5.078125 
L 33.59375 29.296875 
L 17.96875 29.296875 
L 17.96875 5.078125 
z
M 57.8125 35.15625 
L 57.8125 55.078125 
L 41.40625 55.078125 
L 41.40625 35.15625 
z
M 82.421875 35.15625 
L 82.421875 55.078125 
L 66.015625 55.078125 
L 66.015625 35.15625 
z
M 33.59375 35.15625 
L 33.59375 55.078125 
L 17.96875 55.078125 
L 17.96875 35.15625 
z
" id="SimHei-26354"/>
       <path d="M 53.90625 67.1875 
Q 53.90625 73.046875 52.734375 80.078125 
Q 57.8125 79.6875 63.28125 78.90625 
Q 62.109375 76.5625 61.71875 71.28125 
Q 61.328125 66.015625 61.71875 56.25 
L 75 58.59375 
Q 81.640625 60.15625 88.28125 62.109375 
L 89.84375 54.6875 
Q 83.203125 53.90625 76.171875 52.734375 
L 62.109375 50 
Q 62.109375 43.75 62.890625 39.0625 
L 78.125 41.796875 
Q 85.9375 43.359375 92.96875 45.703125 
L 94.140625 38.28125 
Q 87.109375 37.109375 79.296875 35.546875 
L 64.0625 32.8125 
Q 64.84375 25 67.96875 18.359375 
Q 71.484375 21.09375 74.796875 24.609375 
Q 78.125 28.125 80.859375 32.421875 
Q 86.71875 27.734375 89.84375 26.171875 
Q 84.765625 23.828125 81.828125 20.890625 
Q 78.90625 17.96875 72.265625 11.71875 
Q 76.953125 3.90625 80.65625 1.75 
Q 84.375 -0.390625 85.9375 1.5625 
Q 87.5 3.515625 88.671875 9.765625 
Q 92.1875 7.03125 96.875 5.46875 
Q 90.234375 -11.71875 82.421875 -8.390625 
Q 74.609375 -5.078125 66.015625 7.03125 
Q 60.546875 2.734375 55.265625 -0.96875 
Q 50 -4.6875 42.1875 -8.59375 
Q 40.234375 -4.6875 36.328125 -1.5625 
Q 44.140625 1.171875 49.609375 4.296875 
Q 55.078125 7.421875 62.109375 13.28125 
Q 58.59375 21.09375 57.03125 31.640625 
Q 45.3125 29.6875 40.625 28.125 
L 39.453125 35.546875 
Q 44.140625 35.546875 55.46875 37.890625 
Q 54.6875 44.140625 54.6875 48.4375 
Q 44.140625 46.09375 40.234375 44.921875 
L 38.671875 52.34375 
Q 42.578125 52.34375 53.90625 54.6875 
z
M 30.46875 76.171875 
Q 26.5625 72.65625 22.84375 66.203125 
Q 19.140625 59.765625 12.890625 50.390625 
Q 22.265625 50.78125 25.78125 50.78125 
Q 29.296875 56.640625 32.03125 63.671875 
Q 35.9375 60.9375 40.625 59.375 
Q 36.71875 55.46875 32.609375 48.828125 
Q 28.515625 42.1875 18.359375 26.171875 
Q 28.90625 26.953125 37.109375 27.734375 
Q 35.9375 23.828125 35.9375 21.09375 
Q 33.203125 21.09375 23.828125 20.109375 
Q 14.453125 19.140625 8.59375 17.578125 
Q 8.203125 21.484375 6.25 25.78125 
Q 10.9375 26.953125 14.84375 32.03125 
Q 18.75 37.109375 23.046875 44.921875 
Q 10.15625 44.140625 6.640625 41.796875 
Q 5.46875 46.09375 3.125 50.390625 
Q 8.203125 53.90625 12.890625 61.90625 
Q 17.578125 69.921875 21.484375 80.46875 
Q 25.390625 77.734375 30.46875 76.171875 
z
M 40.234375 13.671875 
Q 39.84375 9.375 40.234375 7.03125 
Q 30.46875 5.078125 22.65625 3.125 
Q 14.84375 1.171875 8.203125 -1.171875 
Q 7.03125 3.125 3.90625 7.421875 
Q 14.84375 8.59375 20.703125 9.5625 
Q 26.5625 10.546875 40.234375 13.671875 
z
M 75.78125 62.890625 
Q 73.046875 67.1875 68.359375 73.046875 
L 74.609375 76.171875 
Q 76.171875 74.21875 82.421875 66.796875 
Q 78.515625 65.234375 75.78125 62.890625 
z
" id="SimHei-32447"/>
      </defs>
      <use xlink:href="#SimHei-25311"/>
      <use x="100" xlink:href="#SimHei-21512"/>
      <use x="200" xlink:href="#SimHei-26354"/>
      <use x="300" xlink:href="#SimHei-32447"/>
     </g>
    </g>
    <g id="PathCollection_2">
     <g>
      <use style="fill:#ff0000;stroke:#ff0000;" x="91" xlink:href="#me85d31e2b2" y="63.27875"/>
     </g>
    </g>
    <g id="text_17">
     <!-- 实验结果 -->
     <g transform="translate(109 65.90375)scale(0.1 -0.1)">
      <use xlink:href="#SimHei-23454"/>
      <use x="100" xlink:href="#SimHei-39564"/>
      <use x="200" xlink:href="#SimHei-32467"/>
      <use x="300" xlink:href="#SimHei-26524"/>
     </g>
    </g>
   </g>
  </g>
 </g>
 <defs>
  <clipPath id="p2eb27caab6">
   <rect height="221.76" width="446.4" x="72" y="34.56"/>
  </clipPath>
 </defs>
</svg>
